Roboto Serif Text-70_VL.ufo
<glyph name="numbersign" format="2">
  <advance width="515"/>
  <unicode hex="0023"/>
  <outline>
    <contour>
      <point x="101.83" y="0.0" type="line"/>
      <point x="135.55" y="0.0" type="line"/>
      <point x="367.14" y="750.0" type="line"/>
      <point x="334.35" y="750.0" type="line"/>
    </contour>
    <contour>
      <point x="87.92" y="260.93" type="line"/>
      <point x="502.64" y="260.93" type="line"/>
      <point x="505.64" y="299.07" type="line"/>
      <point x="90.92" y="299.07" type="line"/>
    </contour>
    <contour>
      <point x="146.34" y="470.93" type="line"/>
      <point x="561.06" y="470.93" type="line"/>
      <point x="564.13" y="509.07" type="line"/>
      <point x="150.34" y="509.07" type="line"/>
    </contour>
    <contour>
      <point x="269.63" y="0.0" type="line"/>
      <point x="303.35" y="0.0" type="line"/>
      <point x="534.94" y="750.0" type="line"/>
      <point x="501.22" y="750.0" type="line"/>
    </contour>
  </outline>
</glyph>
<glyph name="dollar" format="2">
  <advance width="560"/>
  <unicode hex="0024"/>
  <outline>
    <contour>
      <point x="284.32" y="8.0" type="curve" smooth="yes"/>
      <point x="399.59901554404144" y="8.0"/>
      <point x="481.63" y="78.31138461538463"/>
      <point x="481.63" y="201.72" type="curve" smooth="yes"/>
      <point x="481.63" y="305.1401754385965"/>
      <point x="410.91597266652633" y="340.4510311804038"/>
      <point x="348.11" y="374.0" type="curve" smooth="yes"/>
      <point x="278.78" y="411.21"/>
      <point x="218.31" y="434.77"/>
      <point x="218.31" y="529.35" type="curve" smooth="yes"/>
      <point x="218.31" y="609.42"/>
      <point x="267.29" y="668.93"/>
      <point x="370.34" y="668.93" type="curve" smooth="yes"/>
      <point x="422.23" y="668.93"/>
      <point x="492.0" y="654.86"/>
      <point x="511.49" y="607.86" type="curve"/>
      <point x="520.56" y="626.86"/>
      <point x="503.28" y="648.86"/>
      <point x="493.07" y="653.86" type="curve"/>
      <point x="475.14" y="554.86" type="line"/>
      <point x="519.56" y="554.86" type="line"/>
      <point x="535.56" y="644.93" type="line"/>
      <point x="508.86" y="672.93"/>
      <point x="447.44" y="698.0"/>
      <point x="373.41" y="698.0" type="curve" smooth="yes"/>
      <point x="250.07999999999998" y="698.0"/>
      <point x="183.24" y="628.7963005780347"/>
      <point x="183.24" y="526.35" type="curve" smooth="yes"/>
      <point x="183.24" y="424.86420118343193"/>
      <point x="244.79477187047357" y="389.65107807369606"/>
      <point x="304.62" y="356.0" type="curve" smooth="yes"/>
      <point x="373.88" y="315.86"/>
      <point x="445.56" y="296.3"/>
      <point x="445.56" y="199.65" type="curve" smooth="yes"/>
      <point x="445.56" y="97.51"/>
      <point x="387.3" y="36.14"/>
      <point x="286.53" y="36.14" type="curve" smooth="yes"/>
      <point x="217.87" y="36.14"/>
      <point x="147.82" y="63.07"/>
      <point x="116.98" y="122.21" type="curve"/>
      <point x="112.12" y="109.14"/>
      <point x="122.26" y="99.07"/>
      <point x="131.33" y="77.14" type="curve"/>
      <point x="149.4" y="182.14" type="line"/>
      <point x="106.05" y="182.14" type="line"/>
      <point x="90.98" y="94.14" type="line"/>
      <point x="122.61" y="54.0"/>
      <point x="190.59" y="8.0"/>
    </contour>
    <contour>
      <point x="224.83" y="-120.93" type="line"/>
      <point x="256.18" y="-120.0" type="line"/>
      <point x="282.11" y="21.0" type="line"/>
      <point x="283.11" y="26.07" type="line"/>
      <point x="397.11" y="675.93" type="line"/>
      <point x="400.04" y="689.86" type="line"/>
      <point x="417.11" y="787.93" type="line"/>
      <point x="385.76" y="787.0" type="line"/>
      <point x="367.76" y="688.93" type="line"/>
      <point x="365.83" y="679.93" type="line"/>
      <point x="250.83" y="28.07" type="line"/>
      <point x="250.76" y="23.07" type="line"/>
    </contour>
  </outline>
</glyph>
<glyph name="ampersand" format="2">
  <advance width="574"/>
  <unicode hex="0026"/>
  <outline>
    <contour>
      <point x="551.07" y="0.0" type="line"/>
      <point x="556.14" y="26.28" type="line"/>
      <point x="539.93" y="26.28" type="line" smooth="yes"/>
      <point x="503.3" y="26.28"/>
      <point x="486.74" y="34.35"/>
      <point x="460.83" y="71.63" type="curve" smooth="yes"/>
      <point x="325.54" y="267.35"/>
      <point x="265.42" y="395.56"/>
      <point x="265.42" y="522.77" type="curve" smooth="yes"/>
      <point x="265.42" y="632.72"/>
      <point x="300.54" y="688.93"/>
      <point x="367.96" y="688.93" type="curve" smooth="yes"/>
      <point x="413.8" y="688.93"/>
      <point x="435.5" y="659.3"/>
      <point x="435.5" y="598.93" type="curve" smooth="yes"/>
      <point x="435.5" y="493.07"/>
      <point x="370.45" y="450.07"/>
      <point x="268.98" y="420.07" type="curve"/>
      <point x="276.19" y="396.0" type="line"/>
      <point x="383.59" y="426.0"/>
      <point x="471.78" y="488.0"/>
      <point x="471.78" y="598.0" type="curve" smooth="yes"/>
      <point x="471.78" y="673.86"/>
      <point x="434.73" y="718.0"/>
      <point x="368.89" y="718.0" type="curve" smooth="yes"/>
      <point x="278.47" y="718.0"/>
      <point x="227.28" y="645.86"/>
      <point x="227.28" y="519.98" type="curve" smooth="yes"/>
      <point x="227.28" y="357.14"/>
      <point x="332.52" y="179.56"/>
      <point x="467.46" y="0.0" type="curve"/>
    </contour>
    <contour>
      <point x="237.68" y="20.49" type="curve" smooth="yes"/>
      <point x="147.21" y="20.49"/>
      <point x="103.88" y="73.54"/>
      <point x="103.88" y="178.33" type="curve" smooth="yes"/>
      <point x="103.88" y="307.28"/>
      <point x="168.58" y="360.0"/>
      <point x="260.91" y="392.0" type="curve"/>
      <point x="256.91" y="417.07" type="line"/>
      <point x="153.65" y="388.07"/>
      <point x="65.74" y="324.28"/>
      <point x="65.74" y="177.4" type="curve" smooth="yes"/>
      <point x="65.74" y="60.19"/>
      <point x="125.28" y="-8.58"/>
      <point x="235.82" y="-8.58" type="curve" smooth="yes"/>
      <point x="412.13" y="-8.58"/>
      <point x="482.04" y="206.42"/>
      <point x="515.25" y="326.93" type="curve" smooth="yes"/>
      <point x="525.32" y="361.79"/>
      <point x="544.16" y="367.72"/>
      <point x="586.3" y="367.72" type="curve" smooth="yes"/>
      <point x="588.3" y="367.72" type="line"/>
      <point x="593.3" y="394.0" type="line"/>
      <point x="433.99" y="394.0" type="line"/>
      <point x="428.99" y="367.72" type="line"/>
      <point x="431.92" y="367.72" type="line" smooth="yes"/>
      <point x="454.34" y="367.72"/>
      <point x="488.97" y="363.79"/>
      <point x="488.97" y="355.93" type="curve"/>
      <point x="469.04" y="224.49"/>
      <point x="391.92" y="20.49"/>
    </contour>
  </outline>
</glyph>
<glyph name="quotesingle" format="2">
  <advance width="217"/>
  <unicode hex="0027"/>
  <outline>
    <contour>
      <point x="246.17" y="710.0" type="line"/>
      <point x="231.24" y="613.42"/>
      <point x="214.24" y="581.79"/>
      <point x="191.45" y="455.07" type="curve"/>
      <point x="164.17" y="455.07" type="line"/>
      <point x="188.1" y="578.63"/>
      <point x="186.96" y="630.0"/>
      <point x="203.82" y="710.0" type="curve"/>
    </contour>
  </outline>
</glyph>
<glyph name="parenleft" format="2">
  <advance width="260"/>
  <unicode hex="0028"/>
  <outline>
    <contour>
      <point x="116.16" y="228.07" type="curve" smooth="yes"/>
      <point x="111.51" y="69.0"/>
      <point x="155.49" y="-51.0"/>
      <point x="210.68" y="-127.0" type="curve"/>
      <point x="209.68" y="-130.0" type="line"/>
      <point x="177.4" y="-130.0" type="line"/>
      <point x="117.35" y="-55.0"/>
      <point x="74.3" y="65.07"/>
      <point x="78.95" y="228.07" type="curve" smooth="yes"/>
      <point x="86.39" y="478.0"/>
      <point x="211.0" y="667.0"/>
      <point x="329.61" y="750.0" type="curve"/>
      <point x="362.89" y="750.0" type="line"/>
      <point x="360.96" y="747.0" type="line"/>
      <point x="239.0" y="646.0"/>
      <point x="123.6" y="468.0"/>
    </contour>
  </outline>
</glyph>
<glyph name="slash" format="2">
  <advance width="363"/>
  <unicode hex="002F"/>
  <outline>
    <contour>
      <point x="446.06" y="750.0" type="line"/>
      <point x="-52.24" y="-130.0" type="line"/>
      <point x="-17.96" y="-130.0" type="line"/>
      <point x="480.34" y="750.0" type="line"/>
    </contour>
  </outline>
</glyph>
<glyph name="one" format="2">
  <advance width="460"/>
  <unicode hex="0031"/>
  <outline>
    <contour>
      <point x="267.87" y="63.0" type="curve" smooth="yes"/>
      <point x="363.94" y="609.0" type="line"/>
      <point x="339.87" y="609.0" type="line"/>
      <point x="298.2395720809164" y="551.1810202218285"/>
      <point x="237.54" y="522.91"/>
      <point x="165.35" y="519.98" type="curve"/>
      <point x="157.56" y="492.77" type="line"/>
      <point x="225.09221945267024" y="490.7812770312635"/>
      <point x="298.8" y="519.56"/>
      <point x="324.87" y="567.42" type="curve"/>
      <point x="317.87" y="573.86" type="line"/>
      <point x="227.87" y="62.07" type="line" smooth="yes"/>
      <point x="222.87" y="33.07"/>
      <point x="187.24" y="26.07"/>
      <point x="133.4" y="26.07" type="curve" smooth="yes"/>
      <point x="84.49" y="26.07" type="line"/>
      <point x="79.49" y="0.0" type="line"/>
      <point x="388.25" y="0.0" type="line"/>
      <point x="393.25" y="26.07" type="line"/>
      <point x="351.55" y="26.07" type="line" smooth="yes"/>
      <point x="282.41" y="26.07"/>
      <point x="262.87" y="34.0"/>
    </contour>
  </outline>
</glyph>
<glyph name="five" format="2">
  <advance width="460"/>
  <unicode hex="0035"/>
  <guideline x="126.48" y="240.15" angle="0" identifier="6BUiEOrRjn"/>
  <outline>
    <contour>
      <point x="233.19" y="-90.0" type="curve" smooth="yes"/>
      <point x="355.64" y="-90.0"/>
      <point x="445.41" y="12.77"/>
      <point x="445.41" y="166.0" type="curve" smooth="yes"/>
      <point x="445.41" y="285.51"/>
      <point x="386.43" y="366.0"/>
      <point x="288.26" y="366.0" type="curve" smooth="yes"/>
      <point x="223.07" y="366.0"/>
      <point x="166.3" y="330.79"/>
      <point x="129.6" y="261.72" type="curve"/>
      <point x="144.95" y="265.0" type="line"/>
      <point x="202.02" y="589.0" type="line"/>
      <point x="185.88" y="573.86" type="line"/>
      <point x="462.5" y="573.86" type="line"/>
      <point x="471.92" y="609.0" type="line"/>
      <point x="177.74" y="609.0" type="line"/>
      <point x="112.67" y="240.0" type="line"/>
      <point x="136.81" y="240.0" type="line"/>
      <point x="176.37" y="307.79"/>
      <point x="221.21" y="337.86"/>
      <point x="285.47" y="337.86" type="curve" smooth="yes"/>
      <point x="363.22" y="337.86"/>
      <point x="405.2" y="272.58"/>
      <point x="405.2" y="166.0" type="curve" smooth="yes"/>
      <point x="405.2" y="25.91"/>
      <point x="335.43" y="-61.86"/>
      <point x="232.26" y="-61.86" type="curve" smooth="yes"/>
      <point x="129.74591836734692" y="-61.86"/>
      <point x="93.32" y="13.75"/>
      <point x="84.55" y="81.56" type="curve"/>
      <point x="56.269999999999996" y="75.0" type="line"/>
      <point x="69.32" y="-17.88"/>
      <point x="125.43619318181818" y="-90.0"/>
    </contour>
  </outline>
</glyph>
<glyph name="less" format="2">
  <advance width="560"/>
  <unicode hex="003C"/>
  <outline>
    <contour>
      <point x="431.56" y="130.21" type="line"/>
      <point x="166.31" y="309.07" type="line"/>
      <point x="173.38" y="350.14" type="line"/>
      <point x="501.44" y="528.07" type="line"/>
      <point x="494.44" y="491.93" type="line"/>
      <point x="183.73" y="323.14" type="line"/>
      <point x="184.59" y="332.35" type="line"/>
      <point x="436.7" y="164.35" type="line"/>
    </contour>
  </outline>
</glyph>
<glyph name="C" format="2">
  <advance width="561"/>
  <unicode hex="0043"/>
  <guideline x="555.21" y="708.6" angle="0" identifier="B2nGVVfJFA"/>
  <anchor x="353.1179358437936" y="741.0" name="top"/>
  <anchor x="331.7279358437936" y="0" name="bottom"/>
  <outline>
    <contour>
      <point x="403.37" y="691.86" type="curve"/>
      <point x="486.94" y="691.86"/>
      <point x="526.43" y="632.34"/>
      <point x="543.99" y="528.32" type="curve"/>
      <point x="571.34" y="528.32" type="line"/>
      <point x="602.69" y="710.0" type="line"/>
      <point x="577.62" y="710.0" type="line"/>
      <point x="547.78" y="582.41" type="line"/>
      <point x="551.5" y="579.62"/>
      <point x="557.2" y="581.25"/>
      <point x="557.2" y="588.69" type="curve"/>
      <point x="537.92" y="665.71"/>
      <point x="494.36" y="721.86"/>
      <point x="404.3" y="721.86" type="curve" smooth="yes"/>
      <point x="226.27" y="721.86"/>
      <point x="103.59" y="521.33"/>
      <point x="103.59" y="265.99" type="curve" smooth="yes"/>
      <point x="103.59" y="102.17"/>
      <point x="180.67" y="-9.07"/>
      <point x="315.61" y="-9.07" type="curve" smooth="yes"/>
      <point x="420.62" y="-9.07"/>
      <point x="487.95" y="45.75"/>
      <point x="541.67" y="172.82" type="curve"/>
      <point x="514.53" y="186.17" type="line"/>
      <point x="463.09" y="67.45"/>
      <point x="401.6" y="20.0"/>
      <point x="314.68" y="20.0" type="curve" smooth="yes"/>
      <point x="204.32" y="20.0"/>
      <point x="144.73" y="125.68"/>
      <point x="144.73" y="268.78" type="curve" smooth="yes"/>
      <point x="144.73" y="504.75"/>
      <point x="253.27" y="691.86"/>
    </contour>
  </outline>
</glyph>
<glyph name="D" format="2">
  <advance width="578"/>
  <unicode hex="0044"/>
  <anchor x="361.77641655886157" y="741.0" name="top"/>
  <anchor x="340.3864165588616" y="0" name="bottom"/>
  <outline>
    <contour>
      <point x="145.92" y="683.72" type="line"/>
      <point x="155.13" y="683.72" type="line" smooth="yes"/>
      <point x="205.99" y="683.72"/>
      <point x="224.25" y="675.65"/>
      <point x="219.25" y="646.79" type="curve" smooth="yes"/>
      <point x="116.32" y="63.21" type="line" smooth="yes"/>
      <point x="111.32" y="34.21"/>
      <point x="80.83" y="26.28"/>
      <point x="40.2" y="26.28" type="curve" smooth="yes"/>
      <point x="30.06" y="26.28" type="line"/>
      <point x="25.92" y="0.0" type="line"/>
      <point x="283.99" y="0.0" type="line" smooth="yes"/>
      <point x="477.3" y="0.0"/>
      <point x="596.16" y="209.53"/>
      <point x="596.16" y="440.78" type="curve" smooth="yes"/>
      <point x="596.16" y="599.32"/>
      <point x="525.8" y="710.0"/>
      <point x="379.96" y="710.0" type="curve" smooth="yes"/>
      <point x="150.99" y="710.0" type="line"/>
    </contour>
    <contour>
      <point x="379.82" y="680.93" type="line" smooth="yes"/>
      <point x="499.66" y="680.93"/>
      <point x="555.95" y="581.81"/>
      <point x="555.95" y="443.57" type="curve" smooth="yes"/>
      <point x="555.95" y="239.62"/>
      <point x="458.09" y="29.07"/>
      <point x="284.13" y="29.07" type="curve" smooth="yes"/>
      <point x="148.46" y="29.07" type="line"/>
      <point x="263.39" y="680.93" type="line"/>
    </contour>
  </outline>
</glyph>
<glyph name="J" format="2">
  <advance width="412"/>
  <unicode hex="004A"/>
  <anchor x="364.76725663716815" y="741.0" name="top"/>
  <outline>
    <contour>
      <point x="382.05" y="646.79" type="curve" smooth="yes"/>
      <point x="297.61" y="168.87" type="line" smooth="yes"/>
      <point x="278.33" y="61.91"/>
      <point x="236.7" y="19.07"/>
      <point x="162.95" y="19.07" type="curve" smooth="yes"/>
      <point x="101.69" y="19.07"/>
      <point x="66.99" y="56.07"/>
      <point x="56.78" y="83.07" type="curve"/>
      <point x="47.71" y="79.14"/>
      <point x="46.78" y="47.07"/>
      <point x="76.13" y="44.07" type="curve"/>
      <point x="92.2" y="134.14" type="line"/>
      <point x="46.85" y="134.14" type="line"/>
      <point x="31.71" y="48.07" type="line"/>
      <point x="46.85" y="29.0"/>
      <point x="90.83" y="-10.0"/>
      <point x="162.02" y="-10.0" type="curve" smooth="yes"/>
      <point x="252.56" y="-10.0"/>
      <point x="312.4" y="33.84"/>
      <point x="334.75" y="162.87" type="curve" smooth="yes"/>
      <point x="420.19" y="646.79" type="line" smooth="yes"/>
      <point x="425.19" y="675.79"/>
      <point x="455.68" y="683.72"/>
      <point x="496.31" y="683.72" type="curve" smooth="yes"/>
      <point x="503.59" y="683.72" type="line"/>
      <point x="508.59" y="710.0" type="line"/>
      <point x="306.58" y="710.0" type="line"/>
      <point x="301.58" y="683.72" type="line"/>
      <point x="317.93" y="683.72" type="line" smooth="yes"/>
      <point x="367.86" y="683.72"/>
      <point x="387.05" y="675.79"/>
    </contour>
  </outline>
</glyph>
<glyph name="K" format="2">
  <advance width="565"/>
  <unicode hex="004B"/>
  <anchor x="314.982071179993" y="741.0" name="top"/>
  <anchor x="293.32528846153843" y="0" name="bottom"/>
  <outline>
    <contour>
      <point x="24.06" y="0.0" type="line"/>
      <point x="220.79" y="0.0" type="line"/>
      <point x="225.86" y="26.28" type="line"/>
      <point x="217.79" y="26.28" type="line" smooth="yes"/>
      <point x="186.3" y="26.28"/>
      <point x="145.67" y="29.28"/>
      <point x="146.67" y="37.21" type="curve" smooth="yes"/>
      <point x="259.53" y="673.72" type="line" smooth="yes"/>
      <point x="260.7476762478919" y="680.6796439814788"/>
      <point x="298.65816901408454" y="683.72"/>
      <point x="328.93" y="683.72" type="curve" smooth="yes"/>
      <point x="338.86" y="683.72" type="line"/>
      <point x="343.0" y="710.0" type="line"/>
      <point x="149.13" y="710.0" type="line"/>
      <point x="144.06" y="683.72" type="line"/>
      <point x="152.27" y="683.72" type="line" smooth="yes"/>
      <point x="202.2" y="683.72"/>
      <point x="221.39" y="675.79"/>
      <point x="216.39" y="646.79" type="curve" smooth="yes"/>
      <point x="113.46" y="63.21" type="line" smooth="yes"/>
      <point x="108.46" y="34.21"/>
      <point x="77.97" y="26.28"/>
      <point x="37.34" y="26.28" type="curve" smooth="yes"/>
      <point x="28.2" y="26.28" type="line"/>
    </contour>
    <contour>
      <point x="355.64" y="0.0" type="line"/>
      <point x="546.88" y="0.0" type="line"/>
      <point x="551.95" y="26.28" type="line"/>
      <point x="542.67" y="26.28" type="line" smooth="yes"/>
      <point x="504.0979411764706" y="26.28"/>
      <point x="490.11" y="33.21"/>
      <point x="471.76" y="62.07" type="curve" smooth="yes"/>
      <point x="269.37" y="374.56" type="line"/>
      <point x="265.72" y="345.91" type="line"/>
      <point x="533.78" y="651.93" type="line" smooth="yes"/>
      <point x="555.13" y="675.93"/>
      <point x="573.27" y="683.72"/>
      <point x="604.62" y="683.72" type="curve" smooth="yes"/>
      <point x="614.9" y="683.72" type="line"/>
      <point x="619.97" y="710.0" type="line"/>
      <point x="441.73" y="710.0" type="line"/>
      <point x="436.66" y="683.72" type="line"/>
      <point x="443.8" y="683.72" type="line" smooth="yes"/>
      <point x="473.36" y="683.72"/>
      <point x="510.64" y="680.72"/>
      <point x="511.64" y="673.72" type="curve"/>
      <point x="238.23" y="360.49" type="line"/>
      <point x="237.23" y="353.63" type="line"/>
      <point x="442.62" y="36.28" type="line"/>
      <point x="441.62" y="31.14"/>
      <point x="401.13" y="26.28"/>
      <point x="368.78" y="26.28" type="curve" smooth="yes"/>
      <point x="359.78" y="26.28" type="line"/>
    </contour>
  </outline>
</glyph>
<glyph name="L" format="2">
  <advance width="497"/>
  <unicode hex="004C"/>
  <anchor x="333.7566857879214" y="741.0" name="top"/>
  <anchor x="418.833703694596" y="710.0" name="right"/>
  <anchor x="412.05627627625546" y="410.0" name="mid"/>
  <anchor x="312.0999030694669" y="0" name="bottom"/>
  <outline>
    <contour>
      <point x="347.93" y="710.0" type="line"/>
      <point x="150.99" y="710.0" type="line"/>
      <point x="145.92" y="683.72" type="line"/>
      <point x="155.06" y="683.72" type="line" smooth="yes"/>
      <point x="205.92" y="683.72"/>
      <point x="224.18" y="675.79"/>
      <point x="219.18" y="646.79" type="curve" smooth="yes"/>
      <point x="116.25" y="63.21" type="line" smooth="yes"/>
      <point x="111.25" y="34.21"/>
      <point x="80.76" y="26.28"/>
      <point x="40.13" y="26.28" type="curve" smooth="yes"/>
      <point x="30.06" y="26.28" type="line"/>
      <point x="25.92" y="0.0" type="line"/>
      <point x="437.24" y="0.0" type="line"/>
      <point x="471.17" y="194.07" type="line"/>
      <point x="446.1" y="194.07" type="line"/>
      <point x="417.82" y="78.58" type="line" smooth="yes"/>
      <point x="407.89" y="39.79"/>
      <point x="383.98" y="29.07"/>
      <point x="307.28" y="29.07" type="curve" smooth="yes"/>
      <point x="148.39" y="29.07" type="line"/>
      <point x="257.32" y="646.79" type="line" smooth="yes"/>
      <point x="262.32" y="674.86"/>
      <point x="292.88" y="683.72"/>
      <point x="333.72" y="683.72" type="curve" smooth="yes"/>
      <point x="343.79" y="683.72" type="line"/>
    </contour>
  </outline>
</glyph>
<glyph name="M" format="2">
  <advance width="723"/>
  <unicode hex="004D"/>
  <guideline x="218.36" y="72.27000000000001" angle="0" identifier="I0lqGPyouK"/>
  <anchor x="394.75328436516264" y="0" name="bottom"/>
  <outline>
    <contour>
      <point x="26.85" y="0.0" type="line"/>
      <point x="209.44" y="0.0" type="line"/>
      <point x="214.44" y="26.28" type="line"/>
      <point x="207.65" y="26.28" type="line" smooth="yes"/>
      <point x="180.23" y="26.28"/>
      <point x="143.39" y="29.28"/>
      <point x="144.39" y="36.28" type="curve" smooth="yes"/>
      <point x="263.32" y="708.93" type="line"/>
      <point x="257.32" y="700.93" type="line"/>
      <point x="339.03" y="-2.0" type="line"/>
      <point x="367.24" y="-2.0" type="line"/>
      <point x="698.74" y="699.93" type="line"/>
      <point x="694.81" y="706.07" type="line"/>
      <point x="577.74" y="36.28" type="line" smooth="yes"/>
      <point x="576.74" y="29.28"/>
      <point x="546.97" y="26.28"/>
      <point x="515.55" y="26.28" type="curve" smooth="yes"/>
      <point x="508.41" y="26.28" type="line"/>
      <point x="503.41" y="0.0" type="line"/>
      <point x="684.49" y="0.0" type="line"/>
      <point x="689.49" y="26.28" type="line"/>
      <point x="680.35" y="26.28" type="line" smooth="yes"/>
      <point x="629.49" y="26.28"/>
      <point x="611.23" y="34.21"/>
      <point x="616.23" y="63.21" type="curve" smooth="yes"/>
      <point x="719.16" y="646.79" type="line" smooth="yes"/>
      <point x="724.16" y="675.79"/>
      <point x="754.65" y="683.72"/>
      <point x="795.28" y="683.72" type="curve" smooth="yes"/>
      <point x="805.35" y="683.72" type="line"/>
      <point x="809.49" y="710.0" type="line"/>
      <point x="665.88" y="710.0" type="line"/>
      <point x="347.45" y="27.21" type="line"/>
      <point x="368.17" y="38.14" type="line"/>
      <point x="293.67" y="710.0" type="line"/>
      <point x="151.85" y="710.0" type="line"/>
      <point x="146.78" y="683.72" type="line"/>
      <point x="155.92" y="683.72" type="line" smooth="yes"/>
      <point x="205.85" y="683.72"/>
      <point x="225.04" y="675.79"/>
      <point x="220.04" y="646.79" type="curve" smooth="yes"/>
      <point x="117.11" y="63.21" type="line" smooth="yes"/>
      <point x="112.11" y="34.21"/>
      <point x="81.62" y="26.28"/>
      <point x="41.92" y="26.28" type="curve"/>
      <point x="30.92" y="26.28" type="line"/>
    </contour>
  </outline>
</glyph>
<glyph name="P" format="2">
  <advance width="491"/>
  <unicode hex="0050"/>
  <outline>
    <contour>
      <point x="200.39" y="328.07" type="line"/>
      <point x="263.32" y="680.93" type="line"/>
      <point x="363.16" y="680.93" type="line" smooth="yes"/>
      <point x="462.91983606557375" y="680.93"/>
      <point x="501.64" y="623.6692413793104"/>
      <point x="501.64" y="527.86" type="curve" smooth="yes"/>
      <point x="501.64" y="405.22423076923076"/>
      <point x="441.1516279069767" y="328.07"/>
      <point x="314.56" y="328.07" type="curve" smooth="yes"/>
    </contour>
    <contour>
      <point x="150.99" y="710.0" type="line"/>
      <point x="145.92" y="683.72" type="line"/>
      <point x="155.06" y="683.72" type="line" smooth="yes"/>
      <point x="205.92" y="683.72"/>
      <point x="224.18" y="675.79"/>
      <point x="219.18" y="646.79" type="curve" smooth="yes"/>
      <point x="116.25" y="64.14" type="line" smooth="yes"/>
      <point x="111.25" y="34.21"/>
      <point x="79.83" y="26.28"/>
      <point x="40.13" y="26.28" type="curve" smooth="yes"/>
      <point x="30.06" y="26.28" type="line"/>
      <point x="25.92" y="0.0" type="line"/>
      <point x="230.58" y="0.0" type="line"/>
      <point x="234.72" y="26.28" type="line"/>
      <point x="212.37" y="26.28" type="line" smooth="yes"/>
      <point x="183.95" y="26.28"/>
      <point x="148.39" y="29.28"/>
      <point x="149.39" y="36.28" type="curve" smooth="yes"/>
      <point x="195.39" y="299.0" type="line"/>
      <point x="312.56" y="299.0" type="line" smooth="yes"/>
      <point x="448.83" y="299.0"/>
      <point x="541.85" y="383.03"/>
      <point x="541.85" y="529.72" type="curve" smooth="yes"/>
      <point x="541.85" y="636.86"/>
      <point x="483.66" y="710.0"/>
      <point x="363.23" y="710.0" type="curve" smooth="yes"/>
    </contour>
  </outline>
</glyph>
<glyph name="R" format="2">
  <advance width="523"/>
  <unicode hex="0052"/>
  <guideline x="311.55" y="331.09" angle="0" identifier="q96T1Uv6gX"/>
  <guideline x="198.555" y="48.61" angle="0" identifier="hLXVLS0qhI"/>
  <guideline x="201.81" y="68.99000000000001" angle="0" identifier="QsLIglKCx0"/>
  <anchor x="373.24772661870503" y="741.0" name="top"/>
  <anchor x="351.85772661870504" y="0" name="bottom"/>
  <outline>
    <contour>
      <point x="25.92" y="0.0" type="line"/>
      <point x="212.58" y="0.0" type="line"/>
      <point x="216.72" y="26.28" type="line"/>
      <point x="209.58" y="26.28" type="line" smooth="yes"/>
      <point x="182.09" y="26.28"/>
      <point x="148.39" y="29.28"/>
      <point x="149.39" y="36.28" type="curve" smooth="yes"/>
      <point x="199.39" y="319.93" type="line"/>
      <point x="310.28" y="319.93" type="line" smooth="yes"/>
      <point x="329.49" y="319.93"/>
      <point x="347.77" y="321.93"/>
      <point x="364.98" y="324.93" type="curve" smooth="yes"/>
      <point x="470.24" y="343.0"/>
      <point x="540.66" y="419.07"/>
      <point x="540.66" y="539.58" type="curve" smooth="yes"/>
      <point x="540.66" y="640.86"/>
      <point x="480.4" y="710.0"/>
      <point x="362.88" y="710.0" type="curve" smooth="yes"/>
      <point x="150.99" y="710.0" type="line"/>
      <point x="145.92" y="683.72" type="line"/>
      <point x="155.06" y="683.72" type="line" smooth="yes"/>
      <point x="205.92" y="683.72"/>
      <point x="224.18" y="675.79"/>
      <point x="219.18" y="646.79" type="curve" smooth="yes"/>
      <point x="116.25" y="64.14" type="line" smooth="yes"/>
      <point x="111.25" y="34.21"/>
      <point x="79.83" y="26.28"/>
      <point x="40.13" y="26.28" type="curve" smooth="yes"/>
      <point x="30.06" y="26.28" type="line"/>
    </contour>
    <contour>
      <point x="356.74" y="680.93" type="line" smooth="yes"/>
      <point x="453.561475409836" y="680.93"/>
      <point x="500.45" y="627.79"/>
      <point x="500.45" y="537.79" type="curve" smooth="yes"/>
      <point x="500.45" y="421.42"/>
      <point x="437.85854545454544" y="349.0"/>
      <point x="315.28" y="349.0" type="curve" smooth="yes"/>
      <point x="204.39" y="349.0" type="line"/>
      <point x="263.32" y="680.93" type="line"/>
    </contour>
    <contour>
      <point x="336.19" y="331.93" type="line"/>
      <point x="416.04" y="0.0" type="line"/>
      <point x="503.88" y="0.0" type="line"/>
      <point x="508.95" y="26.28" type="line"/>
      <point x="486.65" y="26.28" type="line" smooth="yes"/>
      <point x="459.09" y="26.28"/>
      <point x="446.25" y="33.14"/>
      <point x="439.97" y="57.07" type="curve" smooth="yes"/>
      <point x="369.26" y="346.93" type="line"/>
    </contour>
  </outline>
</glyph>
<glyph name="S" format="2">
  <advance width="487"/>
  <unicode hex="0053"/>
  <anchor x="339.75573033707866" y="741.0" name="top"/>
  <anchor x="318.3657303370787" y="0" name="bottom"/>
  <outline>
    <contour>
      <point x="283.31" y="-10.0" type="curve" smooth="yes" identifier="7IMo7wMURj"/>
      <point x="392.15" y="-10.0" identifier="zWqZYSpnXl"/>
      <point x="474.34" y="61.0" identifier="zZ6FptFwso"/>
      <point x="478.06" y="183.07" type="curve" smooth="yes" identifier="Rs1fVN3fdq"/>
      <point x="480.85" y="291.07" identifier="6FL1l3QWpk"/>
      <point x="397.59" y="343.72" identifier="GTVnxJgahw"/>
      <point x="323.91" y="385.0" type="curve" smooth="yes" identifier="xfUUXeHI5P"/>
      <point x="253.51" y="424.21" identifier="7sePc6Mbpg"/>
      <point x="187.46" y="463.0" identifier="ipkCBjTW5t"/>
      <point x="189.32" y="552.0" type="curve" smooth="yes" identifier="GSi3KAUHNs"/>
      <point x="192.11" y="629.93" identifier="NqjdYKnmk5"/>
      <point x="235.67" y="691.86" identifier="sC3wTH2pkB"/>
      <point x="323.42" y="691.86" type="curve" smooth="yes" identifier="AbvscOw6oZ"/>
      <point x="414.1" y="691.86" identifier="KJgRbN9Enc"/>
      <point x="460.01" y="615.93" identifier="weY9Qh9SAl"/>
      <point x="464.36" y="524.0" type="curve" identifier="gnSlcno2dL"/>
      <point x="493.57" y="524.0" type="line" identifier="TRk85IN4BN"/>
      <point x="526.57" y="710.0" type="line" identifier="itxNnoxICc"/>
      <point x="502.43" y="710.0" type="line" identifier="NHKfBQeOlb"/>
      <point x="468.29" y="565.0" type="line" identifier="3ky0rLnp8e"/>
      <point x="477.43" y="559.0" identifier="5UPGulBAoI"/>
      <point x="483.43" y="551.0" identifier="PqbFjRaFA7"/>
      <point x="483.43" y="548.0" type="curve" identifier="JG4iwZD1kk"/>
      <point x="484.22" y="632.07" identifier="s6OYsJFnL3"/>
      <point x="429.24" y="720.0" identifier="TKuhXZlcM1"/>
      <point x="325.28" y="720.0" type="curve" smooth="yes" identifier="ywec66etN0"/>
      <point x="219.53" y="720.0" identifier="SXN83QSenV"/>
      <point x="154.9" y="646.0" identifier="zV2Sg7q2bC"/>
      <point x="152.11" y="552.93" type="curve" smooth="yes" identifier="2MzqK4HtzW"/>
      <point x="149.32" y="440.93" identifier="uryDPRV4Yi"/>
      <point x="228.58" y="397.21" identifier="0xHnSsFtRb"/>
      <point x="299.26" y="355.0" type="curve" smooth="yes" identifier="nuoGirKvMB"/>
      <point x="368.59" y="316.79" identifier="edsxQXu4lC"/>
      <point x="442.71" y="273.0" identifier="FcrK04ptv6"/>
      <point x="439.92" y="182.0" type="curve" smooth="yes" identifier="dBpYvR259p"/>
      <point x="436.2" y="74.07" identifier="wwC8herymm"/>
      <point x="374.01" y="19.07" identifier="PMa4jNanaI"/>
      <point x="283.31" y="19.07" type="curve" smooth="yes" identifier="saPYOlWRVZ"/>
      <point x="183.28" y="19.07" identifier="Uo8fEbKbKp"/>
      <point x="115.53" y="85.47" identifier="FRaer3rZ3y"/>
      <point x="112.04" y="226.0" type="curve" identifier="TZ7pxMprJP"/>
      <point x="77.69" y="226.0" type="line" identifier="DLseMhIA1X"/>
      <point x="37.69" y="0.0" type="line" identifier="Z2X55oOi9i"/>
      <point x="63.83" y="0.0" type="line" identifier="twAER0RoQz"/>
      <point x="102.04" y="175.0" type="line" identifier="XUTgMpUhfJ"/>
      <point x="101.11" y="188.30914855055" identifier="jDrO0WWqEx"/>
      <point x="97.11" y="197.72" identifier="2AaVQofOMh"/>
      <point x="89.04" y="202.0" type="curve" identifier="IxU01tdEQK"/>
      <point x="95.46" y="57.19" identifier="OMdhKxcfFg"/>
      <point x="176.28" y="-10.0" identifier="rM273QQx6C"/>
    </contour>
  </outline>
</glyph>
<glyph name="V" format="2">
  <advance width="543"/>
  <unicode hex="0056"/>
  <outline>
    <contour>
      <point x="275.56" y="4.14" type="line"/>
      <point x="209.34" y="670.93" type="line"/>
      <point x="210.34" y="679.79"/>
      <point x="249.97" y="683.72"/>
      <point x="280.53" y="683.72" type="curve" smooth="yes"/>
      <point x="295.67" y="683.72" type="line"/>
      <point x="300.74" y="710.0" type="line"/>
      <point x="126.29" y="710.0" type="line"/>
      <point x="121.22" y="683.72" type="line"/>
      <point x="125.29" y="683.72" type="line"/>
      <point x="159.29" y="683.72"/>
      <point x="171.06" y="677.07"/>
      <point x="173.2" y="652.93" type="curve" smooth="yes"/>
      <point x="241.35" y="0.0" type="line"/>
      <point x="291.84" y="0.0" type="line"/>
      <point x="580.92" y="637.93" type="line" smooth="yes"/>
      <point x="597.13" y="674.0"/>
      <point x="611.62" y="683.72"/>
      <point x="644.9" y="683.72" type="curve"/>
      <point x="649.9" y="683.72" type="line"/>
      <point x="654.97" y="710.0" type="line"/>
      <point x="484.45" y="710.0" type="line"/>
      <point x="479.38" y="683.72" type="line"/>
      <point x="489.73" y="683.72" type="line" smooth="yes"/>
      <point x="520.29" y="683.72"/>
      <point x="559.71" y="675.79"/>
      <point x="556.78" y="662.93" type="curve"/>
      <point x="266.49" y="10.14" type="line"/>
    </contour>
  </outline>
</glyph>
<glyph name="Z" format="2">
  <advance width="471"/>
  <unicode hex="005A"/>
  <anchor x="277.29897106109325" y="741.0" name="top"/>
  <anchor x="255.90897106109324" y="0" name="bottom"/>
  <outline>
    <contour>
      <point x="50.269999999999996" y="29.07" type="line"/>
      <point x="59.34" y="15.0" type="line"/>
      <point x="538.57" y="681.86" type="line"/>
      <point x="543.64" y="710.0" type="line"/>
      <point x="159.69" y="710.0" type="line"/>
      <point x="130.62" y="541.93" type="line"/>
      <point x="154.76" y="541.93" type="line"/>
      <point x="177.18" y="626.77" type="line" smooth="yes"/>
      <point x="189.04" y="670.21"/>
      <point x="212.95" y="680.93"/>
      <point x="290.58" y="680.93" type="curve" smooth="yes"/>
      <point x="508.5" y="680.93" type="line"/>
      <point x="501.43" y="689.93" type="line"/>
      <point x="28.27" y="31.14" type="line"/>
      <point x="23.2" y="0.0" type="line"/>
      <point x="435.78" y="0.0" type="line"/>
      <point x="469.78" y="192.07" type="line"/>
      <point x="444.64" y="192.07" type="line"/>
      <point x="416.36" y="81.37" type="line" smooth="yes"/>
      <point x="406.36" y="39.79"/>
      <point x="382.45" y="29.07"/>
      <point x="304.82" y="29.07" type="curve" smooth="yes"/>
    </contour>
  </outline>
</glyph>
<glyph name="bracketleft" format="2">
  <advance width="241"/>
  <unicode hex="005B"/>
  <outline>
    <contour>
      <point x="204.72" y="-100.93" type="line"/>
      <point x="85.9" y="-100.93" type="line"/>
      <point x="230.97" y="720.93" type="line"/>
      <point x="349.23" y="720.93" type="line"/>
      <point x="354.3" y="750.0" type="line"/>
      <point x="198.76" y="750.0" type="line"/>
      <point x="43.69" y="-130.0" type="line"/>
      <point x="199.65" y="-130.0" type="line"/>
    </contour>
  </outline>
</glyph>
<glyph name="backslash" format="2">
  <advance width="315"/>
  <unicode hex="005C"/>
  <outline>
    <contour>
      <point x="142.47" y="750.0" type="line"/>
      <point x="111.26" y="750.0" type="line"/>
      <point x="301.28" y="-130.0" type="line"/>
      <point x="332.49" y="-130.0" type="line"/>
    </contour>
  </outline>
</glyph>
<glyph name="underscore" format="2">
  <advance width="393"/>
  <unicode hex="005F"/>
  <outline>
    <contour>
      <point x="-23.25" y="-110.93" type="line"/>
      <point x="-26.04" y="-139.07" type="line"/>
      <point x="376.47" y="-139.07" type="line"/>
      <point x="378.33" y="-110.93" type="line"/>
    </contour>
  </outline>
</glyph>
<glyph name="d" format="2">
  <advance width="468"/>
  <unicode hex="0064"/>
  <anchor x="534.2730265210608" y="735.0" name="right"/>
  <anchor x="242.21926677067083" y="0" name="bottom"/>
  <outline>
    <contour>
      <point x="192.65" y="-11.93" type="curve" smooth="yes"/>
      <point x="263.75" y="-11.93"/>
      <point x="324.3670520088806" y="33.95531662935259"/>
      <point x="373.06" y="145.76" type="curve"/>
      <point x="375.36" y="196.36" type="line"/>
      <point x="325.32724190388893" y="73.58042355466002"/>
      <point x="260.61" y="20.86"/>
      <point x="195.58" y="20.86" type="curve" smooth="yes"/>
      <point x="138.11" y="20.86"/>
      <point x="106.25" y="71.68"/>
      <point x="106.25" y="172.91" type="curve" smooth="yes"/>
      <point x="106.25" y="330.05"/>
      <point x="197.55" y="487.07"/>
      <point x="302.49" y="487.07" type="curve" smooth="yes"/>
      <point x="369.91" y="487.07"/>
      <point x="406.57981632793354" y="439.30171427262036"/>
      <point x="415.66" y="355.44" type="curve"/>
      <point x="433.87" y="388.37" type="line"/>
      <point x="424.5173264679595" y="469.9540617883644"/>
      <point x="379.84" y="518.0"/>
      <point x="304.35" y="518.0" type="curve" smooth="yes"/>
      <point x="175.76" y="518.0"/>
      <point x="66.97" y="351.7"/>
      <point x="66.97" y="174.77" type="curve" smooth="yes"/>
      <point x="66.97" y="52.68"/>
      <point x="111.9" y="-11.93"/>
    </contour>
    <contour>
      <point x="413.29" y="-7.0" type="curve" smooth="yes"/>
      <point x="436.5" y="-7.0"/>
      <point x="458.06" y="0.28"/>
      <point x="470.99" y="8.35" type="curve"/>
      <point x="475.99" y="39.14" type="line"/>
      <point x="459.62" y="28.77"/>
      <point x="439.13" y="22.07"/>
      <point x="420.94" y="22.07" type="curve" smooth="yes"/>
      <point x="397.08" y="22.07"/>
      <point x="389.66" y="34.86"/>
      <point x="389.66" y="61.65" type="curve" smooth="yes"/>
      <point x="389.66" y="90.09"/>
      <point x="394.73" y="122.3"/>
      <point x="404.31" y="178.92" type="curve" smooth="yes"/>
      <point x="502.8" y="735.0" type="line"/>
      <point x="395.54" y="735.0" type="line"/>
      <point x="391.47" y="715.58" type="line"/>
      <point x="405.19" y="713.58" type="line" smooth="yes"/>
      <point x="449.47" y="707.3"/>
      <point x="458.52" y="696.65"/>
      <point x="452.59" y="663.93" type="curve" smooth="yes"/>
      <point x="365.73" y="172.28" type="line"/>
      <point x="367.52" y="174.86" type="line"/>
      <point x="359.52" y="137.93"/>
      <point x="352.45" y="93.37"/>
      <point x="352.45" y="60.72" type="curve" smooth="yes"/>
      <point x="352.45" y="11.07"/>
      <point x="373.15" y="-7.0"/>
    </contour>
  </outline>
</glyph>
<glyph name="e" format="2">
  <advance width="371"/>
  <unicode hex="0065"/>
  <anchor x="208.2167941712204" y="508.0" name="top"/>
  <anchor x="316.8770309653916" y="1.0" name="right"/>
  <anchor x="202.95455373406193" y="0" name="bottom"/>
  <outline>
    <contour>
      <point x="221.12" y="-12.0" type="curve" smooth="yes"/>
      <point x="294.38" y="-12.0"/>
      <point x="347.15" y="39.93"/>
      <point x="380.36" y="105.86" type="curve"/>
      <point x="353.5" y="122.93" type="line"/>
      <point x="321.01" y="56.0"/>
      <point x="283.31" y="18.93"/>
      <point x="224.84" y="18.93" type="curve" smooth="yes"/>
      <point x="154.3" y="18.93"/>
      <point x="107.18" y="73.56"/>
      <point x="107.18" y="184.68" type="curve" smooth="yes"/>
      <point x="107.18" y="351.05"/>
      <point x="186.88" y="486.14"/>
      <point x="290.21" y="486.14" type="curve" smooth="yes"/>
      <point x="341.26" y="486.14"/>
      <point x="366.1" y="452.07"/>
      <point x="366.1" y="398.93" type="curve" smooth="yes"/>
      <point x="366.1" y="292.3413924050633"/>
      <point x="287.26" y="245.86"/>
      <point x="92.83" y="242.86" type="curve"/>
      <point x="88.62" y="216.07" type="line"/>
      <point x="290.98" y="214.07"/>
      <point x="403.24" y="272.72"/>
      <point x="403.24" y="398.93" type="curve" smooth="yes"/>
      <point x="403.24" y="468.0"/>
      <point x="366.33" y="518.0"/>
      <point x="293.0" y="518.0" type="curve" smooth="yes"/>
      <point x="150.02" y="518.0"/>
      <point x="66.97" y="324.8"/>
      <point x="66.97" y="187.47" type="curve" smooth="yes"/>
      <point x="66.97" y="57.49"/>
      <point x="131.44" y="-12.0"/>
    </contour>
  </outline>
</glyph>
<glyph name="i" format="2">
  <advance width="228"/>
  <unicode hex="0069"/>
  <anchor x="189.20235109717868" y="-10.0" name="right"/>
  <anchor x="148.28112852664577" y="-10.0" name="bottom"/>
  <anchor x="175.36742946708463" y="508.0" name="top"/>
  <outline>
    <contour>
      <point x="166.46" y="436.93" type="curve" smooth="yes"/>
      <point x="109.65" y="112.86" type="line" smooth="yes"/>
      <point x="106.09" y="92.85"/>
      <point x="103.53" y="73.33"/>
      <point x="103.53" y="57.14" type="curve" smooth="yes"/>
      <point x="103.53" y="12.93"/>
      <point x="124.23" y="-7.0"/>
      <point x="168.09" y="-7.0" type="curve" smooth="yes"/>
      <point x="188.51" y="-7.0"/>
      <point x="210.07" y="0.28"/>
      <point x="221.14" y="7.42" type="curve"/>
      <point x="226.14" y="38.21" type="line"/>
      <point x="210.7" y="27.84"/>
      <point x="191.14" y="22.07"/>
      <point x="173.88" y="22.07" type="curve" smooth="yes"/>
      <point x="150.95" y="22.07"/>
      <point x="139.81" y="32.07"/>
      <point x="139.81" y="57.14" type="curve" smooth="yes"/>
      <point x="139.81" y="72.12"/>
      <point x="143.3486106100562" y="93.40042573688942"/>
      <point x="147.58" y="117.18" type="curve" smooth="yes"/>
      <point x="216.67" y="508.0" type="line"/>
      <point x="109.41" y="508.0" type="line"/>
      <point x="105.34" y="488.58" type="line"/>
      <point x="119.06" y="486.58" type="line" smooth="yes"/>
      <point x="163.34" y="480.3"/>
      <point x="172.39" y="468.72"/>
    </contour>
    <contour>
      <point x="213.95" y="648.63" type="curve" smooth="yes"/>
      <point x="236.02" y="648.63"/>
      <point x="254.88" y="662.63"/>
      <point x="254.88" y="692.35" type="curve" smooth="yes"/>
      <point x="254.88" y="720.21"/>
      <point x="237.88" y="737.0"/>
      <point x="216.74" y="737.0" type="curve" smooth="yes"/>
      <point x="194.67" y="737.0"/>
      <point x="175.81" y="720.21"/>
      <point x="175.81" y="692.35" type="curve" smooth="yes"/>
      <point x="175.81" y="662.63"/>
      <point x="192.81" y="648.63"/>
    </contour>
  </outline>
</glyph>
<glyph name="j" format="2">
  <advance width="212"/>
  <unicode hex="006A"/>
  <outline>
    <contour>
      <point x="74.02" y="-97.16" type="line" smooth="yes"/>
      <point x="61.02" y="-176.58"/>
      <point x="32.97" y="-204.93"/>
      <point x="-23.17" y="-204.93" type="curve" smooth="yes"/>
      <point x="-49.5" y="-204.93"/>
      <point x="-76.06" y="-196.44"/>
      <point x="-100.5" y="-182.93" type="curve"/>
      <point x="-108.43" y="-215.0" type="line"/>
      <point x="-83.2" y="-228.51"/>
      <point x="-52.78" y="-236.0"/>
      <point x="-22.38" y="-236.0" type="curve" smooth="yes"/>
      <point x="50.41" y="-236.0"/>
      <point x="95.02" y="-194.84"/>
      <point x="110.3" y="-106.53" type="curve" smooth="yes"/>
      <point x="216.39" y="508.0" type="line"/>
      <point x="109.06" y="508.0" type="line"/>
      <point x="105.06" y="488.58" type="line"/>
      <point x="118.78" y="486.58" type="line" smooth="yes"/>
      <point x="163.06" y="480.3"/>
      <point x="172.11" y="468.72"/>
      <point x="166.18" y="436.93" type="curve" smooth="yes"/>
    </contour>
    <contour>
      <point x="213.18" y="648.63" type="curve" smooth="yes"/>
      <point x="235.25" y="648.63"/>
      <point x="254.11" y="662.63"/>
      <point x="254.11" y="692.35" type="curve" smooth="yes"/>
      <point x="254.11" y="720.21"/>
      <point x="237.11" y="737.0"/>
      <point x="215.97" y="737.0" type="curve" smooth="yes"/>
      <point x="193.9" y="737.0"/>
      <point x="175.04" y="720.21"/>
      <point x="175.04" y="692.35" type="curve" smooth="yes"/>
      <point x="175.04" y="662.63"/>
      <point x="192.04" y="648.63"/>
    </contour>
  </outline>
</glyph>
<glyph name="m" format="2">
  <advance width="698"/>
  <unicode hex="006D"/>
  <anchor x="390.5478947368421" y="-10.0" name="bottom"/>
  <outline>
    <contour>
      <point x="89.53" y="0.0" type="line"/>
      <point x="166.53" y="436.93" type="line" smooth="yes"/>
      <point x="172.46" y="468.72"/>
      <point x="163.41" y="480.3"/>
      <point x="119.13" y="486.58" type="curve" smooth="yes"/>
      <point x="104.48" y="488.58" type="line"/>
      <point x="108.55" y="508.0" type="line"/>
      <point x="214.88" y="508.0" type="line"/>
      <point x="187.81" y="351.07" type="line"/>
      <point x="188.67" y="344.07" type="line"/>
      <point x="127.67" y="0.0" type="line"/>
    </contour>
    <contour>
      <point x="628.33" y="117.32" type="line" smooth="yes"/>
      <point x="623.05" y="91.64"/>
      <point x="619.56" y="73.05"/>
      <point x="619.56" y="58.07" type="curve" smooth="yes"/>
      <point x="619.56" y="31.14"/>
      <point x="630.7" y="22.07"/>
      <point x="655.49" y="22.07" type="curve" smooth="yes"/>
      <point x="672.75" y="22.07"/>
      <point x="691.38" y="28.77"/>
      <point x="706.82" y="38.21" type="curve"/>
      <point x="701.82" y="7.42" type="line"/>
      <point x="687.03" y="-1.58"/>
      <point x="666.4" y="-7.0"/>
      <point x="647.84" y="-7.0" type="curve" smooth="yes"/>
      <point x="605.84" y="-7.0"/>
      <point x="584.21" y="11.07"/>
      <point x="584.21" y="56.21" type="curve" smooth="yes"/>
      <point x="584.21" y="71.47"/>
      <point x="586.7" y="93.57"/>
      <point x="591.33" y="117.65" type="curve" smooth="yes"/>
      <point x="634.72" y="346.62" type="line" smooth="yes"/>
      <point x="639.86" y="376.18"/>
      <point x="644.0" y="401.65055555555557"/>
      <point x="644.0" y="422.72" type="curve" smooth="yes"/>
      <point x="644.0" y="461.72"/>
      <point x="634.09" y="485.93"/>
      <point x="595.39" y="485.93" type="curve" smooth="yes"/>
      <point x="539.78" y="485.93"/>
      <point x="474.29" y="417.74"/>
      <point x="409.8" y="282.86" type="curve"/>
      <point x="403.66" y="307.07" type="line"/>
      <point x="462.57" y="447.02"/>
      <point x="529.41" y="518.0"/>
      <point x="601.6" y="518.0" type="curve" smooth="yes"/>
      <point x="663.9983544303798" y="518.0"/>
      <point x="681.21" y="478.86"/>
      <point x="681.21" y="424.58" type="curve" smooth="yes"/>
      <point x="681.21" y="398.02"/>
      <point x="677.93" y="373.18"/>
      <point x="671.86" y="341.76" type="curve" smooth="yes"/>
    </contour>
    <contour>
      <point x="333.66" y="0.0" type="line" identifier="qqK63fg9RF"/>
      <point x="388.87" y="314.07" type="line" smooth="yes" identifier="bbmV3YtRjr"/>
      <point x="394.94" y="351.07" identifier="a78v8FVFSR"/>
      <point x="399.87" y="380.0" identifier="x0lnDkP6Sh"/>
      <point x="400.8" y="419.72" type="curve" smooth="yes" identifier="kY7uE1BxGT"/>
      <point x="401.73" y="464.37" identifier="5MwtOxkA6i"/>
      <point x="384.45" y="485.93" identifier="HLt5LhPD4F"/>
      <point x="353.19" y="485.93" type="curve" smooth="yes" identifier="VZ5Son3D2V"/>
      <point x="291.07" y="485.93" identifier="ScN5GfyaZs"/>
      <point x="227.44" y="402.86" identifier="tuCxsWjUZp"/>
      <point x="170.39" y="286.58" type="curve" identifier="omVY6pZeb7"/>
      <point x="163.32" y="312.65" type="line" identifier="UweOTHJKvT"/>
      <point x="220.37" y="441.44" identifier="0FujdRi0Sz"/>
      <point x="287.21" y="518.0" identifier="dDDrVnbDoC"/>
      <point x="361.26" y="518.0" type="curve" smooth="yes" identifier="cMKFKYk4Oh"/>
      <point x="416.03" y="518.0" identifier="QBnSzO3yRO"/>
      <point x="440.8" y="480.58" identifier="eg2ajJgTdn"/>
      <point x="438.94" y="419.72" type="curve" smooth="yes" identifier="py3yitXqvt"/>
      <point x="438.01" y="383.0" identifier="mYnmsTnOUW"/>
      <point x="433.94" y="349.0" identifier="kVhslnJtpY"/>
      <point x="426.94" y="311.07" type="curve" smooth="yes" identifier="9EpzgeWoD4"/>
      <point x="371.8" y="0.0" type="line" identifier="NwEmRTBdIX"/>
    </contour>
  </outline>
</glyph>
<glyph name="n" format="2">
  <advance width="465"/>
  <unicode hex="006E"/>
  <anchor x="234.83372093023257" y="508.0" name="top"/>
  <anchor x="226.96381395348837" y="0" name="bottom"/>
  <outline>
    <contour>
      <point x="75.58" y="0.0" type="line" identifier="DXz6gYqAYc"/>
      <point x="152.58" y="436.93" type="line" smooth="yes" identifier="WP6JmgCKLA"/>
      <point x="158.51" y="468.72" identifier="lheKcc2M3U"/>
      <point x="148.53" y="480.3" identifier="M4wos2SoVr"/>
      <point x="105.18" y="486.58" type="curve" smooth="yes" identifier="4G0yLqfGt1"/>
      <point x="90.53" y="488.58" type="line" identifier="13FmAZzS4G"/>
      <point x="94.6" y="508.0" type="line" identifier="z9LskRRQfq"/>
      <point x="200.93" y="508.0" type="line" identifier="7X1h17VidF"/>
      <point x="173.86" y="351.07" type="line" identifier="qPfmkwEbwv"/>
      <point x="174.72" y="344.07" type="line" identifier="eXUWiGsVJM"/>
      <point x="113.72" y="0.0" type="line" identifier="8u1PQLekCv"/>
    </contour>
    <contour>
      <point x="388.69" y="117.32" type="line" smooth="yes"/>
      <point x="384.34" y="92.57"/>
      <point x="379.92" y="73.05"/>
      <point x="379.92" y="58.07" type="curve" smooth="yes"/>
      <point x="379.92" y="31.14"/>
      <point x="391.06" y="22.07"/>
      <point x="415.85" y="22.07" type="curve" smooth="yes"/>
      <point x="433.11" y="22.07"/>
      <point x="451.74" y="28.77"/>
      <point x="467.18" y="38.21" type="curve"/>
      <point x="462.18" y="7.42" type="line"/>
      <point x="447.39" y="-1.58"/>
      <point x="426.76" y="-7.0"/>
      <point x="408.2" y="-7.0" type="curve" smooth="yes"/>
      <point x="366.2" y="-7.0"/>
      <point x="344.57" y="11.07"/>
      <point x="344.57" y="56.21" type="curve" smooth="yes"/>
      <point x="344.57" y="70.54"/>
      <point x="347.06" y="93.57"/>
      <point x="351.69" y="117.65" type="curve" smooth="yes"/>
      <point x="395.08" y="346.62" type="line" smooth="yes"/>
      <point x="401.15" y="380.83"/>
      <point x="404.36" y="404.32"/>
      <point x="404.36" y="419.93" type="curve" smooth="yes"/>
      <point x="404.36" y="467.3"/>
      <point x="382.22" y="485.93"/>
      <point x="345.24" y="485.93" type="curve" smooth="yes"/>
      <point x="284.77" y="485.93"/>
      <point x="227.58" y="435.41"/>
      <point x="162.02" y="304.25" type="curve"/>
      <point x="167.04" y="357.29" type="line"/>
      <point x="229.81" y="473.06"/>
      <point x="283.7" y="518.93"/>
      <point x="350.52" y="518.93" type="curve" smooth="yes"/>
      <point x="411.94" y="518.93"/>
      <point x="441.57" y="483.51"/>
      <point x="441.57" y="420.86" type="curve" smooth="yes"/>
      <point x="441.57" y="403.6"/>
      <point x="439.22" y="378.76"/>
      <point x="432.22" y="341.76" type="curve" smooth="yes"/>
    </contour>
  </outline>
</glyph>
<glyph name="o" format="2">
  <advance width="445"/>
  <unicode hex="006F"/>
  <anchor x="295.935" y="508.0" name="top"/>
  <anchor x="308.81203583061887" y="0" name="right"/>
  <anchor x="232.695" y="0" name="bottom"/>
  <outline>
    <contour>
      <point x="71.62" y="193.82" type="curve" smooth="yes"/>
      <point x="71.62" y="71.47"/>
      <point x="135.95" y="-12.0"/>
      <point x="231.7" y="-12.0" type="curve" smooth="yes"/>
      <point x="369.68" y="-12.0"/>
      <point x="457.01" y="124.7"/>
      <point x="457.01" y="312.18" type="curve" smooth="yes"/>
      <point x="457.01" y="434.53"/>
      <point x="392.68" y="518.0"/>
      <point x="296.93" y="518.0" type="curve" smooth="yes"/>
      <point x="158.95" y="518.0"/>
      <point x="71.62" y="381.3"/>
    </contour>
    <contour>
      <point x="384.43" y="132.45" type="curve" smooth="yes"/>
      <point x="355.22" y="61.61"/>
      <point x="303.24" y="18.93"/>
      <point x="232.63" y="18.93" type="curve" smooth="yes"/>
      <point x="158.74" y="18.93"/>
      <point x="110.9" y="83.4"/>
      <point x="110.9" y="187.31" type="curve" smooth="yes"/>
      <point x="110.9" y="256.21"/>
      <point x="122.62" y="320.6"/>
      <point x="144.2" y="373.55" type="curve" smooth="yes"/>
      <point x="173.41" y="444.39"/>
      <point x="225.39" y="487.07"/>
      <point x="296.0" y="487.07" type="curve" smooth="yes"/>
      <point x="369.89" y="487.07"/>
      <point x="417.73" y="422.6"/>
      <point x="417.73" y="318.69" type="curve" smooth="yes"/>
      <point x="417.73" y="249.79"/>
      <point x="406.01" y="185.4"/>
    </contour>
  </outline>
</glyph>
<glyph name="r" format="2">
  <advance width="296"/>
  <unicode hex="0072"/>
  <guideline x="323.64" y="464.7" angle="0" identifier="LjcItCLcx3"/>
  <anchor x="158.54043795620439" y="508.0" name="top"/>
  <anchor x="96.7369099756691" y="0" name="bottom"/>
  <outline>
    <contour>
      <point x="80.88" y="0.0" type="line"/>
      <point x="119.02" y="0.0" type="line"/>
      <point x="180.02" y="344.07" type="line"/>
      <point x="178.88" y="349.46" type="line"/>
      <point x="206.23" y="508.0" type="line"/>
      <point x="99.9" y="508.0" type="line"/>
      <point x="95.83" y="488.58" type="line"/>
      <point x="110.48" y="486.58" type="line" smooth="yes"/>
      <point x="153.83" y="480.3"/>
      <point x="163.81" y="468.72"/>
      <point x="157.88" y="436.93" type="curve" smooth="yes"/>
    </contour>
    <contour>
      <point x="342.12" y="513.0" type="line"/>
      <point x="336.47" y="514.93"/>
      <point x="329.19" y="517.07"/>
      <point x="316.63" y="517.07" type="curve"/>
      <point x="245.3" y="517.07"/>
      <point x="190.09" y="397.23"/>
      <point x="154.46" y="296.81" type="curve"/>
      <point x="156.02" y="267.58" type="line"/>
      <point x="207.53" y="396.9"/>
      <point x="255.16" y="471.0"/>
      <point x="307.14" y="471.0" type="curve" smooth="yes"/>
      <point x="316.91" y="471.0"/>
      <point x="325.54" y="469.65"/>
      <point x="334.19" y="467.72" type="curve"/>
    </contour>
  </outline>
</glyph>
<glyph name="s" format="2">
  <advance width="365"/>
  <unicode hex="0073"/>
  <guideline x="347.82" y="476.15" angle="0" identifier="G4tnjCIe7R"/>
  <guideline x="307.83" y="471.26" angle="0" identifier="QNSNVCREfE"/>
  <guideline x="36.269999999999996" y="49.45" angle="0" identifier="j3b4tfufd2"/>
  <guideline x="71.61" y="30.16" angle="0" identifier="7TQKfSlYZp"/>
  <anchor x="222.9577052631579" y="508.0" name="top"/>
  <anchor x="211.06311578947367" y="0" name="bottom"/>
  <outline>
    <contour>
      <point x="195.56" y="-9.14" type="curve" smooth="yes"/>
      <point x="291.03" y="-9.14"/>
      <point x="350.52" y="46.93"/>
      <point x="350.52" y="129.07" type="curve" smooth="yes"/>
      <point x="350.52" y="216.07"/>
      <point x="289.61" y="243.07"/>
      <point x="234.77" y="275.07" type="curve" smooth="yes"/>
      <point x="179.14" y="307.0"/>
      <point x="142.51" y="322.07"/>
      <point x="142.51" y="386.0" type="curve" smooth="yes"/>
      <point x="142.51" y="453.39495145631065"/>
      <point x="179.21" y="489.86"/>
      <point x="247.26" y="489.86" type="curve" smooth="yes"/>
      <point x="294.38" y="489.86"/>
      <point x="334.19681265794395" y="470.87637468411214"/>
      <point x="350.52" y="438.86" type="curve"/>
      <point x="358.1" y="452.51"/>
      <point x="349.82" y="469.37"/>
      <point x="333.24" y="469.93" type="curve"/>
      <point x="320.24" y="397.86" type="line"/>
      <point x="363.52" y="397.86" type="line"/>
      <point x="376.59" y="472.93" type="line"/>
      <point x="365.7104515128365" y="483.80954848716345"/>
      <point x="315.73" y="518.0"/>
      <point x="249.12" y="518.0" type="curve" smooth="yes"/>
      <point x="164.28" y="518.0"/>
      <point x="105.3" y="471.86"/>
      <point x="105.3" y="386.93" type="curve" smooth="yes"/>
      <point x="105.3" y="305.93"/>
      <point x="151.72" y="281.07"/>
      <point x="205.56" y="250.93" type="curve" smooth="yes"/>
      <point x="259.19" y="220.93"/>
      <point x="313.31" y="195.93"/>
      <point x="313.31" y="130.0" type="curve" smooth="yes"/>
      <point x="313.31" y="55.0"/>
      <point x="268.68" y="19.93"/>
      <point x="197.42" y="19.93" type="curve" smooth="yes"/>
      <point x="136.72" y="19.93"/>
      <point x="87.67804802062753" y="44.06878168187104"/>
      <point x="60.25" y="86.07" type="curve"/>
      <point x="55.39" y="77.0"/>
      <point x="63.67" y="49.0"/>
      <point x="75.81" y="31.07" type="curve"/>
      <point x="93.74" y="130.14" type="line"/>
      <point x="50.39" y="130.14" type="line"/>
      <point x="37.39" y="54.07" type="line"/>
      <point x="62.59934522423936" y="24.443473001868455"/>
      <point x="117.65" y="-9.14"/>
    </contour>
  </outline>
</glyph>
<glyph name="u" format="2">
  <advance width="455"/>
  <unicode hex="0075"/>
  <anchor x="219.89153846153846" y="508.0" name="top"/>
  <anchor x="350.885" y="0" name="right"/>
  <anchor x="202.03576923076923" y="0" name="bottom"/>
  <outline>
    <contour>
      <point x="147.23" y="192.35" type="curve" smooth="yes"/>
      <point x="205.23" y="508.0" type="line"/>
      <point x="97.9" y="508.0" type="line"/>
      <point x="93.83" y="488.58" type="line"/>
      <point x="107.55" y="486.58" type="line" smooth="yes"/>
      <point x="153.69" y="479.37"/>
      <point x="160.88" y="468.72"/>
      <point x="154.95" y="436.93" type="curve" smooth="yes"/>
      <point x="109.09" y="196.28" type="line" smooth="yes"/>
      <point x="103.02" y="161.93"/>
      <point x="98.02" y="128.51"/>
      <point x="98.02" y="101.58" type="curve" smooth="yes"/>
      <point x="98.02" y="37.58"/>
      <point x="125.79" y="-7.0"/>
      <point x="189.0" y="-7.0" type="curve" smooth="yes"/>
      <point x="261.33" y="-7.0"/>
      <point x="330.6730945015788" y="50.91519584352501"/>
      <point x="386.15" y="184.68" type="curve"/>
      <point x="376.29" y="207.96" type="line"/>
      <point x="321.96" y="79.31"/>
      <point x="250.96" y="25.07"/>
      <point x="192.42" y="25.07" type="curve" smooth="yes"/>
      <point x="149.93" y="25.07"/>
      <point x="136.16" y="53.79"/>
      <point x="136.16" y="100.65" type="curve" smooth="yes"/>
      <point x="136.16" y="128.72"/>
      <point x="141.16" y="161.72"/>
    </contour>
    <contour>
      <point x="408.5" y="-7.0" type="curve" smooth="yes" identifier="uQBepAWGsX"/>
      <point x="431.71" y="-7.0" identifier="Qe9FqSLNdJ"/>
      <point x="453.27" y="0.28" identifier="t6gY11t6DG"/>
      <point x="466.2" y="8.35" type="curve" identifier="GkrQfNNvz0"/>
      <point x="471.2" y="39.14" type="line" identifier="0aIdTxEEMR"/>
      <point x="454.83" y="28.77" identifier="E9jlrx3Z3X"/>
      <point x="434.34" y="22.07" identifier="rN5anVOTPp"/>
      <point x="416.15" y="22.07" type="curve" smooth="yes" identifier="AwlLoD8f4z"/>
      <point x="392.29" y="22.07" identifier="Or0juMi4q4"/>
      <point x="384.87" y="34.86" identifier="tLcwjXDSA4"/>
      <point x="384.87" y="61.65" type="curve" smooth="yes" identifier="na0pK2Af8O"/>
      <point x="384.87" y="83.58" identifier="S7oXWogOBX"/>
      <point x="389.94" y="114.86" identifier="abfs4tKLdm"/>
      <point x="393.94" y="137.07" type="curve" smooth="yes" identifier="foNp5rcqTU"/>
      <point x="458.94" y="508.0" type="line" identifier="NvjMS3yb16"/>
      <point x="421.73" y="508.0" type="line" identifier="iHWAzMu5hJ"/>
      <point x="361.8" y="171.93" type="line" identifier="atwOOf0s7e"/>
      <point x="362.73" y="174.86" type="line" identifier="OLy00ca9D4"/>
      <point x="355.66" y="137.93" identifier="kSizjqyLym"/>
      <point x="347.66" y="92.44" identifier="k36ZhCGwJY"/>
      <point x="347.66" y="61.65" type="curve" smooth="yes" identifier="wikawf9ubE"/>
      <point x="347.66" y="11.07" identifier="PCo9ZjfANX"/>
      <point x="369.29" y="-7.0" identifier="RTIgx60iH4"/>
    </contour>
  </outline>
</glyph>
<glyph name="v" format="2">
  <advance width="405"/>
  <unicode hex="0076"/>
  <outline>
    <contour>
      <point x="168.69" y="508.0" type="line"/>
      <point x="215.0" y="25.0" type="line"/>
      <point x="203.93" y="20.07" type="line"/>
      <point x="276.28" y="183.0"/>
      <point x="349.63" y="345.07"/>
      <point x="421.98" y="508.0" type="curve"/>
      <point x="460.26" y="508.0" type="line"/>
      <point x="460.26" y="502.0" type="line"/>
      <point x="387.35" y="346.16"/>
      <point x="307.07" y="178.16"/>
      <point x="221.14" y="0.0" type="curve"/>
      <point x="182.0" y="0.0" type="line"/>
      <point x="137.76" y="436.93" type="line" smooth="yes"/>
      <point x="134.69" y="465.72"/>
      <point x="123.27" y="476.58"/>
      <point x="81.64" y="485.65" type="curve" smooth="yes"/>
      <point x="72.57" y="487.65" type="line"/>
      <point x="76.64" y="508.0" type="line"/>
    </contour>
  </outline>
</glyph>
<glyph name="w" format="2">
  <advance width="583"/>
  <unicode hex="0077"/>
  <anchor x="345.8886698911729" y="508.0" name="top"/>
  <outline>
    <contour>
      <point x="365.19" y="508.0" type="line"/>
      <point x="301.49" y="346.0"/>
      <point x="237.79" y="182.07"/>
      <point x="173.16" y="20.07" type="curve"/>
      <point x="189.09" y="25.0" type="line"/>
      <point x="171.55" y="508.0" type="line"/>
      <point x="76.64" y="508.0" type="line"/>
      <point x="72.57" y="487.65" type="line"/>
      <point x="81.64" y="485.65" type="line" smooth="yes"/>
      <point x="123.27" y="476.58"/>
      <point x="136.69" y="463.86"/>
      <point x="137.76" y="436.93" type="curve" smooth="yes"/>
      <point x="155.16" y="0.0" type="line"/>
      <point x="193.37" y="0.0" type="line"/>
      <point x="257.07" y="161.93"/>
      <point x="320.77" y="323.86"/>
      <point x="383.54" y="485.79" type="curve"/>
      <point x="365.26" y="473.79" type="line"/>
      <point x="404.15" y="0.0" type="line"/>
      <point x="442.36" y="0.0" type="line"/>
      <point x="507.99" y="167.0"/>
      <point x="573.62" y="335.0"/>
      <point x="639.25" y="502.0" type="curve"/>
      <point x="639.25" y="508.0" type="line"/>
      <point x="600.04" y="508.0" type="line"/>
      <point x="541.41" y="346.0"/>
      <point x="482.78" y="183.07"/>
      <point x="424.15" y="21.07" type="curve"/>
      <point x="433.22" y="24.0" type="line"/>
      <point x="396.33" y="508.0" type="line"/>
    </contour>
  </outline>
</glyph>
<glyph name="y" format="2">
  <advance width="393"/>
  <unicode hex="0079"/>
  <anchor x="210.2003045685279" y="508.0" name="top"/>
  <anchor x="195.79680203045686" y="-211.0" name="bottom"/>
  <outline>
    <contour>
      <point x="194.6" y="-9.07" type="line"/>
      <point x="135.5" y="436.93" type="line" smooth="yes"/>
      <point x="132.36" y="463.86"/>
      <point x="123.73" y="475.65"/>
      <point x="79.31" y="485.65" type="curve" smooth="yes"/>
      <point x="70.24" y="487.65" type="line"/>
      <point x="74.31" y="508.0" type="line"/>
      <point x="164.36" y="508.0" type="line"/>
      <point x="222.67" y="34.07" type="line"/>
      <point x="210.6" y="16.93" type="line"/>
    </contour>
    <contour>
      <point x="216.74" y="38.07" type="line"/>
      <point x="279.37" y="194.07"/>
      <point x="343.0" y="352.0"/>
      <point x="405.63" y="508.0" type="curve"/>
      <point x="443.84" y="508.0" type="line"/>
      <point x="443.84" y="502.0" type="line"/>
      <point x="373.21" y="340.0"/>
      <point x="303.51" y="177.0"/>
      <point x="231.95" y="15.0" type="curve" smooth="yes"/>
      <point x="158.23" y="-154.18"/>
      <point x="101.18" y="-230.0"/>
      <point x="29.57" y="-230.0" type="curve" smooth="yes"/>
      <point x="8.66" y="-230.0"/>
      <point x="-15.34" y="-223.93"/>
      <point x="-31.62" y="-213.0" type="curve"/>
      <point x="-23.69" y="-171.86" type="line"/>
      <point x="-4.11" y="-182.51"/>
      <point x="13.309999999999999" y="-188.86"/>
      <point x="31.29" y="-188.86" type="curve" smooth="yes"/>
      <point x="89.06" y="-188.86"/>
      <point x="139.62" y="-127.35"/>
      <point x="209.6" y="31.14" type="curve"/>
    </contour>
  </outline>
</glyph>
<glyph name="asciitilde" format="2">
  <advance width="439"/>
  <unicode hex="007E"/>
  <outline>
    <contour>
      <point x="196.6" y="393.07" type="curve" smooth="yes"/>
      <point x="139.69" y="393.07"/>
      <point x="108.55" y="342.07"/>
      <point x="93.27" y="283.0" type="curve"/>
      <point x="119.41" y="273.93" type="line"/>
      <point x="131.62" y="317.93"/>
      <point x="147.76" y="363.86"/>
      <point x="193.81" y="363.86" type="curve" smooth="yes"/>
      <point x="252.07" y="363.86"/>
      <point x="263.42" y="267.0"/>
      <point x="337.75" y="267.0" type="curve" smooth="yes"/>
      <point x="390.73" y="267.0"/>
      <point x="426.8" y="333.14"/>
      <point x="441.15" y="383.0" type="curve"/>
      <point x="416.94" y="393.07" type="line"/>
      <point x="407.87" y="370.0"/>
      <point x="386.59" y="297.14"/>
      <point x="339.61" y="297.14" type="curve" smooth="yes"/>
      <point x="285.42" y="297.14"/>
      <point x="273.14" y="393.07"/>
    </contour>
  </outline>
</glyph>
<glyph name="sterling" format="2">
  <advance width="460"/>
  <unicode hex="00A3"/>
  <outline>
    <contour>
      <point x="322.27623492001845" y="689.86" type="curve" smooth="yes"/>
      <point x="378.2562349200184" y="689.86"/>
      <point x="419.1086685248293" y="660.86"/>
      <point x="434.5703285570604" y="632.86" type="curve"/>
      <point x="434.58800783932134" y="635.93"/>
      <point x="430.201762815148" y="656.93"/>
      <point x="421.66938565387306" y="672.93" type="curve"/>
      <point x="401.4667429118414" y="572.93" type="line"/>
      <point x="444.8167429118414" y="572.93" type="line"/>
      <point x="463.56944209740897" y="660.0" type="line"/>
      <point x="441.8916499280762" y="683.0"/>
      <point x="398.2145748877873" y="718.0"/>
      <point x="323.0945748877873" y="718.0" type="curve" smooth="yes"/>
      <point x="193.0645748877873" y="718.0"/>
      <point x="135.173479290915" y="616.0"/>
      <point x="131.6370815730567" y="495.0" type="curve" smooth="yes"/>
      <point x="128.97747667780789" y="404.0"/>
      <point x="148.56864535513878" y="312.07"/>
      <point x="146.37666329861503" y="237.07" type="curve" smooth="yes"/>
      <point x="143.54169983884432" y="140.07"/>
      <point x="113.08215138713139" y="36.14"/>
      <point x="-11.22243360481082" y="29.07" type="curve"/>
      <point x="-18.110773572579685" y="0.9299999999999999" type="line"/>
      <point x="133.39226427420317" y="10.0"/>
      <point x="179.1263977178583" y="121.07"/>
      <point x="182.57511615345564" y="239.14" type="curve" smooth="yes"/>
      <point x="185.2931739035451" y="332.07"/>
      <point x="169.5089673794314" y="415.0"/>
      <point x="171.81785514563637" y="493.93" type="curve" smooth="yes"/>
      <point x="175.50038500059628" y="619.86"/>
      <point x="225.66623492001844" y="689.86"/>
    </contour>
    <contour>
      <point x="47.888476024531116" y="351.07" type="line"/>
      <point x="41.07013605676225" y="322.93" type="line"/>
      <point x="343.9001360567623" y="322.93" type="line"/>
      <point x="349.7884760245311" y="351.07" type="line"/>
    </contour>
    <contour>
      <point x="289.9115471451594" y="-2.0" type="curve" smooth="yes"/>
      <point x="355.82154714515934" y="-2.0"/>
      <point x="394.7144156613346" y="46.07"/>
      <point x="424.71788841948177" y="132.07" type="curve"/>
      <point x="403.0162848307865" y="147.14" type="line"/>
      <point x="375.59120848394406" y="76.14"/>
      <point x="349.0021513871314" y="36.14"/>
      <point x="295.0221513871314" y="36.14" type="curve" smooth="yes"/>
      <point x="247.04215138713138" y="36.14"/>
      <point x="206.18971778232057" y="65.14"/>
      <point x="153.6586055485256" y="144.07" type="curve"/>
      <point x="135.85794486301768" y="119.0" type="line"/>
      <point x="197.47060424197204" y="38.0"/>
      <point x="225.72154714515935" y="-2.0"/>
    </contour>
  </outline>
</glyph>
<glyph name="logicalnot" format="2">
  <advance width="560"/>
  <unicode hex="00AC"/>
  <outline>
    <contour>
      <point x="460.16" y="341.0" type="line"/>
      <point x="431.16" y="176.93" type="line"/>
      <point x="463.44" y="176.93" type="line"/>
      <point x="496.37" y="361.0" type="line"/>
      <point x="187.47" y="361.0" type="line"/>
      <point x="181.47" y="328.93" type="line"/>
      <point x="477.3" y="328.93" type="line"/>
    </contour>
  </outline>
</glyph>
<glyph name="macron" format="2">
  <advance width="411"/>
  <unicode hex="00AF"/>
  <anchor x="218.87310082308653" y="526.0" name="_top"/>
  <outline>
    <contour>
      <point x="130.81700849259812" y="689.0" type="line"/>
      <point x="126.07" y="660.86" type="line"/>
      <point x="335.15" y="660.86" type="line"/>
      <point x="339.8970084925981" y="689.0" type="line"/>
    </contour>
  </outline>
</glyph>
<glyph name="acute" format="2">
  <advance width="411"/>
  <unicode hex="00B4"/>
  <anchor x="184.97232725050685" y="527.0" name="_top"/>
  <outline>
    <contour>
      <point x="237.24" y="711.93" type="curve" smooth="yes"/>
      <point x="175.8335921779868" y="590.0" type="line"/>
      <point x="173.45364862152266" y="576.93" type="line"/>
      <point x="186.45364862152266" y="576.93" type="line"/>
      <point x="273.9224235006559" y="681.93" type="line" smooth="yes"/>
      <point x="286.600046339381" y="697.93"/>
      <point x="301.30689560552634" y="714.93"/>
      <point x="301.8037448716717" y="731.93" type="curve" smooth="yes"/>
      <point x="302.1544620007155" y="744.0"/>
      <point x="293.30672627491873" y="754.0"/>
      <point x="279.23672627491874" y="754.0" type="curve" smooth="yes"/>
      <point x="262.0267262749187" y="754.0"/>
      <point x="250.52" y="738.93"/>
    </contour>
  </outline>
</glyph>
<glyph name="paragraph" format="2">
  <advance width="461"/>
  <unicode hex="00B6"/>
  <outline>
    <contour>
      <point x="553.55" y="710.0" type="line"/>
      <point x="549.41" y="683.72" type="line"/>
      <point x="539.34" y="683.72" type="line" smooth="yes"/>
      <point x="498.71" y="683.72"/>
      <point x="468.22" y="675.79"/>
      <point x="463.22" y="646.79" type="curve" smooth="yes"/>
      <point x="350.15" y="0.0" type="line"/>
      <point x="318.87" y="0.0" type="line"/>
      <point x="443.94" y="710.0" type="line"/>
    </contour>
    <contour>
      <point x="480.85" y="710.0" type="line"/>
      <point x="474.85" y="680.93" type="line"/>
      <point x="324.12" y="680.93" type="line"/>
      <point x="330.12" y="710.0" type="line"/>
    </contour>
    <contour>
      <point x="221.12" y="0.0" type="line"/>
      <point x="188.91" y="0.0" type="line"/>
      <point x="250.98" y="349.42" type="line"/>
      <point x="247.98" y="349.42" type="line" smooth="yes"/>
      <point x="173.93" y="349.42"/>
      <point x="112.23" y="398.56"/>
      <point x="112.23" y="498.12" type="curve" smooth="yes"/>
      <point x="112.23" y="609.91"/>
      <point x="180.58" y="710.0"/>
      <point x="318.05" y="710.0" type="curve" smooth="yes"/>
      <point x="346.19" y="710.0" type="line"/>
    </contour>
  </outline>
</glyph>
<glyph name="cedilla" format="2">
  <advance width="492"/>
  <unicode hex="00B8"/>
  <anchor x="251.49369853229075" y="34.0" name="_bottom"/>
  <outline>
    <contour>
      <point x="207.8825631288053" y="-236.0" type="curve" smooth="yes"/>
      <point x="256.5825631288053" y="-236.0"/>
      <point x="300.39" y="-198.79"/>
      <point x="299.95984730631505" y="-142.0" type="curve" smooth="yes"/>
      <point x="300.39" y="-92.0"/>
      <point x="264.66796149994036" y="-62.0"/>
      <point x="211.89796149994038" y="-62.0" type="curve"/>
      <point x="214.5003386612153" y="-77.93" type="line"/>
      <point x="263.66690570968126" y="4.0" type="line"/>
      <point x="230.3869057096813" y="4.0" type="line"/>
      <point x="187.99807438701214" y="-88.0" type="line"/>
      <point x="201.13807438701213" y="-88.0" type="line" smooth="yes"/>
      <point x="244.90807438701214" y="-88.0"/>
      <point x="264.11" y="-109.0"/>
      <point x="263.6798473063151" y="-142.0" type="curve" smooth="yes"/>
      <point x="264.11" y="-182.79"/>
      <point x="241.9" y="-208.93"/>
      <point x="208.27" y="-208.93" type="curve" smooth="yes"/>
      <point x="175.36" y="-208.93"/>
      <point x="155.08" y="-188.16"/>
      <point x="143.8" y="-156.79" type="curve"/>
      <point x="117.8" y="-175.07" type="line"/>
      <point x="134.15" y="-210.0"/>
      <point x="160.11256312880528" y="-236.0"/>
    </contour>
  </outline>
</glyph>
<glyph name="ordmasculine" format="2">
  <advance width="392"/>
  <unicode hex="00BA"/>
  <outline>
    <contour>
      <point x="274.76" y="319.07" type="curve" smooth="yes"/>
      <point x="374.88" y="319.07"/>
      <point x="445.72" y="413.21"/>
      <point x="445.72" y="550.65" type="curve" smooth="yes"/>
      <point x="445.72" y="652.93"/>
      <point x="391.6" y="720.93"/>
      <point x="312.48" y="720.93" type="curve" smooth="yes"/>
      <point x="212.36" y="720.93"/>
      <point x="141.52" y="626.79"/>
      <point x="141.52" y="489.35" type="curve" smooth="yes"/>
      <point x="141.52" y="387.07"/>
      <point x="195.64" y="319.07"/>
    </contour>
    <contour>
      <point x="312.48" y="694.93" type="curve"/>
      <point x="372.53" y="694.93"/>
      <point x="409.44" y="642.86"/>
      <point x="409.44" y="551.58" type="curve" smooth="yes"/>
      <point x="409.44" y="514.07"/>
      <point x="404.44" y="480.42"/>
      <point x="395.37" y="451.49" type="curve" smooth="yes"/>
      <point x="374.16" y="384.7"/>
      <point x="329.67" y="345.07"/>
      <point x="274.76" y="345.07" type="curve" smooth="yes"/>
      <point x="214.71" y="345.07"/>
      <point x="177.8" y="397.14"/>
      <point x="177.8" y="490.28" type="curve" smooth="yes"/>
      <point x="177.8" y="527.79"/>
      <point x="182.8" y="561.44"/>
      <point x="191.87" y="589.44" type="curve" smooth="yes"/>
      <point x="213.08" y="657.16"/>
      <point x="257.57" y="694.0"/>
    </contour>
  </outline>
</glyph>
<glyph name="Eth" format="2">
  <advance width="567"/>
  <unicode hex="00D0"/>
  <outline>
    <contour>
      <point x="95.36" y="340.93" type="line"/>
      <point x="386.78" y="340.93" type="line"/>
      <point x="391.85" y="369.07" type="line"/>
      <point x="100.43" y="369.07" type="line"/>
    </contour>
    <component base="D" yxScale="0.029226427420316562"/>
  </outline>
</glyph>
<glyph name="germandbls" format="2">
  <advance width="437"/>
  <unicode hex="00DF"/>
  <outline>
    <contour>
      <point x="93.06" y="508.0" type="line"/>
      <point x="88.13" y="478.93" type="line"/>
      <point x="194.81" y="478.93" type="line"/>
      <point x="199.81" y="508.0" type="line"/>
    </contour>
    <contour>
      <point x="73.81" y="-223.0" type="line"/>
      <point x="105.95" y="-223.0" type="line"/>
      <point x="228.25" y="621.76" type="line" smooth="yes"/>
      <point x="238.46" y="690.58"/>
      <point x="277.16" y="722.93"/>
      <point x="334.21" y="722.93" type="curve" smooth="yes"/>
      <point x="398.33" y="722.93"/>
      <point x="422.24" y="672.86"/>
      <point x="422.24" y="615.58" type="curve" smooth="yes"/>
      <point x="422.24" y="523.51"/>
      <point x="359.84" y="438.07"/>
      <point x="250.44" y="435.07" type="curve"/>
      <point x="245.44" y="407.93" type="line"/>
      <point x="347.84" y="395.93"/>
      <point x="399.8" y="309.21"/>
      <point x="399.8" y="206.79" type="curve" smooth="yes"/>
      <point x="399.8" y="96.81"/>
      <point x="349.68" y="18.07"/>
      <point x="273.84" y="18.07" type="curve" smooth="yes"/>
      <point x="232.21" y="18.07"/>
      <point x="203.6" y="32.84"/>
      <point x="186.51" y="42.28" type="curve"/>
      <point x="179.51" y="13.0" type="line"/>
      <point x="194.72" y="4.0"/>
      <point x="228.28" y="-11.0"/>
      <point x="271.98" y="-11.0" type="curve" smooth="yes"/>
      <point x="379.96" y="-11.0"/>
      <point x="439.08" y="89.16"/>
      <point x="439.08" y="208.65" type="curve" smooth="yes"/>
      <point x="439.08" y="318.0"/>
      <point x="383.84" y="403.07"/>
      <point x="274.72" y="424.0" type="curve"/>
      <point x="290.93" y="413.0" type="line"/>
      <point x="295.93" y="428.0" type="line"/>
      <point x="263.86" y="418.0" type="line"/>
      <point x="372.42" y="422.0"/>
      <point x="458.38" y="503.51"/>
      <point x="458.38" y="616.51" type="curve" smooth="yes"/>
      <point x="458.38" y="686.86"/>
      <point x="420.61" y="752.0"/>
      <point x="335.14" y="752.0" type="curve" smooth="yes"/>
      <point x="259.95" y="752.0"/>
      <point x="199.25" y="706.65"/>
      <point x="188.97" y="628.34" type="curve" smooth="yes"/>
    </contour>
  </outline>
</glyph>
<glyph name="ae" format="2">
  <advance width="609"/>
  <unicode hex="00E6"/>
  <guideline x="132.99" y="471.26" angle="0" identifier="OSDHBaCc6v"/>
  <guideline x="93.93" y="474.29" angle="0" identifier="No5nlzbOKR"/>
  <anchor x="343.96007125890736" y="508.0" name="top"/>
  <outline>
    <contour>
      <point x="460.35" y="-12.0" type="curve" smooth="yes"/>
      <point x="530.89" y="-12.0"/>
      <point x="583.66" y="36.21"/>
      <point x="616.87" y="101.21" type="curve"/>
      <point x="594.66" y="113.63" type="line"/>
      <point x="560.31" y="55.07"/>
      <point x="524.47" y="18.93"/>
      <point x="461.28" y="18.93" type="curve" smooth="yes"/>
      <point x="388.88" y="18.93"/>
      <point x="343.48" y="76.35"/>
      <point x="343.48" y="181.89" type="curve" smooth="yes"/>
      <point x="343.48" y="353.84"/>
      <point x="424.18" y="486.14"/>
      <point x="529.07" y="486.14" type="curve" smooth="yes"/>
      <point x="574.05" y="486.14"/>
      <point x="600.75" y="460.07"/>
      <point x="598.89" y="406.93" type="curve" smooth="yes"/>
      <point x="596.1" y="310.0"/>
      <point x="525.63" y="268.0"/>
      <point x="329.2" y="269.0" type="curve"/>
      <point x="324.99" y="242.0" type="line"/>
      <point x="534.42" y="239.0"/>
      <point x="633.24" y="287.0"/>
      <point x="636.03" y="406.93" type="curve" smooth="yes"/>
      <point x="638.82" y="476.0"/>
      <point x="597.19" y="518.0"/>
      <point x="528.14" y="518.0" type="curve" smooth="yes"/>
      <point x="446.88" y="518.0"/>
      <point x="374.76" y="454.93"/>
      <point x="338.48" y="338.0" type="curve"/>
      <point x="321.27" y="293.14"/>
      <point x="303.34" y="267.07"/>
      <point x="303.34" y="184.68" type="curve" smooth="yes"/>
      <point x="303.34" y="57.49"/>
      <point x="366.95" y="-12.0"/>
    </contour>
    <contour>
      <point x="311.2" y="256.07" type="line"/>
      <point x="355.62" y="347.93" type="line"/>
      <point x="359.62" y="386.0" type="line"/>
      <point x="359.62" y="464.07"/>
      <point x="321.06" y="518.0"/>
      <point x="230.59" y="518.0" type="curve" smooth="yes"/>
      <point x="174.75" y="518.0"/>
      <point x="126.98" y="492.0"/>
      <point x="103.56" y="471.0" type="curve"/>
      <point x="89.56" y="388.93" type="line"/>
      <point x="132.84" y="388.93" type="line"/>
      <point x="145.98" y="470.07" type="line"/>
      <point x="126.7" y="471.0"/>
      <point x="114.63" y="448.93"/>
      <point x="114.63" y="434.86" type="curve"/>
      <point x="138.05" y="465.86"/>
      <point x="175.82" y="488.93"/>
      <point x="229.66" y="488.93" type="curve" smooth="yes"/>
      <point x="294.78" y="488.93"/>
      <point x="327.48" y="451.93"/>
      <point x="327.48" y="382.0" type="curve" smooth="yes"/>
      <point x="327.48" y="369.0"/>
      <point x="326.41" y="357.0"/>
      <point x="323.41" y="340.0" type="curve"/>
    </contour>
    <contour>
      <point x="165.61" y="-12.0" type="curve" smooth="yes"/>
      <point x="232.66" y="-12.0"/>
      <point x="292.71" y="41.0"/>
      <point x="331.34" y="136.0" type="curve"/>
      <point x="320.34" y="176.0" type="line"/>
      <point x="282.71" y="73.07"/>
      <point x="228.66" y="17.07"/>
      <point x="168.47" y="17.07" type="curve" smooth="yes"/>
      <point x="114.42" y="17.07"/>
      <point x="79.79" y="55.07"/>
      <point x="79.79" y="120.0" type="curve" smooth="yes"/>
      <point x="79.79" y="214.0"/>
      <point x="141.77" y="254.93"/>
      <point x="334.62" y="241.93" type="curve"/>
      <point x="340.69" y="269.0" type="line"/>
      <point x="131.84" y="281.0"/>
      <point x="40.58" y="241.0"/>
      <point x="40.58" y="120.0" type="curve" smooth="yes"/>
      <point x="40.58" y="40.0"/>
      <point x="92.35" y="-12.0"/>
    </contour>
  </outline>
</glyph>
<glyph name="eth" format="2">
  <advance width="453"/>
  <unicode hex="00F0"/>
  <outline>
    <contour>
      <point x="235.91" y="-12.0" type="curve" smooth="yes"/>
      <point x="367.03" y="-12.0"/>
      <point x="460.5" y="149.58"/>
      <point x="460.5" y="361.93" type="curve" smooth="yes"/>
      <point x="460.5" y="530.79"/>
      <point x="410.89" y="675.93"/>
      <point x="235.81" y="761.0" type="curve"/>
      <point x="220.6" y="737.14" type="line"/>
      <point x="373.61" y="660.93"/>
      <point x="421.22" y="534.93"/>
      <point x="421.22" y="371.0" type="curve" smooth="yes"/>
      <point x="421.22" y="333.02"/>
      <point x="414.29" y="269.14"/>
      <point x="399.64" y="201.96" type="curve" smooth="yes"/>
      <point x="377.94" y="101.07"/>
      <point x="317.1" y="18.93"/>
      <point x="238.7" y="18.93" type="curve" smooth="yes"/>
      <point x="167.51" y="18.93"/>
      <point x="107.18" y="69.63"/>
      <point x="111.83" y="217.07" type="curve" smooth="yes"/>
      <point x="113.69" y="275.0"/>
      <point x="124.9" y="329.93"/>
      <point x="146.11" y="373.93" type="curve" smooth="yes"/>
      <point x="176.87953028479484" y="441.5379509693751"/>
      <point x="231.37" y="486.14"/>
      <point x="295.56" y="486.14" type="curve" smooth="yes"/>
      <point x="359.68" y="486.14"/>
      <point x="405.52398144189215" y="449.76142767038175"/>
      <point x="430.64" y="327.07" type="curve"/>
      <point x="432.36" y="375.07" type="line"/>
      <point x="422.01" y="459.0"/>
      <point x="371.89" y="518.0"/>
      <point x="295.56" y="518.0" type="curve" smooth="yes"/>
      <point x="170.46" y="518.0"/>
      <point x="71.62" y="381.86"/>
      <point x="71.62" y="192.89" type="curve" smooth="yes"/>
      <point x="71.62" y="67.63"/>
      <point x="140.3" y="-12.0"/>
    </contour>
    <contour>
      <point x="161.18" y="590.07" type="line"/>
      <point x="169.18" y="565.93" type="line"/>
      <point x="482.15" y="697.93" type="line"/>
      <point x="474.15" y="722.07" type="line"/>
    </contour>
  </outline>
</glyph>
<glyph name="divide" format="2">
  <advance width="560"/>
  <unicode hex="00F7"/>
  <outline>
    <contour>
      <point x="399.85" y="509.0" type="curve" smooth="yes"/>
      <point x="400.78" y="535.0"/>
      <point x="386.57" y="550.07"/>
      <point x="364.36" y="550.07" type="curve" smooth="yes"/>
      <point x="343.08" y="550.07"/>
      <point x="327.94" y="535.0"/>
      <point x="327.01" y="509.0" type="curve" smooth="yes"/>
      <point x="326.08" y="483.93"/>
      <point x="341.22" y="467.93"/>
      <point x="362.5" y="467.93" type="curve" smooth="yes"/>
      <point x="384.71" y="467.93"/>
      <point x="398.92" y="483.93"/>
    </contour>
    <contour>
      <point x="341.85" y="173.0" type="curve" smooth="yes"/>
      <point x="342.78" y="198.07"/>
      <point x="329.5" y="214.07"/>
      <point x="308.22" y="214.07" type="curve" smooth="yes"/>
      <point x="286.01" y="214.07"/>
      <point x="269.94" y="198.07"/>
      <point x="269.01" y="173.0" type="curve" smooth="yes"/>
      <point x="269.01" y="147.0"/>
      <point x="283.22" y="131.93"/>
      <point x="305.43" y="131.93" type="curve" smooth="yes"/>
      <point x="326.71" y="131.93"/>
      <point x="341.85" y="147.0"/>
    </contour>
    <component base="minus" yxScale="0.029226427420316562" xOffset="-10.23"/>
  </outline>
</glyph>
<glyph name="dcroat" format="2">
  <advance width="468"/>
  <unicode hex="0111"/>
  <outline>
    <contour>
      <point x="192.65" y="-9.14" type="curve" smooth="yes"/>
      <point x="266.54" y="-9.14"/>
      <point x="324.66" y="47.96"/>
      <point x="380.5" y="178.31" type="curve"/>
      <point x="386.52" y="241.93" type="line"/>
      <point x="326.03" y="92.54"/>
      <point x="264.33" y="22.72"/>
      <point x="195.58" y="22.72" type="curve" smooth="yes"/>
      <point x="138.11" y="22.72"/>
      <point x="106.25" y="72.61"/>
      <point x="106.25" y="161.75" type="curve" smooth="yes"/>
      <point x="106.25" y="330.98"/>
      <point x="204.06" y="488.0"/>
      <point x="312.72" y="488.0" type="curve" smooth="yes"/>
      <point x="370.84" y="488.0"/>
      <point x="406.52" y="439.86"/>
      <point x="415.66" y="355.44" type="curve"/>
      <point x="433.87" y="388.37" type="line"/>
      <point x="424.52" y="469.93"/>
      <point x="380.77" y="518.0"/>
      <point x="314.58" y="518.0" type="curve" smooth="yes"/>
      <point x="182.27" y="518.0"/>
      <point x="66.97" y="351.7"/>
      <point x="66.97" y="163.61" type="curve" smooth="yes"/>
      <point x="66.97" y="54.54"/>
      <point x="111.9" y="-9.14"/>
    </contour>
    <contour>
      <point x="413.29" y="-7.0" type="curve" smooth="yes"/>
      <point x="436.5" y="-7.0"/>
      <point x="458.06" y="0.28"/>
      <point x="470.99" y="8.35" type="curve"/>
      <point x="475.99" y="39.14" type="line"/>
      <point x="459.62" y="28.77"/>
      <point x="439.13" y="22.07"/>
      <point x="420.94" y="22.07" type="curve" smooth="yes"/>
      <point x="397.08" y="22.07"/>
      <point x="389.66" y="34.86"/>
      <point x="389.66" y="61.65" type="curve" smooth="yes"/>
      <point x="389.66" y="90.09"/>
      <point x="394.73" y="122.3"/>
      <point x="404.31" y="178.92" type="curve" smooth="yes"/>
      <point x="502.8" y="735.0" type="line"/>
      <point x="464.59" y="735.0" type="line"/>
      <point x="365.73" y="172.28" type="line"/>
      <point x="367.52" y="174.86" type="line"/>
      <point x="359.52" y="137.93"/>
      <point x="352.45" y="93.37"/>
      <point x="352.45" y="60.72" type="curve" smooth="yes"/>
      <point x="352.45" y="11.07"/>
      <point x="373.15" y="-7.0"/>
    </contour>
    <contour>
      <point x="281.44" y="632.0" type="line"/>
      <point x="276.37" y="602.93" type="line"/>
      <point x="563.71" y="602.93" type="line"/>
      <point x="569.71" y="632.0" type="line"/>
    </contour>
  </outline>
</glyph>
<glyph name="itilde" format="2">
  <advance width="222"/>
  <unicode hex="0129"/>
  <outline>
    <contour>
      <point x="197.86193214575565" y="617.93" type="curve" smooth="yes"/>
      <point x="239.49193214575564" y="617.93"/>
      <point x="258.68408353288703" y="653.93"/>
      <point x="278.875348460367" y="717.0" type="curve"/>
      <point x="254.98683916199045" y="728.0" type="line"/>
      <point x="240.27474421839494" y="679.0"/>
      <point x="228.21717782320576" y="650.07"/>
      <point x="203.79717782320577" y="650.07" type="curve" smooth="yes"/>
      <point x="167.09717782320575" y="650.07"/>
      <point x="163.34761273457013" y="727.0"/>
      <point x="111.57761273457014" y="727.0" type="curve" smooth="yes"/>
      <point x="75.01761273457014" y="727.0"/>
      <point x="49.820046339380966" y="698.0"/>
      <point x="32.622649274799436" y="629.93" type="curve"/>
      <point x="55.481932145755636" y="617.93" type="line"/>
      <point x="68.18247994419177" y="668.93"/>
      <point x="83.12314062969969" y="693.93"/>
      <point x="104.54314062969969" y="693.93" type="curve" smooth="yes"/>
      <point x="138.1731406296997" y="693.93"/>
      <point x="141.02193214575564" y="617.93"/>
    </contour>
    <component base="dotlessi" yxScale="0.029226427420316562"/>
  </outline>
</glyph>
<glyph name="imacron" format="2">
  <advance width="222"/>
  <unicode hex="012B"/>
  <outline>
    <contour>
      <point x="68.90700849259811" y="689.0" type="line"/>
      <point x="62.088668524829245" y="660.86" type="line"/>
      <point x="250.88866852482926" y="660.86" type="line"/>
      <point x="257.7070084925981" y="689.0" type="line"/>
    </contour>
    <component base="dotlessi" yxScale="0.029226427420316562"/>
  </outline>
</glyph>
<glyph name="lslash" format="2">
  <advance width="202"/>
  <unicode hex="0142"/>
  <outline>
    <contour>
      <point x="44.83" y="238.37" type="line"/>
      <point x="282.33" y="469.77" type="line"/>
      <point x="292.19" y="518.49" type="line"/>
      <point x="54.69" y="287.09" type="line"/>
    </contour>
    <component base="l" yxScale="0.029226427420316562" xOffset="-21.62"/>
  </outline>
</glyph>
<glyph name="Eng" format="2">
  <advance width="610"/>
  <unicode hex="014A"/>
  <guideline x="515.22" y="288.115" angle="0" identifier="VDNzMpguhT"/>
  <guideline x="427.8" y="-46.46" angle="0" identifier="eh7blq2bgs"/>
  <outline>
    <contour>
      <point x="479.25" y="-64.13" type="curve" smooth="yes"/>
      <point x="459.17" y="-152.48"/>
      <point x="409.15" y="-211.09"/>
      <point x="328.21" y="-210.11" type="curve" smooth="yes"/>
      <point x="284.5" y="-210.11"/>
      <point x="256.95" y="-197.64"/>
      <point x="238.35" y="-184.62" type="curve"/>
      <point x="240.31" y="-185.6"/>
      <point x="247.48" y="-157.82"/>
      <point x="251.4" y="-157.82" type="curve"/>
      <point x="277.32" y="-171.77"/>
      <point x="306.93" y="-180.71"/>
      <point x="348.25" y="-173.43" type="curve" smooth="yes"/>
      <point x="408.7" y="-173.43"/>
      <point x="445.6" y="-132.8"/>
      <point x="461.41" y="-45.38" type="curve" smooth="yes"/>
      <point x="473.06" y="13.9" type="line"/>
      <point x="453.85" y="33.330000000000005" type="line"/>
      <point x="249.37" y="699.49" type="line"/>
      <point x="253.34" y="662.52" type="line"/>
      <point x="253.27" y="662.03"/>
      <point x="145.96" y="35.58"/>
      <point x="148.97" y="35.58" type="curve" smooth="yes"/>
      <point x="148.04" y="29.07"/>
      <point x="182.5" y="26.28"/>
      <point x="207.61" y="26.28" type="curve" smooth="yes"/>
      <point x="218.35" y="24.18" type="line"/>
      <point x="197.04" y="0.0" type="line"/>
      <point x="25.41" y="2.1" type="line"/>
      <point x="29.9" y="26.28" type="line"/>
      <point x="33.33" y="26.28"/>
      <point x="46.22" y="27.12"/>
      <point x="46.57" y="29.15" type="curve" smooth="yes"/>
      <point x="82.84" y="29.15"/>
      <point x="117.81" y="76.7"/>
      <point x="122.46000000000001" y="103.67" type="curve" smooth="yes"/>
      <point x="122.81" y="105.7"/>
      <point x="216.15" y="649.31"/>
      <point x="212.72" y="649.31" type="curve" smooth="yes"/>
      <point x="217.37" y="676.28"/>
      <point x="199.86" y="683.72"/>
      <point x="153.36" y="683.72" type="curve" smooth="yes"/>
      <point x="145.41" y="685.82" type="line"/>
      <point x="160.84" y="710.0" type="line"/>
      <point x="304.5" y="664.5699999999999" type="line"/>
      <point x="494.1" y="43.74" type="line"/>
      <point x="480.62" y="68.87" type="line"/>
      <point x="480.69" y="69.36000000000001"/>
      <point x="584.28" y="674.42"/>
      <point x="581.27" y="674.42" type="curve" smooth="yes"/>
      <point x="582.2" y="680.93"/>
      <point x="554.25" y="683.72"/>
      <point x="522.63" y="683.72" type="curve" smooth="yes"/>
      <point x="511.89" y="685.82" type="line"/>
      <point x="533.2" y="710.0" type="line"/>
      <point x="704.83" y="707.9" type="line"/>
      <point x="700.27" y="683.72" type="line"/>
      <point x="696.84" y="683.72"/>
      <point x="684.88" y="682.88"/>
      <point x="684.53" y="680.85" type="curve" smooth="yes"/>
      <point x="647.33" y="680.85"/>
      <point x="611.03" y="626.16"/>
      <point x="606.38" y="599.19" type="curve" smooth="yes"/>
      <point x="605.05" y="591.7"/>
      <point x="486.53" y="-64.13"/>
    </contour>
  </outline>
</glyph>
<glyph name="OE" format="2">
  <advance width="762"/>
  <unicode hex="0152"/>
  <outline>
    <contour>
      <point x="471.6" y="377.07" type="curve"/>
      <point x="466.6" y="350.93" type="line"/>
      <point x="540.72" y="349.93"/>
      <point x="610.12" y="347.93"/>
      <point x="680.52" y="346.93" type="curve"/>
      <point x="686.59" y="381.07" type="line"/>
      <point x="614.33" y="380.07"/>
      <point x="544.79" y="378.07"/>
    </contour>
    <contour>
      <point x="747.64" y="187.07" type="line"/>
      <point x="722.5" y="187.07" type="line"/>
      <point x="695.29" y="78.58" type="line" smooth="yes"/>
      <point x="685.36" y="39.79"/>
      <point x="661.38" y="29.07"/>
      <point x="584.68" y="29.07" type="curve" smooth="yes"/>
      <point x="428.74" y="29.07" type="line"/>
      <point x="544.6" y="680.93" type="line"/>
      <point x="668.47" y="680.93" type="line" smooth="yes"/>
      <point x="748.89" y="680.93"/>
      <point x="767.15" y="671.14"/>
      <point x="763.22" y="627.7" type="curve" smooth="yes"/>
      <point x="756.22" y="547.93" type="line"/>
      <point x="780.36" y="547.93" type="line"/>
      <point x="809.36" y="710.0" type="line"/>
      <point x="433.2" y="710.0" type="line" smooth="yes"/>
      <point x="182.88" y="710.0"/>
      <point x="86.85" y="507.49"/>
      <point x="81.27" y="297.91" type="curve" smooth="yes"/>
      <point x="75.69" y="123.28"/>
      <point x="156.28" y="0.0"/>
      <point x="334.44" y="0.0" type="curve" smooth="yes"/>
      <point x="714.57" y="0.0" type="line"/>
    </contour>
    <contour>
      <point x="337.37" y="29.07" type="line" smooth="yes"/>
      <point x="182.42" y="29.07"/>
      <point x="116.83" y="133.35"/>
      <point x="122.41" y="297.91" type="curve" smooth="yes"/>
      <point x="127.99" y="488.56"/>
      <point x="203.95" y="680.93"/>
      <point x="428.41" y="680.93" type="curve" smooth="yes"/>
      <point x="506.53" y="680.93" type="line"/>
      <point x="391.6" y="29.07" type="line"/>
    </contour>
  </outline>
</glyph>
<glyph name="oe" format="2">
  <advance width="714"/>
  <unicode hex="0153"/>
  <outline>
    <contour>
      <point x="512.9" y="3.330000000000002" type="curve" smooth="yes"/>
      <point x="579.86" y="14.390000000000004"/>
      <point x="633.59" y="69.5"/>
      <point x="672.89" y="130.88" type="curve"/>
      <point x="677.51" y="130.88"/>
      <point x="660.57" y="139.59"/>
      <point x="660.57" y="135.74" type="curve"/>
      <point x="628.02" y="73.45"/>
      <point x="590.03" y="34.75"/>
      <point x="515.29" y="34.54" type="curve" smooth="yes"/>
      <point x="451.12" y="34.54"/>
      <point x="407.85" y="83.08"/>
      <point x="407.85" y="185.38" type="curve" smooth="yes"/>
      <point x="425.35" y="340.55"/>
      <point x="507.99" y="470.81"/>
      <point x="602.85" y="479.84" type="curve" smooth="yes"/>
      <point x="649.35" y="484.74"/>
      <point x="668.17" y="456.62"/>
      <point x="661.73" y="407.33" type="curve" smooth="yes"/>
      <point x="650.95" y="306.89"/>
      <point x="571.76" y="251.91"/>
      <point x="394.13" y="238.62" type="curve"/>
      <point x="394.13" y="228.89"/>
      <point x="396.15" y="200.04"/>
      <point x="403.85" y="200.04" type="curve"/>
      <point x="595.29" y="198.18"/>
      <point x="703.0" y="256.62"/>
      <point x="705.52" y="378.35" type="curve" smooth="yes"/>
      <point x="705.52" y="442.52"/>
      <point x="670.29" y="490.28"/>
      <point x="601.47" y="490.28" type="curve" smooth="yes"/>
      <point x="459.17" y="485.65999999999997"/>
      <point x="391.71" y="299.79"/>
      <point x="386.11" y="174.24" type="curve" smooth="yes"/>
      <point x="379.67" y="54.269999999999996"/>
      <point x="432.92" y="-5.489999999999999"/>
    </contour>
    <contour>
      <point x="397.03" y="291.18" type="curve" smooth="yes"/>
      <point x="407.18" y="404.64"/>
      <point x="361.01127516778524" y="491.47"/>
      <point x="280.12" y="501.9" type="curve" smooth="yes"/>
      <point x="157.36" y="510.44"/>
      <point x="71.04" y="391.52"/>
      <point x="62.150000000000006" y="214.82" type="curve" smooth="yes"/>
      <point x="51.72" y="101.36"/>
      <point x="100.45" y="14.880000000000003"/>
      <point x="184.15" y="4.100000000000001" type="curve" smooth="yes"/>
      <point x="304.1072602739726" y="-4.789999999999999"/>
      <point x="388.49" y="113.55000000000003"/>
    </contour>
    <contour>
      <point x="94.99" y="173.31" type="curve" smooth="yes"/>
      <point x="88.06" y="238.41"/>
      <point x="96.02" y="306.6"/>
      <point x="115.55" y="364.94" type="curve" smooth="yes"/>
      <point x="142.52" y="432.91"/>
      <point x="189.58" y="474.05"/>
      <point x="253.01" y="476.78" type="curve" smooth="yes"/>
      <point x="319.42" y="482.52"/>
      <point x="363.96" y="428.48"/>
      <point x="370.4" y="332.69" type="curve" smooth="yes"/>
      <point x="376.7" y="267.59"/>
      <point x="368.74" y="199.68"/>
      <point x="349.21" y="141.06" type="curve" smooth="yes"/>
      <point x="322.24" y="73.09"/>
      <point x="275.18" y="31.67"/>
      <point x="211.75" y="28.94" type="curve" smooth="yes"/>
      <point x="145.34" y="23.2"/>
      <point x="100.8" y="77.52"/>
    </contour>
  </outline>
</glyph>
<glyph name="Schwa" format="2">
  <advance width="554"/>
  <unicode hex="018F"/>
  <outline>
    <contour>
      <point x="284.75" y="-10.07" type="curve"/>
      <point x="472.2" y="-10.07"/>
      <point x="585.48" y="213.72"/>
      <point x="585.48" y="442.97" type="curve" smooth="yes"/>
      <point x="585.48" y="626.09"/>
      <point x="505.68" y="720.0"/>
      <point x="371.3" y="720.0" type="curve" smooth="yes"/>
      <point x="256.25" y="720.0"/>
      <point x="181.92" y="668.44"/>
      <point x="121.92" y="561.35" type="curve"/>
      <point x="147.5" y="543.72" type="line"/>
      <point x="204.01" y="643.67"/>
      <point x="268.83" y="690.0"/>
      <point x="370.37" y="690.0" type="curve" smooth="yes"/>
      <point x="477.24" y="690.0"/>
      <point x="545.27" y="612.37"/>
      <point x="545.27" y="442.97" type="curve" smooth="yes"/>
      <point x="545.27" y="209.98"/>
      <point x="434.53" y="19.93"/>
      <point x="286.61" y="19.93" type="curve" smooth="yes"/>
      <point x="175.02" y="19.93"/>
      <point x="123.13" y="89.42"/>
      <point x="123.13" y="235.47" type="curve" smooth="yes"/>
      <point x="123.13" y="274.91"/>
      <point x="127.06" y="314.49"/>
      <point x="133.99" y="356.93" type="curve"/>
      <point x="112.78" y="337.93" type="line"/>
      <point x="555.55" y="337.93" type="line"/>
      <point x="560.48" y="367.0" type="line"/>
      <point x="97.78" y="367.0" type="line"/>
      <point x="87.99" y="316.7"/>
      <point x="84.99" y="274.98"/>
      <point x="84.99" y="236.4" type="curve" smooth="yes"/>
      <point x="84.99" y="70.49"/>
      <point x="159.16" y="-10.07"/>
    </contour>
  </outline>
</glyph>
<glyph name="icaron" format="2">
  <advance width="222"/>
  <unicode hex="01D0"/>
  <outline>
    <contour>
      <point x="143.3674035973493" y="597.93" type="line"/>
      <point x="83.21606558941077" y="729.0" type="line"/>
      <point x="84.57832986361394" y="739.0" type="line"/>
      <point x="104.71832986361395" y="739.0" type="line"/>
      <point x="186.3888942989728" y="609.07" type="line"/>
      <point x="155.6888942989728" y="609.07" type="line"/>
      <point x="284.7983298636139" y="739.0" type="line"/>
      <point x="303.8683298636139" y="739.0" type="line"/>
      <point x="302.50606558941075" y="729.0" type="line"/>
      <point x="196.1374035973493" y="597.93" type="line"/>
    </contour>
    <component base="dotlessi" yxScale="0.029226427420316562"/>
  </outline>
</glyph>
<glyph name="schwa" format="2">
  <advance width="384"/>
  <unicode hex="0259"/>
  <outline>
    <contour>
      <point x="248.74" y="518.0" type="curve" smooth="yes"/>
      <point x="174.20153846153846" y="518.0"/>
      <point x="122.22" y="467.86"/>
      <point x="88.08" y="404.79" type="curve"/>
      <point x="109.36" y="391.44" type="line"/>
      <point x="145.57" y="449.0"/>
      <point x="180.59969465648857" y="487.07"/>
      <point x="245.02" y="487.07" type="curve" smooth="yes"/>
      <point x="315.63" y="487.07"/>
      <point x="362.33" y="430.25268292682927"/>
      <point x="362.33" y="315.39" type="curve" smooth="yes"/>
      <point x="362.33" y="151.39544554455443"/>
      <point x="284.4636464088398" y="19.86"/>
      <point x="183.02" y="19.86" type="curve" smooth="yes"/>
      <point x="129.6664864864865" y="19.86"/>
      <point x="103.41" y="53.93"/>
      <point x="103.41" y="107.35" type="curve" smooth="yes"/>
      <point x="103.41" y="214.72"/>
      <point x="182.25" y="262.0"/>
      <point x="376.68" y="265.0" type="curve"/>
      <point x="380.89" y="289.93" type="line"/>
      <point x="178.53" y="291.93"/>
      <point x="66.27" y="233.07"/>
      <point x="66.27" y="107.35" type="curve" smooth="yes"/>
      <point x="66.27" y="38.0"/>
      <point x="104.60745454545454" y="-12.0"/>
      <point x="182.09" y="-12.0" type="curve" smooth="yes"/>
      <point x="332.03297297297297" y="-12.0"/>
      <point x="402.54" y="177.76897590361446"/>
      <point x="402.54" y="312.6" type="curve" smooth="yes"/>
      <point x="402.54" y="446.2154545454545"/>
      <point x="338.49" y="518.0"/>
    </contour>
  </outline>
</glyph>
<glyph name="verticallinemod" format="2">
  <advance width="411"/>
  <unicode hex="02C8"/>
  <outline>
    <contour>
      <point x="198.92685579891315" y="547.0" type="line"/>
      <point x="250.97685579891316" y="547.0" type="line"/>
      <point x="256.90982056523745" y="750.0" type="line"/>
      <point x="204.85982056523744" y="750.0" type="line"/>
    </contour>
  </outline>
</glyph>
<glyph name="dotaccent" format="2">
  <advance width="410"/>
  <unicode hex="02D9"/>
  <anchor x="218.87310082308653" y="526.0" name="_top"/>
  <outline>
    <contour>
      <point x="230.89" y="648.63" type="curve" smooth="yes"/>
      <point x="249.74" y="648.63"/>
      <point x="266.22" y="662.63"/>
      <point x="266.22" y="692.35" type="curve" smooth="yes"/>
      <point x="266.22" y="720.21"/>
      <point x="251.6" y="737.0"/>
      <point x="233.68" y="737.0" type="curve" smooth="yes"/>
      <point x="214.83" y="737.0"/>
      <point x="198.35" y="720.21"/>
      <point x="198.35" y="692.35" type="curve" smooth="yes"/>
      <point x="198.35" y="662.63"/>
      <point x="212.97" y="648.63"/>
    </contour>
  </outline>
</glyph>
<glyph name="ogonek" format="2">
  <advance width="492"/>
  <unicode hex="02DB"/>
  <anchor x="292.09303784678286" y="9.0" name="_right"/>
  <outline>
    <contour>
      <point x="360.88" y="22.0" type="line"/>
      <point x="261.62" y="-14.7"/>
      <point x="200.92" y="-72.77"/>
      <point x="200.92" y="-145.21" type="curve" smooth="yes"/>
      <point x="200.92" y="-200.0"/>
      <point x="231.27" y="-233.0"/>
      <point x="283.76" y="-233.0" type="curve" smooth="yes"/>
      <point x="318.11" y="-233.0"/>
      <point x="347.32" y="-216.65"/>
      <point x="377.32" y="-181.93" type="curve"/>
      <point x="361.25" y="-163.65" type="line"/>
      <point x="339.04" y="-191.44"/>
      <point x="314.97" y="-203.93"/>
      <point x="286.55" y="-203.93" type="curve" smooth="yes"/>
      <point x="258.27" y="-203.93"/>
      <point x="241.06" y="-184.86"/>
      <point x="241.06" y="-145.21" type="curve" smooth="yes"/>
      <point x="241.06" y="-81.98"/>
      <point x="275.55" y="-39.77"/>
      <point x="372.02" y="2.0" type="curve"/>
    </contour>
  </outline>
</glyph>
<glyph name="hungarumlaut" format="2">
  <advance width="410"/>
  <unicode hex="02DD"/>
  <anchor x="226.9138743956662" y="525.0" name="_top"/>
  <outline>
    <contour>
      <point x="173.77" y="707.93" type="curve" smooth="yes"/>
      <point x="129.83049788766803" y="594.0" type="line"/>
      <point x="128.26364862152266" y="576.93" type="line"/>
      <point x="142.40364862152265" y="576.93" type="line"/>
      <point x="212.12" y="681.93" type="line" smooth="yes"/>
      <point x="223.26" y="698.86"/>
      <point x="233.89535849304437" y="716.9303192449707"/>
      <point x="234.3045184442514" y="731.0" type="curve" smooth="yes"/>
      <point x="234.6844620007155" y="744.0"/>
      <point x="226.9067262749187" y="754.0"/>
      <point x="213.6967262749187" y="754.0" type="curve" smooth="yes"/>
      <point x="195.9727721111918" y="754.0"/>
      <point x="184.91" y="736.93"/>
    </contour>
    <contour>
      <point x="282.38" y="707.93" type="curve" smooth="yes"/>
      <point x="239.37049788766802" y="594.0" type="line"/>
      <point x="236.87364862152265" y="576.93" type="line"/>
      <point x="251.01364862152266" y="576.93" type="line"/>
      <point x="321.66" y="681.0" type="line" smooth="yes"/>
      <point x="332.8" y="697.0"/>
      <point x="342.4970164916299" y="716.6648724558751"/>
      <point x="342.9145184442514" y="731.0" type="curve" smooth="yes"/>
      <point x="343.2944620007155" y="744.0"/>
      <point x="336.4467262749187" y="754.0"/>
      <point x="322.30672627491873" y="754.0" type="curve" smooth="yes"/>
      <point x="304.5827721111918" y="754.0"/>
      <point x="293.52" y="736.93"/>
    </contour>
  </outline>
</glyph>
<glyph name="Delta" format="2">
  <advance width="579"/>
  <unicode hex="0394"/>
  <outline>
    <contour>
      <point x="25.55" y="0.0" type="line"/>
      <point x="546.02" y="0.0" type="line"/>
      <point x="551.02" y="25.14" type="line"/>
      <point x="431.1" y="710.0" type="line"/>
      <point x="386.89" y="710.0" type="line"/>
      <point x="29.62" y="22.35" type="line"/>
    </contour>
    <contour>
      <point x="512.81" y="21.07" type="line"/>
      <point x="529.02" y="30.14" type="line"/>
      <point x="57.9" y="30.14" type="line"/>
      <point x="61.9" y="15.07" type="line"/>
      <point x="414.1" y="696.0" type="line"/>
      <point x="396.96" y="697.0" type="line"/>
    </contour>
  </outline>
</glyph>
<glyph name="Omega" format="2">
  <advance width="629"/>
  <unicode hex="03A9"/>
  <outline>
    <contour>
      <point x="367.6146877748591" y="691.86" type="curve" smooth="yes"/>
      <point x="228.09468777485907" y="691.86"/>
      <point x="141.7428186054071" y="590.86"/>
      <point x="136.04366525844537" y="396.0" type="curve" smooth="yes"/>
      <point x="132.06887112928231" y="260.0"/>
      <point x="174.02158695177255" y="166.0"/>
      <point x="239.838283524233" y="41.14" type="curve"/>
      <point x="234.64" y="0.0" type="line"/>
      <point x="2.07" y="0.0" type="line"/>
      <point x="33.65153050823666" y="179.07" type="line"/>
      <point x="58.79153050823666" y="179.07" type="line"/>
      <point x="48.49507634684248" y="71.14" type="line" smooth="yes"/>
      <point x="44.44292495971108" y="35.14"/>
      <point x="71.79833996776887" y="28.14"/>
      <point x="141.98833996776887" y="28.14" type="curve" smooth="yes"/>
      <point x="226.45833996776886" y="28.14" type="line"/>
      <point x="223.86226427420317" y="10.14" type="line"/>
      <point x="143.59545481467097" y="160.93"/>
      <point x="92.36726754058705" y="275.0"/>
      <point x="95.87443883102503" y="395.07" type="curve" smooth="yes"/>
      <point x="102.01198858929152" y="604.93"/>
      <point x="216.05302774262793" y="720.0"/>
      <point x="368.4330277426279" y="720.0" type="curve" smooth="yes"/>
      <point x="506.5330277426279" y="720.0"/>
      <point x="596.7119885892915" y="605.0"/>
      <point x="592.2111187665628" y="451.0" type="curve" smooth="yes"/>
      <point x="587.6517960889934" y="294.93"/>
      <point x="500.46843621791794" y="182.93"/>
      <point x="324.8830378467829" y="9.14" type="curve"/>
      <point x="332.64833996776883" y="28.14" type="line"/>
      <point x="421.25833996776885" y="28.14" type="line" smooth="yes"/>
      <point x="490.51833996776884" y="28.14"/>
      <point x="520.2829249597111" y="35.14"/>
      <point x="529.4050763468425" y="71.14" type="curve" smooth="yes"/>
      <point x="553.9815305082367" y="179.07" type="line"/>
      <point x="579.1215305082367" y="179.07" type="line"/>
      <point x="549.54" y="0.0" type="line"/>
      <point x="313.76" y="0.0" type="line"/>
      <point x="320.95828352423297" y="41.14" type="line"/>
      <point x="478.74915334696175" y="194.93"/>
      <point x="548.6756075083559" y="303.0"/>
      <point x="553.0011187665627" y="451.0" type="curve" smooth="yes"/>
      <point x="557.2389507425087" y="596.0"/>
      <point x="489.9246877748591" y="691.86"/>
    </contour>
  </outline>
</glyph>
<glyph name="pi" format="2">
  <advance width="556"/>
  <unicode hex="03C0"/>
  <guideline x="235.29" y="459.24" angle="0" identifier="t2EWmzJ41I"/>
  <outline>
    <contour>
      <point x="179.75" y="0.0" type="line"/>
      <point x="265.75" y="488.93" type="line"/>
      <point x="238.54" y="488.93" type="line"/>
      <point x="187.4" y="222.93"/>
      <point x="171.54" y="188.0"/>
      <point x="138.54" y="0.0" type="curve"/>
    </contour>
    <contour>
      <point x="572.0" y="480.79" type="line"/>
      <point x="577.0" y="508.0" type="line"/>
      <point x="270.17" y="508.0" type="line" smooth="yes"/>
      <point x="149.0" y="508.0"/>
      <point x="94.65" y="451.72"/>
      <point x="65.3" y="334.14" type="curve"/>
      <point x="88.3" y="326.65" type="line"/>
      <point x="114.51" y="423.86"/>
      <point x="150.0" y="480.79"/>
      <point x="262.38" y="480.79" type="curve" smooth="yes"/>
    </contour>
    <contour>
      <point x="467.11" y="488.93" type="line"/>
      <point x="438.97" y="488.93" type="line"/>
      <point x="380.9" y="194.0"/>
      <point x="354.83" y="123.14"/>
      <point x="354.83" y="71.21" type="curve" smooth="yes"/>
      <point x="354.83" y="23.14"/>
      <point x="375.25" y="-6.0"/>
      <point x="421.95" y="-6.0" type="curve" smooth="yes"/>
      <point x="469.58" y="-6.0"/>
      <point x="496.93" y="25.56"/>
      <point x="519.0" y="83.0" type="curve"/>
      <point x="497.93" y="94.21" type="line"/>
      <point x="487.93" y="67.42"/>
      <point x="466.51" y="22.14"/>
      <point x="430.81" y="22.14" type="curve" smooth="yes"/>
      <point x="408.39" y="22.14"/>
      <point x="397.04" y="39.07"/>
      <point x="397.04" y="74.07" type="curve" smooth="yes"/>
      <point x="397.04" y="93.0"/>
      <point x="402.04" y="124.0"/>
      <point x="408.97" y="159.0" type="curve" smooth="yes"/>
    </contour>
  </outline>
</glyph>
<glyph name="thai:baht" format="2">
  <advance width="460"/>
  <unicode hex="0E3F"/>
  <outline>
    <contour>
      <point x="82.93833996776887" y="28.14" type="line"/>
      <point x="139.45228744389365" y="358.93" type="line"/>
      <point x="249.41228744389366" y="358.93" type="line" smooth="yes"/>
      <point x="345.0222874438937" y="358.93"/>
      <point x="381.76411680673243" y="292.0"/>
      <point x="379.3967761856868" y="211.0" type="curve" smooth="yes"/>
      <point x="379.046059056643" y="199.0"/>
      <point x="377.6953419275992" y="186.93"/>
      <point x="374.3853983711351" y="173.93" type="curve" smooth="yes"/>
      <point x="357.0366234920018" y="69.07"/>
      <point x="310.06833996776885" y="28.14"/>
      <point x="212.17833996776886" y="28.14" type="curve" smooth="yes"/>
    </contour>
    <contour>
      <point x="144.28217455682187" y="385.07" type="line"/>
      <point x="194.7324235006559" y="681.86" type="line"/>
      <point x="282.0624235006559" y="681.86" type="line" smooth="yes"/>
      <point x="378.95242350065587" y="681.86"/>
      <point x="412.02187570221975" y="630.93"/>
      <point x="409.91757292795694" y="558.93" type="curve" smooth="yes"/>
      <point x="409.65453508117406" y="549.86"/>
      <point x="408.36227080697097" y="539.79"/>
      <point x="405.1107801053475" y="528.79" type="curve" smooth="yes"/>
      <point x="389.28194878267834" y="436.93"/>
      <point x="343.92217455682186" y="385.07"/>
      <point x="251.96217455682188" y="385.07" type="curve"/>
    </contour>
    <contour>
      <point x="151.1236022821417" y="-120.93" type="line"/>
      <point x="182.3336022821417" y="-120.93" type="line"/>
      <point x="205.44226427420315" y="10.07" type="line"/>
      <point x="205.87452854840635" y="20.07" type="line"/>
      <point x="322.12468777485907" y="691.93" type="line"/>
      <point x="323.35849919422157" y="699.93" type="line"/>
      <point x="340.1288776620501" y="790.0" type="line"/>
      <point x="308.9188776620501" y="790.0" type="line"/>
      <point x="293.0784991942216" y="699.93" type="line"/>
      <point x="291.87391420227937" y="692.86" type="line"/>
      <point x="176.52452854840632" y="20.07" type="line"/>
      <point x="174.23226427420317" y="10.07" type="line"/>
    </contour>
    <contour>
      <point x="-25.309226427420317" y="-0.9299999999999999" type="line"/>
      <point x="203.2607735725797" y="-0.9299999999999999" type="line" smooth="yes"/>
      <point x="342.5007735725797" y="-0.9299999999999999"/>
      <point x="414.84811419362535" y="80.0"/>
      <point x="418.67677618568683" y="211.0" type="curve" smooth="yes"/>
      <point x="421.39483393577626" y="304.0"/>
      <point x="374.7814574277781" y="373.0"/>
      <point x="257.119136710039" y="376.0" type="curve"/>
      <point x="286.59919315357496" y="363.0" type="line"/>
      <point x="289.1368159923" y="379.0" type="line"/>
      <point x="253.43609886325618" y="367.0" type="line"/>
      <point x="381.6760988632562" y="367.0"/>
      <point x="445.88343948430185" y="447.93"/>
      <point x="449.127572927957" y="558.93" type="curve" smooth="yes"/>
      <point x="451.6118192586839" y="643.93"/>
      <point x="403.8699898958451" y="710.93"/>
      <point x="282.9799898958451" y="710.93" type="curve" smooth="yes"/>
      <point x="97.24998989584508" y="710.93" type="line"/>
      <point x="92.30319707323558" y="680.93" type="line"/>
      <point x="100.51319707323557" y="680.93" type="line" smooth="yes"/>
      <point x="133.07319707323558" y="680.93"/>
      <point x="156.28861208129337" y="673.93"/>
      <point x="151.30104568610417" y="644.93" type="curve" smooth="yes"/>
      <point x="51.949717782320576" y="65.07" type="line" smooth="yes"/>
      <point x="46.0321513871314" y="36.07"/>
      <point x="21.33756639518918" y="29.07"/>
      <point x="-11.22243360481082" y="29.07" type="curve" smooth="yes"/>
      <point x="-20.36243360481082" y="29.07" type="line"/>
    </contour>
  </outline>
</glyph>
<glyph name="ohorntilde" format="2">
  <advance width="446"/>
  <unicode hex="1EE1"/>
  <outline>
    <contour>
      <point x="314.8219321457556" y="617.93" type="curve" smooth="yes"/>
      <point x="356.59193214575566" y="617.93"/>
      <point x="375.71408353288706" y="653.93"/>
      <point x="397.905348460367" y="717.0" type="curve"/>
      <point x="374.01683916199045" y="728.0" type="line"/>
      <point x="357.30474421839494" y="679.0"/>
      <point x="346.3171778232058" y="650.07"/>
      <point x="320.8271778232058" y="650.07" type="curve" smooth="yes"/>
      <point x="283.1271778232058" y="650.07"/>
      <point x="275.2376127345701" y="727.0"/>
      <point x="219.25761273457013" y="727.0" type="curve" smooth="yes"/>
      <point x="179.69761273457013" y="727.0"/>
      <point x="155.57004633938095" y="698.0"/>
      <point x="137.30264927479942" y="629.93" type="curve"/>
      <point x="160.16193214575566" y="617.93" type="line"/>
      <point x="174.79247994419177" y="668.93"/>
      <point x="187.8031406296997" y="693.93"/>
      <point x="212.2231406296997" y="693.93" type="curve" smooth="yes"/>
      <point x="250.06314062969972" y="693.93"/>
      <point x="255.91193214575566" y="617.93"/>
    </contour>
    <component base="ohorn" yxScale="0.029226427420316562"/>
  </outline>
</glyph>
<glyph name="dagger" format="2">
  <advance width="323"/>
  <unicode hex="2020"/>
  <outline>
    <contour>
      <point x="238.58" y="506.0" type="line"/>
      <point x="247.51" y="505.0" type="line"/>
      <point x="364.54" y="493.86" type="line"/>
      <point x="388.96" y="493.86" type="line"/>
      <point x="396.03" y="532.14" type="line"/>
      <point x="369.54" y="532.14" type="line"/>
      <point x="250.58" y="522.07" type="line"/>
      <point x="242.58" y="523.07" type="line"/>
      <point x="123.62" y="532.14" type="line"/>
      <point x="99.27" y="532.14" type="line"/>
      <point x="92.2" y="493.86" type="line"/>
      <point x="118.69" y="493.86" type="line"/>
    </contour>
    <contour>
      <point x="300.51" y="710.0" type="line"/>
      <point x="261.44" y="710.0" type="line"/>
      <point x="254.44" y="674.0" type="line" smooth="yes"/>
      <point x="246.51" y="640.0"/>
      <point x="246.51" y="586.0"/>
      <point x="232.44" y="508.07" type="curve"/>
      <point x="220.51" y="441.0"/>
      <point x="208.51" y="405.0"/>
      <point x="196.51" y="380.0" type="curve"/>
      <point x="194.44" y="364.0" type="line" smooth="yes"/>
      <point x="186.51" y="325.0"/>
      <point x="177.51" y="225.0"/>
      <point x="142.72" y="0.0" type="curve"/>
      <point x="160.86" y="0.0" type="line"/>
      <point x="207.79" y="219.0"/>
      <point x="230.79" y="312.0"/>
      <point x="238.79" y="355.0" type="curve" smooth="yes"/>
      <point x="242.79" y="377.0" type="line"/>
      <point x="240.72" y="404.0"/>
      <point x="244.65" y="440.0"/>
      <point x="255.65" y="506.07" type="curve"/>
      <point x="269.72" y="584.0"/>
      <point x="285.58" y="639.0"/>
      <point x="293.51" y="674.0" type="curve" smooth="yes"/>
    </contour>
  </outline>
</glyph>
<glyph name="bullet" format="2">
  <advance width="301"/>
  <unicode hex="2022"/>
  <outline>
    <contour>
      <point x="115.34" y="337.0" type="curve" smooth="yes"/>
      <point x="113.48" y="277.93"/>
      <point x="148.11" y="236.93"/>
      <point x="200.81" y="236.93" type="curve" smooth="yes"/>
      <point x="252.51" y="236.93"/>
      <point x="291.86" y="277.93"/>
      <point x="293.72" y="337.0" type="curve" smooth="yes"/>
      <point x="294.65" y="396.07"/>
      <point x="259.02" y="437.07"/>
      <point x="207.32" y="437.07" type="curve" smooth="yes"/>
      <point x="154.62" y="437.07"/>
      <point x="116.27" y="396.07"/>
    </contour>
  </outline>
</glyph>
<glyph name="perthousand" format="2">
  <advance width="903"/>
  <unicode hex="2030"/>
  <outline>
    <contour>
      <point x="244.59" y="669.37" type="curve"/>
      <point x="286.23" y="669.37"/>
      <point x="313.45" y="639.84"/>
      <point x="313.45" y="591.16" type="curve" smooth="yes"/>
      <point x="313.45" y="528.45"/>
      <point x="277.61" y="432.63"/>
      <point x="207.84" y="432.63" type="curve"/>
      <point x="166.2" y="432.63"/>
      <point x="138.98" y="462.16"/>
      <point x="138.98" y="510.84" type="curve" smooth="yes"/>
      <point x="138.98" y="573.55"/>
      <point x="174.82" y="669.37"/>
    </contour>
    <contour>
      <point x="247.38" y="698.44" type="curve"/>
      <point x="161.97" y="698.44"/>
      <point x="108.44" y="603.73"/>
      <point x="108.44" y="513.63" type="curve" smooth="yes"/>
      <point x="108.44" y="453.55"/>
      <point x="143.07" y="403.56"/>
      <point x="205.05" y="403.56" type="curve"/>
      <point x="290.46" y="403.56"/>
      <point x="343.99" y="498.27"/>
      <point x="343.99" y="588.37" type="curve" smooth="yes"/>
      <point x="343.99" y="648.45"/>
      <point x="309.36" y="698.44"/>
    </contour>
    <contour>
      <point x="506.82" y="277.37" type="curve"/>
      <point x="536.56" y="277.37"/>
      <point x="555.59" y="246.65"/>
      <point x="555.59" y="195.1" type="curve" smooth="yes"/>
      <point x="555.59" y="135.26"/>
      <point x="527.94" y="40.63"/>
      <point x="470.07" y="40.63" type="curve"/>
      <point x="440.33" y="40.63"/>
      <point x="421.3" y="71.35"/>
      <point x="421.3" y="122.9" type="curve" smooth="yes"/>
      <point x="421.3" y="182.74"/>
      <point x="448.95" y="277.37"/>
    </contour>
    <contour>
      <point x="509.61" y="306.44" type="curve"/>
      <point x="433.02" y="306.44"/>
      <point x="384.88" y="214.6"/>
      <point x="384.88" y="125.69" type="curve" smooth="yes"/>
      <point x="384.88" y="64.42"/>
      <point x="414.12" y="11.560000000000002"/>
      <point x="467.28" y="11.560000000000002" type="curve"/>
      <point x="543.87" y="11.560000000000002"/>
      <point x="592.01" y="103.4"/>
      <point x="592.01" y="192.31" type="curve" smooth="yes"/>
      <point x="592.01" y="253.57999999999998"/>
      <point x="562.77" y="306.44"/>
    </contour>
    <contour>
      <point x="806.0" y="277.37" type="curve"/>
      <point x="835.74" y="277.37"/>
      <point x="854.77" y="246.65"/>
      <point x="854.77" y="195.1" type="curve" smooth="yes"/>
      <point x="854.77" y="135.26"/>
      <point x="827.12" y="40.63"/>
      <point x="769.25" y="40.63" type="curve"/>
      <point x="739.51" y="40.63"/>
      <point x="720.48" y="71.35"/>
      <point x="720.48" y="122.9" type="curve" smooth="yes"/>
      <point x="720.48" y="182.74"/>
      <point x="748.13" y="277.37"/>
    </contour>
    <contour>
      <point x="808.79" y="306.44" type="curve"/>
      <point x="732.2" y="306.44"/>
      <point x="684.06" y="214.6"/>
      <point x="684.06" y="125.69" type="curve" smooth="yes"/>
      <point x="684.06" y="64.42"/>
      <point x="713.3" y="11.560000000000002"/>
      <point x="766.46" y="11.560000000000002" type="curve"/>
      <point x="843.05" y="11.560000000000002"/>
      <point x="891.19" y="103.4"/>
      <point x="891.19" y="192.31" type="curve" smooth="yes"/>
      <point x="891.19" y="253.57999999999998"/>
      <point x="861.95" y="306.44"/>
    </contour>
    <component base="fraction" yxScale="0.029226427420316562" xOffset="139.19" yOffset="-0.9299999999999999"/>
  </outline>
</glyph>
<glyph name="guilsinglleft" format="2">
  <advance width="239"/>
  <unicode hex="2039"/>
  <outline>
    <contour>
      <point x="123.9" y="256.79" type="line"/>
      <point x="265.0" y="436.4" type="line"/>
      <point x="238.86" y="436.4" type="line"/>
      <point x="97.9" y="290.0" type="line"/>
      <point x="91.9" y="256.0" type="line"/>
      <point x="173.23" y="93.6" type="line"/>
      <point x="196.44" y="93.6" type="line"/>
      <point x="127.11" y="283.14" type="line"/>
    </contour>
  </outline>
</glyph>
<glyph name="franc" format="2">
  <advance width="460"/>
  <unicode hex="20A3"/>
  <outline>
    <contour>
      <point x="-4.07" y="0.0" type="line"/>
      <point x="203.94" y="0.0" type="line"/>
      <point x="209.8575663951892" y="29.07" type="line"/>
      <point x="193.5775663951892" y="29.07" type="line" smooth="yes"/>
      <point x="158.94756639518917" y="29.07"/>
      <point x="118.3467928226095" y="30.07"/>
      <point x="124.43971778232057" y="65.07" type="curve" smooth="yes"/>
      <point x="229.98319707323557" y="680.93" type="line"/>
      <point x="358.57319707323563" y="680.93" type="line" smooth="yes"/>
      <point x="428.76319707323563" y="680.93"/>
      <point x="456.97861208129336" y="673.93"/>
      <point x="453.92646069416196" y="637.93" type="curve" smooth="yes"/>
      <point x="447.2260822263335" y="547.93" type="line"/>
      <point x="471.3660822263335" y="547.93" type="line"/>
      <point x="500.4507634684248" y="710.0" type="line"/>
      <point x="119.43076346842476" y="710.0" type="line"/>
      <point x="113.51319707323557" y="680.93" type="line"/>
      <point x="122.65319707323557" y="680.93" type="line" smooth="yes"/>
      <point x="163.28319707323558" y="680.93"/>
      <point x="190.63861208129336" y="673.93"/>
      <point x="186.6510456861042" y="644.93" type="curve" smooth="yes"/>
      <point x="86.29971778232057" y="65.07" type="line" smooth="yes"/>
      <point x="81.38215138713139" y="36.07"/>
      <point x="48.617566395189186" y="29.07"/>
      <point x="7.98756639518918" y="29.07" type="curve" smooth="yes"/>
      <point x="1.8475663951891803" y="29.07" type="line"/>
    </contour>
    <contour>
      <point x="165.51598597618442" y="393.0" type="curve"/>
      <point x="159.84377814551712" y="369.93" type="line"/>
      <point x="233.1445517180968" y="368.93"/>
      <point x="305.44532529067646" y="367.93"/>
      <point x="378.7460988632562" y="366.93" type="curve"/>
      <point x="384.56443883102503" y="395.07" type="line"/>
      <point x="311.2052124036047" y="394.07"/>
      <point x="238.87521240360473" y="394.0"/>
    </contour>
    <contour>
      <point x="33.86136117762901" y="218.07" type="line"/>
      <point x="28.043021209860147" y="189.93" type="line"/>
      <point x="271.68302120986016" y="189.93" type="line"/>
      <point x="276.571361177629" y="218.07" type="line"/>
    </contour>
  </outline>
</glyph>
<glyph name="won" format="2">
  <advance width="460"/>
  <unicode hex="20A9"/>
  <outline>
    <contour>
      <point x="62.33" y="0.0" type="line"/>
      <point x="106.47" y="0.0" type="line"/>
      <point x="308.68087635549654" y="684.0" type="line"/>
      <point x="302.7570084925981" y="689.0" type="line"/>
      <point x="271.76" y="0.0" type="line"/>
      <point x="317.04" y="0.0" type="line"/>
      <point x="484.346460694162" y="637.93" type="line" smooth="yes"/>
      <point x="493.4801592264527" y="671.93"/>
      <point x="512.0931970732356" y="680.93"/>
      <point x="533.5131970732356" y="680.93" type="curve" smooth="yes"/>
      <point x="537.5831970732356" y="680.93" type="line"/>
      <point x="543.5007634684248" y="710.0" type="line"/>
      <point x="410.1907634684248" y="710.0" type="line"/>
      <point x="404.2731970732356" y="680.93" type="line"/>
      <point x="415.5531970732356" y="680.93" type="line" smooth="yes"/>
      <point x="438.9731970732356" y="680.93"/>
      <point x="465.3286120812934" y="673.93"/>
      <point x="463.93712137966986" y="662.93" type="curve"/>
      <point x="295.26839641130476" y="15.0" type="line"/>
      <point x="301.29149070162345" y="11.07" type="line"/>
      <point x="330.5807634684248" y="710.0" type="line"/>
      <point x="290.37076346842474" y="710.0" type="line"/>
      <point x="86.98452854840633" y="20.0" type="line"/>
      <point x="94.02530212098601" y="19.0" type="line"/>
      <point x="139.29093279903242" y="670.93" type="line"/>
      <point x="140.49551779097462" y="677.93"/>
      <point x="170.14319707323557" y="680.93"/>
      <point x="192.63319707323558" y="680.93" type="curve" smooth="yes"/>
      <point x="205.91319707323558" y="680.93" type="line"/>
      <point x="211.83076346842475" y="710.0" type="line"/>
      <point x="72.45076346842477" y="710.0" type="line"/>
      <point x="66.53319707323558" y="680.93" type="line"/>
      <point x="69.67319707323558" y="680.93" type="line" smooth="yes"/>
      <point x="93.09319707323557" y="680.93"/>
      <point x="109.28551779097464" y="677.93"/>
      <point x="107.29181925868387" y="643.93" type="curve" smooth="yes"/>
    </contour>
    <contour>
      <point x="26.91194878267834" y="437.07" type="line"/>
      <point x="20.994382387489157" y="408.0" type="line"/>
      <point x="103.18438238748915" y="408.0" type="line"/>
      <point x="108.32438238748915" y="408.0" type="line"/>
      <point x="214.21438238748914" y="408.0" type="line"/>
      <point x="227.34194878267834" y="437.07" type="line"/>
    </contour>
    <contour>
      <point x="304.68438238748917" y="408.0" type="line"/>
      <point x="406.50438238748916" y="408.0" type="line"/>
      <point x="418.78438238748913" y="408.0" type="line"/>
      <point x="487.90438238748914" y="408.0" type="line"/>
      <point x="494.75194878267837" y="437.07" type="line"/>
      <point x="306.53194878267834" y="437.07" type="line"/>
    </contour>
    <contour>
      <point x="161.94351256476043" y="253.93" type="line"/>
      <point x="301.3235125647604" y="253.93" type="line"/>
      <point x="296.9610789599496" y="283.0" type="line"/>
      <point x="234.9110789599496" y="283.0" type="line"/>
      <point x="175.9310789599496" y="283.0" type="line"/>
    </contour>
    <contour>
      <point x="92.67107895994958" y="283.0" type="line"/>
      <point x="-0.008921040050412166" y="283.0" type="line"/>
      <point x="-5.856487435239593" y="253.93" type="line"/>
      <point x="92.8235125647604" y="253.93" type="line"/>
    </contour>
    <contour>
      <point x="375.5835125647604" y="253.93" type="line"/>
      <point x="461.98351256476036" y="253.93" type="line"/>
      <point x="466.9010789599496" y="283.0" type="line"/>
      <point x="382.3610789599496" y="283.0" type="line"/>
    </contour>
  </outline>
</glyph>
<glyph name="peso" format="2">
  <advance width="460"/>
  <unicode hex="20B1"/>
  <outline>
    <contour>
      <point x="55.26089299241923" y="503.0" type="line"/>
      <point x="49.41332659723005" y="473.93" type="line"/>
      <point x="145.02332659723004" y="473.93" type="line"/>
      <point x="150.88332659723005" y="473.93" type="line"/>
      <point x="402.50332659723006" y="473.93" type="line"/>
      <point x="409.57332659723005" y="473.93" type="line"/>
      <point x="490.69332659723005" y="473.93" type="line"/>
      <point x="495.6108929924192" y="503.0" type="line"/>
      <point x="419.4208929924192" y="503.0" type="line"/>
      <point x="406.4908929924192" y="503.0" type="line"/>
      <point x="158.94089299241924" y="503.0" type="line"/>
      <point x="150.94089299241924" y="503.0" type="line"/>
    </contour>
    <contour>
      <point x="-32.63" y="0.0" type="line"/>
      <point x="166.45" y="0.0" type="line"/>
      <point x="172.3675663951892" y="29.07" type="line"/>
      <point x="150.94756639518917" y="29.07" type="line" smooth="yes"/>
      <point x="123.45756639518919" y="29.07"/>
      <point x="88.91524567745013" y="32.07"/>
      <point x="89.18983066939235" y="39.07" type="curve" smooth="yes"/>
      <point x="128.19732398412293" y="261.93" type="line"/>
      <point x="194.73732398412295" y="261.93" type="line" smooth="yes"/>
      <point x="357.60732398412296" y="261.93"/>
      <point x="428.94836313745935" y="376.93"/>
      <point x="433.04006297630366" y="517.0" type="curve" smooth="yes"/>
      <point x="436.1965171376978" y="625.0"/>
      <point x="377.84076346842477" y="710.0"/>
      <point x="246.39076346842475" y="710.0" type="curve" smooth="yes"/>
      <point x="91.80076346842476" y="710.0" type="line"/>
      <point x="85.88319707323558" y="680.93" type="line"/>
      <point x="95.02319707323558" y="680.93" type="line" smooth="yes"/>
      <point x="133.79319707323558" y="680.93"/>
      <point x="161.14861208129338" y="673.93"/>
      <point x="156.23104568610418" y="644.93" type="curve" smooth="yes"/>
      <point x="56.809717782320575" y="65.07" type="line" smooth="yes"/>
      <point x="50.9621513871314" y="36.07"/>
      <point x="22.12756639518918" y="29.07"/>
      <point x="-17.57243360481082" y="29.07" type="curve" smooth="yes"/>
      <point x="-25.78243360481082" y="29.07" type="line"/>
    </contour>
    <contour>
      <point x="243.47319707323558" y="680.93" type="line" smooth="yes"/>
      <point x="349.6431970732356" y="680.93"/>
      <point x="396.5365735812337" y="611.93"/>
      <point x="393.76006297630363" y="517.0" type="curve" smooth="yes"/>
      <point x="393.26321371015825" y="500.0"/>
      <point x="391.63791158917223" y="481.0"/>
      <point x="388.11183589560653" y="463.0" type="curve" smooth="yes"/>
      <point x="368.31311746000927" y="345.07"/>
      <point x="312.72566395189176" y="290.07"/>
      <point x="195.4856639518918" y="290.07" type="curve" smooth="yes"/>
      <point x="134.0856639518918" y="290.07" type="line"/>
      <point x="200.4931970732356" y="680.93" type="line"/>
    </contour>
  </outline>
</glyph>
<glyph name="guarani" format="2">
  <advance width="459"/>
  <unicode hex="20B2"/>
  <outline>
    <contour>
      <point x="301.7788776620501" y="790.0" type="line"/>
      <point x="283.52932921033715" y="685.93" type="line"/>
      <point x="282.4416499280762" y="682.86" type="line"/>
      <point x="170.61833996776886" y="28.07" type="line"/>
      <point x="169.4722078306673" y="23.07" type="line"/>
      <point x="144.01282870956203" y="-120.0" type="line"/>
      <point x="176.292828709562" y="-120.0" type="line"/>
      <point x="200.76375497582666" y="21.0" type="line"/>
      <point x="201.90988711292823" y="26.07" type="line"/>
      <point x="314.6339706458153" y="679.93" type="line"/>
      <point x="315.8093292103371" y="686.0" type="line"/>
      <point x="333.1288776620501" y="790.0" type="line"/>
    </contour>
    <contour>
      <point x="214.72226427420316" y="10.0" type="curve" smooth="yes"/>
      <point x="281.91226427420315" y="10.0"/>
      <point x="335.86900065327677" y="53.0"/>
      <point x="366.4403784678285" y="90.0" type="curve"/>
      <point x="401.74643752447145" y="288.93" type="line" smooth="yes"/>
      <point x="406.6640039196607" y="317.93"/>
      <point x="426.1893624841826" y="323.93"/>
      <point x="452.6093624841826" y="323.93" type="curve" smooth="yes"/>
      <point x="455.6793624841826" y="323.93" type="line"/>
      <point x="460.5969288793717" y="353.0" type="line"/>
      <point x="323.42692887937176" y="353.0" type="line"/>
      <point x="317.5793624841826" y="323.93" type="line"/>
      <point x="323.6493624841826" y="323.93" type="line" smooth="yes"/>
      <point x="352.27936248418257" y="323.93"/>
      <point x="372.5940039196607" y="317.93"/>
      <point x="367.67643752447145" y="288.93" type="curve" smooth="yes"/>
      <point x="335.66264274203166" y="100.0" type="line"/>
      <point x="317.75734062104567" y="81.0"/>
      <point x="280.8998306693924" y="39.07"/>
      <point x="215.56983066939236" y="39.07" type="curve" smooth="yes"/>
      <point x="130.02983066939234" y="39.07"/>
      <point x="71.8564541613942" y="108.14"/>
      <point x="76.76649396800737" y="276.07" type="curve" smooth="yes"/>
      <point x="77.58483393577623" y="304.07"/>
      <point x="79.91157031484985" y="347.0"/>
      <point x="87.09217455682189" y="384.93" type="curve" smooth="yes"/>
      <point x="117.2459693392617" y="573.86"/>
      <point x="198.6209327990324" y="670.93"/>
      <point x="307.3709327990324" y="670.93" type="curve" smooth="yes"/>
      <point x="379.77093279903244" y="670.93"/>
      <point x="422.30800783932136" y="635.86"/>
      <point x="434.56508287961026" y="600.86" type="curve"/>
      <point x="442.56508287961026" y="600.93"/>
      <point x="442.86800783932136" y="635.93"/>
      <point x="417.5649135490026" y="639.93" type="curve"/>
      <point x="400.57840294407254" y="544.86" type="line"/>
      <point x="444.85840294407257" y="544.86" type="line"/>
      <point x="460.698781411901" y="634.93" type="line"/>
      <point x="446.1025363877277" y="656.0"/>
      <point x="393.61849919422156" y="700.0"/>
      <point x="308.2184991942216" y="700.0" type="curve" smooth="yes"/>
      <point x="149.6284991942216" y="700.0"/>
      <point x="42.5531572666224" y="513.07"/>
      <point x="35.626493968007374" y="276.07" type="curve" smooth="yes"/>
      <point x="30.482642742031654" y="100.07"/>
      <point x="108.04226427420316" y="10.0"/>
    </contour>
  </outline>
</glyph>
<glyph name="uni20B4" format="2">
  <advance width="460"/>
  <unicode hex="20B4"/>
  <outline>
    <contour>
      <point x="48.109684508475176" y="426.93" type="line"/>
      <point x="470.03968450847515" y="426.93" type="line"/>
      <point x="475.85802447624405" y="455.07" type="line"/>
      <point x="52.998024476244034" y="455.07" type="line"/>
    </contour>
    <contour>
      <point x="22.737984669630855" y="286.93" type="line"/>
      <point x="445.5979846696309" y="286.93" type="line"/>
      <point x="450.51555106482004" y="316.0" type="line"/>
      <point x="28.585551064820034" y="316.0" type="line"/>
    </contour>
    <contour>
      <point x="209.06773572579684" y="-10.0" type="curve" smooth="yes"/>
      <point x="283.32773572579686" y="-10.0"/>
      <point x="341.6813778145517" y="36.93"/>
      <point x="377.4981141936253" y="79.93" type="curve"/>
      <point x="392.19236052435224" y="165.07" type="line"/>
      <point x="348.8423605243522" y="165.07" type="line"/>
      <point x="330.9843027742628" y="71.93" type="line"/>
      <point x="344.76203850005965" y="62.0"/>
      <point x="365.83115204040814" y="89.14"/>
      <point x="361.36335987107543" y="112.07" type="curve"/>
      <point x="326.3243592177987" y="59.07"/>
      <point x="275.10530212098604" y="19.07"/>
      <point x="209.915302120986" y="19.07" type="curve" smooth="yes"/>
      <point x="126.30530212098601" y="19.07"/>
      <point x="77.84507634684248" y="71.07"/>
      <point x="80.38777553241002" y="158.0" type="curve" smooth="yes"/>
      <point x="81.96600261310712" y="212.0"/>
      <point x="104.87655041154326" y="263.0"/>
      <point x="149.59334323415277" y="292.93" type="curve"/>
      <point x="100.52947537125434" y="297.93" type="line"/>
      <point x="63.666550411543255" y="262.93"/>
      <point x="44.872908322788376" y="216.0"/>
      <point x="43.148549104989705" y="157.07" type="curve" smooth="yes"/>
      <point x="40.28435921779868" y="59.0"/>
      <point x="101.24773572579683" y="-10.0"/>
    </contour>
    <contour>
      <point x="384.5411752100987" y="438.0" type="line"/>
      <point x="413.91951517786754" y="466.0"/>
      <point x="439.8823836940427" y="514.0"/>
      <point x="441.78210147636327" y="578.93" type="curve" smooth="yes"/>
      <point x="444.20789495224955" y="662.0"/>
      <point x="390.99302774262793" y="720.0"/>
      <point x="301.5930277426279" y="720.0" type="curve" smooth="yes"/>
      <point x="231.47302774262792" y="720.0"/>
      <point x="177.48164992807622" y="683.0"/>
      <point x="151.25485710546673" y="653.0" type="curve"/>
      <point x="135.65983720216013" y="568.93" type="line"/>
      <point x="179.93983720216013" y="568.93" type="line"/>
      <point x="197.1017063716121" y="669.93" type="line"/>
      <point x="184.207064936134" y="675.93"/>
      <point x="163.64110212964007" y="631.93"/>
      <point x="166.4303850005963" y="619.86" type="curve"/>
      <point x="192.8909892425683" y="657.93"/>
      <point x="236.62546134743874" y="690.93"/>
      <point x="295.6754613474387" y="690.93" type="curve" smooth="yes"/>
      <point x="373.21546134743875" y="690.93"/>
      <point x="406.41336640384327" y="641.93"/>
      <point x="404.63055433120394" y="580.93" type="curve" smooth="yes"/>
      <point x="402.6723836940427" y="514.0"/>
      <point x="371.58106232302686" y="464.0"/>
      <point x="333.3780809197799" y="442.0" type="curve"/>
    </contour>
  </outline>
</glyph>
<glyph name="ruble" format="2">
  <advance width="461"/>
  <unicode hex="20BD"/>
  <outline>
    <contour>
      <point x="297.0853419275992" y="187.0" type="line"/>
      <point x="20.8153419275992" y="187.0" type="line"/>
      <point x="26.73290832278838" y="216.07" type="line"/>
      <point x="303.00290832278836" y="216.07" type="line"/>
    </contour>
    <contour>
      <point x="53.79991028261871" y="375.0" type="line"/>
      <point x="275.22991028261873" y="375.0" type="line" smooth="yes"/>
      <point x="360.90991028261874" y="375.0"/>
      <point x="409.78438238748913" y="408.07"/>
      <point x="431.85874160528783" y="467.0" type="curve" smooth="yes"/>
      <point x="440.7001758633755" y="491.0"/>
      <point x="444.629289403724" y="518.0"/>
      <point x="445.5060822263335" y="548.0" type="curve" smooth="yes"/>
      <point x="447.8734228473791" y="628.93"/>
      <point x="408.5531970732356" y="680.93"/>
      <point x="303.5231970732356" y="680.93" type="curve" smooth="yes"/>
      <point x="222.91319707323558" y="680.93" type="line"/>
      <point x="112.53983066939234" y="39.07" type="line" smooth="yes"/>
      <point x="111.33524567745013" y="32.07"/>
      <point x="145.87756639518918" y="29.07"/>
      <point x="174.2975663951892" y="29.07" type="curve" smooth="yes"/>
      <point x="196.6475663951892" y="29.07" type="line"/>
      <point x="190.73" y="0.0" type="line"/>
      <point x="-12.07" y="0.0" type="line"/>
      <point x="-6.15243360481082" y="29.07" type="line"/>
      <point x="2.98756639518918" y="29.07" type="line" smooth="yes"/>
      <point x="43.617566395189186" y="29.07"/>
      <point x="74.3121513871314" y="36.07"/>
      <point x="79.22971778232058" y="65.07" type="curve" smooth="yes"/>
      <point x="178.6510456861042" y="644.93" type="line" smooth="yes"/>
      <point x="183.56861208129337" y="673.93"/>
      <point x="155.28319707323558" y="680.93"/>
      <point x="115.58319707323558" y="680.93" type="curve" smooth="yes"/>
      <point x="106.44319707323558" y="680.93" type="line"/>
      <point x="112.36076346842476" y="710.0" type="line"/>
      <point x="306.4407634684248" y="710.0" type="line" smooth="yes"/>
      <point x="435.61076346842475" y="710.0"/>
      <point x="489.39336640384323" y="642.0"/>
      <point x="486.6460822263335" y="548.0" type="curve" smooth="yes"/>
      <point x="483.2850430729971" y="432.93"/>
      <point x="417.97234388742953" y="345.93"/>
      <point x="271.3123438874295" y="345.93" type="curve" smooth="yes"/>
      <point x="47.882343887429535" y="345.93" type="line"/>
    </contour>
  </outline>
</glyph>
<glyph name="soundcopyright" format="2">
  <advance width="689"/>
  <unicode hex="2117"/>
  <outline>
    <contour>
      <point x="78.35538173421239" y="355.0" type="curve" smooth="yes"/>
      <point x="84.22989364569601" y="555.93"/>
      <point x="206.66153704100444" y="708.93"/>
      <point x="369.4615370410044" y="708.93" type="curve" smooth="yes"/>
      <point x="531.3315370410045" y="708.93"/>
      <point x="643.889893645696" y="555.93"/>
      <point x="638.0153817342124" y="355.0" type="curve" smooth="yes"/>
      <point x="632.1408698227287" y="154.07"/>
      <point x="510.63922642742034" y="1.07"/>
      <point x="348.76922642742034" y="1.07" type="curve" smooth="yes"/>
      <point x="185.96922642742032" y="1.07"/>
      <point x="72.48086982272875" y="154.07"/>
    </contour>
    <contour>
      <point x="232.46164339530844" y="153.0" type="line"/>
      <point x="370.4216433953084" y="153.0" type="line"/>
      <point x="371.1815305082366" y="179.07" type="line"/>
      <point x="350.83153050823665" y="179.07" type="line" smooth="yes"/>
      <point x="334.6215305082366" y="179.07"/>
      <point x="314.300756935657" y="180.07"/>
      <point x="314.4176626453382" y="184.07" type="curve" smooth="yes"/>
      <point x="318.12941892771846" y="310.93" type="line"/>
      <point x="381.2494189277184" y="310.93" type="line" smooth="yes"/>
      <point x="453.4394189277184" y="310.93"/>
      <point x="507.54228744389366" y="359.0"/>
      <point x="509.82194878267836" y="437.0" type="curve" smooth="yes"/>
      <point x="512.0431572666224" y="513.0"/>
      <point x="465.6291200731163" y="557.0"/>
      <point x="390.5091200731163" y="557.0" type="curve" smooth="yes"/>
      <point x="244.2691200731163" y="557.0" type="line"/>
      <point x="243.5092329601881" y="530.93" type="line"/>
      <point x="248.57923296018808" y="530.93" type="line" smooth="yes"/>
      <point x="270.9992329601881" y="530.93"/>
      <point x="288.16232725050685" y="526.93"/>
      <point x="287.6947044117818" y="510.93" type="curve" smooth="yes"/>
      <point x="278.576059056643" y="199.07" type="line" smooth="yes"/>
      <point x="278.1084362179179" y="183.07"/>
      <point x="260.71153050823665" y="179.07"/>
      <point x="238.29153050823666" y="179.07" type="curve" smooth="yes"/>
      <point x="233.22153050823667" y="179.07" type="line"/>
    </contour>
    <contour>
      <point x="389.66155367792715" y="527.93" type="line" smooth="yes"/>
      <point x="445.71155367792716" y="527.93"/>
      <point x="472.4416665649989" y="501.93"/>
      <point x="470.54194878267833" y="437.0" type="curve" smooth="yes"/>
      <point x="468.6714574277781" y="373.0"/>
      <point x="440.21698532290765" y="340.0"/>
      <point x="382.09698532290764" y="340.0" type="curve" smooth="yes"/>
      <point x="318.97698532290764" y="340.0" type="line"/>
      <point x="324.47155367792715" y="527.93" type="line"/>
    </contour>
    <contour>
      <point x="47.00538173421238" y="355.0" type="curve" smooth="yes"/>
      <point x="40.663246984003685" y="138.0"/>
      <point x="171.05166003223113" y="-28.0"/>
      <point x="347.92166003223116" y="-28.0" type="curve" smooth="yes"/>
      <point x="523.8616600322312" y="-28.0"/>
      <point x="663.9532469840036" y="138.0"/>
      <point x="670.2953817342124" y="355.0" type="curve" smooth="yes"/>
      <point x="676.6375164844211" y="572.0"/>
      <point x="546.2491034361936" y="738.0"/>
      <point x="370.3091034361936" y="738.0" type="curve" smooth="yes"/>
      <point x="193.43910343619362" y="738.0"/>
      <point x="53.34751648442108" y="572.0"/>
    </contour>
  </outline>
</glyph>
<glyph name="servicemark" format="2">
  <advance width="662"/>
  <unicode hex="2120"/>
  <outline>
    <contour>
      <point x="310.02443883102507" y="395.0" type="line"/>
      <point x="399.42443883102504" y="395.0" type="line"/>
      <point x="405.0966466616923" y="418.07" type="line"/>
      <point x="402.0266466616923" y="418.07" type="line" smooth="yes"/>
      <point x="393.88664666169234" y="418.07"/>
      <point x="376.69432594395323" y="421.07"/>
      <point x="376.7527787987939" y="423.07" type="curve"/>
      <point x="424.6069520490622" y="702.0" type="line"/>
      <point x="421.5077256216419" y="701.0" type="line"/>
      <point x="453.30521240360474" y="394.0" type="line"/>
      <point x="477.5152124036047" y="394.0" type="line"/>
      <point x="618.7277256216419" y="701.0" type="line"/>
      <point x="614.7277256216419" y="701.0" type="line"/>
      <point x="566.902778798794" y="423.07" type="line"/>
      <point x="566.8443259439533" y="421.07"/>
      <point x="551.5466466616923" y="418.07"/>
      <point x="542.3366466616924" y="418.07" type="curve" smooth="yes"/>
      <point x="538.2666466616923" y="418.07" type="line"/>
      <point x="533.524438831025" y="395.0" type="line"/>
      <point x="628.924438831025" y="395.0" type="line"/>
      <point x="633.6666466616923" y="418.07" type="line"/>
      <point x="627.5966466616924" y="418.07" type="line" smooth="yes"/>
      <point x="610.2466466616924" y="418.07"/>
      <point x="598.2235523713737" y="422.07"/>
      <point x="600.6034959278377" y="435.07" type="curve" smooth="yes"/>
      <point x="641.0609327990325" y="670.93" type="line" smooth="yes"/>
      <point x="642.5401027829168" y="684.93"/>
      <point x="655.8085556377575" y="686.93"/>
      <point x="674.0885556377575" y="686.93" type="curve" smooth="yes"/>
      <point x="680.1585556377576" y="686.93" type="line"/>
      <point x="683.9007634684248" y="710.0" type="line"/>
      <point x="595.7807634684248" y="710.0" type="line"/>
      <point x="471.7134959278377" y="435.0" type="line"/>
      <point x="477.68426950041743" y="434.0" type="line"/>
      <point x="454.1907634684248" y="710.0" type="line"/>
      <point x="365.00076346842474" y="710.0" type="line"/>
      <point x="361.25855563775747" y="686.93" type="line"/>
      <point x="365.39855563775745" y="686.93" type="line" smooth="yes"/>
      <point x="382.6785556377575" y="686.93"/>
      <point x="395.8301027829168" y="684.93"/>
      <point x="394.3509327990324" y="670.93" type="curve" smooth="yes"/>
      <point x="353.8934959278377" y="435.07" type="line" smooth="yes"/>
      <point x="351.5135523713736" y="422.07"/>
      <point x="337.11664666169236" y="418.07"/>
      <point x="319.8366466616923" y="418.07" type="curve" smooth="yes"/>
      <point x="314.76664666169233" y="418.07" type="line"/>
    </contour>
    <contour>
      <point x="125.15723426674165" y="637.0" type="curve" smooth="yes"/>
      <point x="123.78359217798678" y="589.93"/>
      <point x="154.60138434731948" y="566.93"/>
      <point x="188.57685579891316" y="546.93" type="curve" smooth="yes"/>
      <point x="232.55774225856462" y="520.0"/>
      <point x="253.39934584725987" y="505.0"/>
      <point x="252.52255302465036" y="475.0" type="curve" smooth="yes"/>
      <point x="251.26581664557676" y="432.07"/>
      <point x="228.26128809717042" y="412.07"/>
      <point x="193.70128809717042" y="412.07" type="curve" smooth="yes"/>
      <point x="154.00128809717043" y="412.07"/>
      <point x="126.35885449235961" y="441.07"/>
      <point x="118.89630800047702" y="496.0" type="curve"/>
      <point x="92.47630800047702" y="496.0" type="line"/>
      <point x="73.19753312134377" y="391.0" type="line"/>
      <point x="94.40753312134377" y="391.0" type="line"/>
      <point x="115.08410016980974" y="473.0" type="line"/>
      <point x="101.83874160528784" y="467.07" type="line"/>
      <point x="113.35360881490946" y="409.07"/>
      <point x="149.3114009842422" y="386.0"/>
      <point x="192.9414009842422" y="386.0" type="curve" smooth="yes"/>
      <point x="245.7114009842422" y="386.0"/>
      <point x="280.23587308911266" y="419.0"/>
      <point x="281.9894587343316" y="479.0" type="curve" smooth="yes"/>
      <point x="283.3338743956662" y="525.0"/>
      <point x="257.4691765166522" y="544.07"/>
      <point x="208.6167429118414" y="573.07" type="curve" smooth="yes"/>
      <point x="180.58281860540708" y="591.0"/>
      <point x="152.57198858929152" y="605.0"/>
      <point x="153.68259283126355" y="643.0" type="curve" smooth="yes"/>
      <point x="154.67629136355433" y="676.93"/>
      <point x="172.54081991196063" y="696.93"/>
      <point x="205.10081991196063" y="696.93" type="curve" smooth="yes"/>
      <point x="239.73081991196062" y="696.93"/>
      <point x="258.37938565387304" y="672.93"/>
      <point x="266.1049699925385" y="627.0" type="curve"/>
      <point x="290.45496999253845" y="627.0" type="line"/>
      <point x="306.26612203294667" y="716.0" type="line"/>
      <point x="287.0561220329467" y="716.0" type="line"/>
      <point x="268.7010456861042" y="645.0" type="line"/>
      <point x="280.8702721135245" y="646.0" type="line"/>
      <point x="273.00468777485906" y="692.0"/>
      <point x="249.54302774262794" y="720.0"/>
      <point x="205.77302774262793" y="720.0" type="curve" smooth="yes"/>
      <point x="158.07302774262794" y="720.0"/>
      <point x="126.6477820651778" y="688.0"/>
    </contour>
  </outline>
</glyph>
<glyph name="trademark" format="2">
  <advance width="666"/>
  <unicode hex="2122"/>
  <outline>
    <contour>
      <point x="163.43" y="395.0" type="line"/>
      <point x="276.04" y="395.0" type="line"/>
      <point x="280.11" y="418.07" type="line"/>
      <point x="271.97" y="418.07" type="line" smooth="yes"/>
      <point x="252.76" y="418.07"/>
      <point x="240.48" y="422.07"/>
      <point x="242.48" y="435.07" type="curve" smooth="yes"/>
      <point x="285.55" y="686.93" type="line"/>
      <point x="312.04" y="686.93" type="line" smooth="yes"/>
      <point x="343.53" y="686.93"/>
      <point x="353.81" y="679.93"/>
      <point x="352.81" y="665.93" type="curve" smooth="yes"/>
      <point x="347.88" y="617.93" type="line"/>
      <point x="370.16" y="617.93" type="line"/>
      <point x="387.16" y="710.0" type="line"/>
      <point x="159.66" y="710.0" type="line"/>
      <point x="143.59" y="617.93" type="line"/>
      <point x="165.87" y="617.93" type="line"/>
      <point x="177.94" y="665.93" type="line" smooth="yes"/>
      <point x="181.94" y="679.93"/>
      <point x="196.15" y="686.93"/>
      <point x="227.64" y="686.93" type="curve" smooth="yes"/>
      <point x="254.2" y="686.93" type="line"/>
      <point x="211.13" y="435.07" type="line" smooth="yes"/>
      <point x="208.2" y="422.07"/>
      <point x="193.92" y="418.07"/>
      <point x="175.64" y="418.07" type="curve" smooth="yes"/>
      <point x="167.5" y="418.07" type="line"/>
    </contour>
    <contour>
      <point x="368.72" y="395.0" type="line"/>
      <point x="459.05" y="395.0" type="line"/>
      <point x="463.12" y="418.07" type="line"/>
      <point x="460.05" y="418.07" type="line" smooth="yes"/>
      <point x="451.91" y="418.07"/>
      <point x="434.63" y="422.0"/>
      <point x="434.63" y="424.0" type="curve" smooth="yes"/>
      <point x="482.7" y="702.93" type="line"/>
      <point x="479.63" y="701.0" type="line"/>
      <point x="511.1" y="394.0" type="line"/>
      <point x="535.31" y="394.0" type="line"/>
      <point x="676.85" y="701.0" type="line"/>
      <point x="673.78" y="701.0" type="line"/>
      <point x="625.71" y="423.07" type="line" smooth="yes"/>
      <point x="625.71" y="421.07"/>
      <point x="610.5" y="418.07"/>
      <point x="600.36" y="418.07" type="curve" smooth="yes"/>
      <point x="596.29" y="418.07" type="line"/>
      <point x="592.22" y="395.0" type="line"/>
      <point x="687.62" y="395.0" type="line"/>
      <point x="691.69" y="418.07" type="line"/>
      <point x="686.55" y="418.07" type="line" smooth="yes"/>
      <point x="668.27" y="418.07"/>
      <point x="657.06" y="422.07"/>
      <point x="659.06" y="435.07" type="curve" smooth="yes"/>
      <point x="699.13" y="670.93" type="line" smooth="yes"/>
      <point x="701.13" y="684.93"/>
      <point x="714.34" y="686.93"/>
      <point x="732.62" y="686.93" type="curve" smooth="yes"/>
      <point x="739.62" y="686.93" type="line"/>
      <point x="743.62" y="710.0" type="line"/>
      <point x="653.64" y="710.0" type="line"/>
      <point x="530.17" y="435.0" type="line"/>
      <point x="537.1" y="434.0" type="line"/>
      <point x="512.05" y="710.0" type="line"/>
      <point x="423.79" y="710.0" type="line"/>
      <point x="419.79" y="686.93" type="line"/>
      <point x="424.86" y="686.93" type="line" smooth="yes"/>
      <point x="442.14" y="686.93"/>
      <point x="455.35" y="684.93"/>
      <point x="452.42" y="670.93" type="curve" smooth="yes"/>
      <point x="412.35" y="435.07" type="line" smooth="yes"/>
      <point x="410.35" y="422.07"/>
      <point x="395.14" y="418.07"/>
      <point x="377.86" y="418.07" type="curve"/>
      <point x="372.79" y="418.07" type="line"/>
    </contour>
  </outline>
</glyph>
<glyph name="partialdiff" format="2">
  <advance width="451"/>
  <unicode hex="2202"/>
  <outline>
    <contour>
      <point x="231.0" y="-12.0" type="curve" smooth="yes"/>
      <point x="367.61" y="-12.0"/>
      <point x="458.52" y="201.79"/>
      <point x="458.52" y="486.76" type="curve" smooth="yes"/>
      <point x="458.52" y="673.37"/>
      <point x="402.98" y="748.0"/>
      <point x="312.09" y="748.0" type="curve" smooth="yes"/>
      <point x="264.53" y="748.0"/>
      <point x="222.97" y="727.0"/>
      <point x="192.69" y="703.0" type="curve"/>
      <point x="204.9" y="678.93" type="line"/>
      <point x="231.04" y="699.72"/>
      <point x="265.67" y="718.93"/>
      <point x="309.88" y="718.93" type="curve" smooth="yes"/>
      <point x="379.42" y="718.93"/>
      <point x="419.24" y="653.51"/>
      <point x="419.24" y="500.16" type="curve" smooth="yes"/>
      <point x="419.24" y="265.67"/>
      <point x="357.26" y="17.07"/>
      <point x="231.93" y="17.07" type="curve" smooth="yes"/>
      <point x="160.88" y="17.07"/>
      <point x="135.9" y="77.49"/>
      <point x="135.9" y="187.19" type="curve" smooth="yes"/>
      <point x="135.9" y="349.56"/>
      <point x="212.74" y="488.93"/>
      <point x="314.35" y="488.93" type="curve" smooth="yes"/>
      <point x="372.33" y="488.93"/>
      <point x="415.03" y="453.93"/>
      <point x="440.73" y="416.79" type="curve"/>
      <point x="437.68" y="455.91" type="line"/>
      <point x="416.1" y="486.0"/>
      <point x="378.26" y="518.0"/>
      <point x="316.21" y="518.0" type="curve" smooth="yes"/>
      <point x="189.3" y="518.0"/>
      <point x="96.62" y="361.33"/>
      <point x="96.62" y="184.91" type="curve" smooth="yes"/>
      <point x="96.62" y="63.14"/>
      <point x="143.02" y="-12.0"/>
    </contour>
  </outline>
</glyph>
<glyph name="emptyset" format="2">
  <advance width="572"/>
  <unicode hex="2205"/>
  <outline>
    <contour>
      <point x="280.54911354034857" y="27.07" type="curve" smooth="yes"/>
      <point x="172.51911354034854" y="27.07"/>
      <point x="99.75490701623481" y="110.07"/>
      <point x="104.10964470186198" y="259.0" type="curve" smooth="yes"/>
      <point x="108.43515596006884" y="406.93"/>
      <point x="202.0031572666224" y="512.93"/>
      <point x="320.10315726662236" y="512.93" type="curve" smooth="yes"/>
      <point x="429.0631572666224" y="512.93"/>
      <point x="500.8681373633158" y="428.93"/>
      <point x="496.542626105109" y="281.0" type="curve" smooth="yes"/>
      <point x="492.2171148469021" y="133.07"/>
      <point x="399.57911354034854" y="27.07"/>
    </contour>
    <contour>
      <point x="279.55541500805776" y="-7.0" type="curve" smooth="yes"/>
      <point x="415.7254150080578" y="-7.0"/>
      <point x="526.257171290438" y="120.0"/>
      <point x="530.9626261051089" y="281.0" type="curve" smooth="yes"/>
      <point x="535.6680809197799" y="442.0"/>
      <point x="436.98685579891315" y="547.0"/>
      <point x="321.09685579891317" y="547.0" type="curve" smooth="yes"/>
      <point x="185.85685579891316" y="547.0"/>
      <point x="74.39509951653295" y="420.0"/>
      <point x="69.68964470186198" y="259.0" type="curve" smooth="yes"/>
      <point x="64.98418988719102" y="98.0"/>
      <point x="164.59541500805778" y="-7.0"/>
    </contour>
    <contour>
      <point x="9.970942903187337" y="-40.0" type="line"/>
      <point x="592.7406672182757" y="555.0" type="line"/>
      <point x="576.2613279037836" y="580.0" type="line"/>
      <point x="-6.508396411304749" y="-15.0" type="line"/>
    </contour>
  </outline>
</glyph>
<glyph name="product" format="2">
  <advance width="551"/>
  <unicode hex="220F"/>
  <outline>
    <contour>
      <point x="332.84" y="683.72" type="line" smooth="yes"/>
      <point x="301.35" y="683.72"/>
      <point x="261.58" y="680.72"/>
      <point x="260.58" y="673.72" type="curve" smooth="yes"/>
      <point x="107.79" y="-186.72" type="line" smooth="yes"/>
      <point x="106.79" y="-193.72"/>
      <point x="147.35" y="-196.72"/>
      <point x="178.84" y="-196.72" type="curve" smooth="yes"/>
      <point x="186.91" y="-196.72" type="line"/>
      <point x="181.91" y="-223.0" type="line"/>
      <point x="-14.75" y="-223.0" type="line"/>
      <point x="-10.68" y="-196.72" type="line"/>
      <point x="-1.54" y="-196.72" type="line" smooth="yes"/>
      <point x="39.09" y="-196.72"/>
      <point x="69.58" y="-188.79"/>
      <point x="74.58" y="-159.79" type="curve" smooth="yes"/>
      <point x="217.51" y="646.79" type="line" smooth="yes"/>
      <point x="222.51" y="675.79"/>
      <point x="203.32" y="683.72"/>
      <point x="153.39" y="683.72" type="curve" smooth="yes"/>
      <point x="145.18" y="683.72" type="line"/>
      <point x="150.18" y="710.0" type="line"/>
      <point x="645.02" y="710.0" type="line"/>
      <point x="640.95" y="683.72" type="line"/>
      <point x="631.81" y="683.72" type="line" smooth="yes"/>
      <point x="590.25" y="683.72"/>
      <point x="559.76" y="675.79"/>
      <point x="554.76" y="644.93" type="curve" smooth="yes"/>
      <point x="412.76" y="-160.72" type="line" smooth="yes"/>
      <point x="407.76" y="-187.86"/>
      <point x="426.95" y="-196.72"/>
      <point x="477.81" y="-196.72" type="curve" smooth="yes"/>
      <point x="486.02" y="-196.72" type="line"/>
      <point x="481.02" y="-223.0" type="line"/>
      <point x="284.36" y="-223.0" type="line"/>
      <point x="288.43" y="-196.72" type="line"/>
      <point x="297.43" y="-196.72" type="line" smooth="yes"/>
      <point x="328.92" y="-196.72"/>
      <point x="368.69" y="-194.65"/>
      <point x="369.69" y="-186.72" type="curve" smooth="yes"/>
      <point x="521.55" y="673.72" type="line" smooth="yes"/>
      <point x="522.55" y="680.72"/>
      <point x="481.99" y="683.72"/>
      <point x="450.5" y="683.72" type="curve" smooth="yes"/>
    </contour>
  </outline>
</glyph>
<glyph name="radical" format="2">
  <advance width="484"/>
  <unicode hex="221A"/>
  <outline>
    <contour>
      <point x="94.55" y="328.93" type="line"/>
      <point x="195.6" y="328.93" type="line"/>
      <point x="167.6" y="348.93" type="line"/>
      <point x="217.49" y="0.0" type="line"/>
      <point x="244.56" y="0.0" type="line"/>
      <point x="251.49" y="26.07" type="line"/>
      <point x="204.74" y="357.07" type="line"/>
      <point x="99.62" y="357.07" type="line"/>
    </contour>
    <contour>
      <point x="538.78" y="710.0" type="line"/>
      <point x="225.35" y="0.0" type="line"/>
      <point x="256.56" y="0.0" type="line"/>
      <point x="573.06" y="710.0" type="line"/>
    </contour>
  </outline>
</glyph>
<glyph name="integral" format="2">
  <advance width="435"/>
  <unicode hex="222B"/>
  <outline>
    <contour>
      <point x="332.26" y="593.88" type="line" smooth="yes"/>
      <point x="349.47" y="679.65"/>
      <point x="385.1" y="707.93"/>
      <point x="435.22" y="707.93" type="curve" smooth="yes"/>
      <point x="476.99" y="707.93"/>
      <point x="499.48" y="687.93"/>
      <point x="509.69" y="665.93" type="curve"/>
      <point x="514.83" y="672.93"/>
      <point x="510.55" y="697.0"/>
      <point x="487.27" y="697.07" type="curve"/>
      <point x="474.2" y="620.93" type="line"/>
      <point x="517.62" y="620.93" type="line"/>
      <point x="531.69" y="703.0" type="line"/>
      <point x="520.48" y="715.0"/>
      <point x="486.85" y="737.0"/>
      <point x="437.08" y="737.0" type="curve" smooth="yes"/>
      <point x="365.89" y="737.0"/>
      <point x="315.26" y="698.65"/>
      <point x="295.05" y="597.88" type="curve" smooth="yes"/>
      <point x="169.91" y="-38.09" type="line" smooth="yes"/>
      <point x="143.63" y="-171.72"/>
      <point x="108.79" y="-206.93"/>
      <point x="56.81" y="-206.93" type="curve" smooth="yes"/>
      <point x="15.04" y="-206.93"/>
      <point x="-6.5200000000000005" y="-186.93"/>
      <point x="-16.73" y="-164.93" type="curve"/>
      <point x="-20.94" y="-171.93"/>
      <point x="-16.66" y="-196.0"/>
      <point x="5.6899999999999995" y="-196.07" type="curve"/>
      <point x="18.759999999999998" y="-119.93" type="line"/>
      <point x="-24.66" y="-119.93" type="line"/>
      <point x="-38.730000000000004" y="-202.0" type="line"/>
      <point x="-28.45" y="-214.0"/>
      <point x="7.04" y="-236.0"/>
      <point x="56.81" y="-236.0" type="curve" smooth="yes"/>
      <point x="126.0" y="-236.0"/>
      <point x="177.77" y="-188.72"/>
      <point x="210.05" y="-26.16" type="curve" smooth="yes"/>
    </contour>
  </outline>
</glyph>
<glyph name="uni25B4" format="2">
  <advance width="529"/>
  <unicode hex="25B4"/>
  <outline>
    <contour>
      <point x="48.35960489524881" y="91.0" type="line"/>
      <point x="486.6396048952488" y="91.0" type="line"/>
      <point x="276.9710623230269" y="464.0" type="line"/>
    </contour>
  </outline>
</glyph>
<glyph name="uni25B9" format="2">
  <advance width="470"/>
  <unicode hex="25B9"/>
  <outline>
    <contour>
      <point x="122.67840294407253" y="545.0" type="line"/>
      <point x="107.04226427420316" y="10.0" type="line"/>
      <point x="420.88572039542765" y="277.0" type="line"/>
    </contour>
    <contour>
      <point x="165.89415661334561" y="460.0" type="line"/>
      <point x="151.5495716214034" y="453.0" type="line"/>
      <point x="355.68958825832607" y="272.0" type="line"/>
      <point x="356.0110789599496" y="283.0" type="line"/>
      <point x="141.29109559687228" y="102.0" type="line"/>
      <point x="155.22651060493007" y="95.0" type="line"/>
    </contour>
  </outline>
</glyph>
<glyph name="lozenge" format="2">
  <advance width="524"/>
  <unicode hex="25CA"/>
  <outline>
    <contour>
      <point x="262.17" y="24.93" type="line"/>
      <point x="114.16" y="372.3" type="line"/>
      <point x="115.3" y="339.56" type="line"/>
      <point x="383.17" y="685.0" type="line"/>
      <point x="368.67" y="683.21" type="line"/>
      <point x="516.68" y="337.7" type="line"/>
      <point x="515.54" y="372.3" type="line"/>
      <point x="246.74" y="25.0" type="line"/>
    </contour>
    <contour>
      <point x="236.51" y="0.0" type="line"/>
      <point x="269.26" y="0.0" type="line"/>
      <point x="534.99" y="342.23" type="line"/>
      <point x="540.2" y="368.7" type="line"/>
      <point x="393.4" y="710.0" type="line"/>
      <point x="360.65" y="710.0" type="line"/>
      <point x="95.85" y="368.7" type="line"/>
      <point x="90.64" y="342.23" type="line"/>
    </contour>
  </outline>
</glyph>
<glyph name="zero.den" format="2">
  <advance width="268"/>
  <unicode hex="E402"/>
  <outline>
    <contour>
      <point x="183.27092626626464" y="141.07" type="curve" smooth="yes"/>
      <point x="170.2196613387847" y="78.07"/>
      <point x="143.03452854840634" y="20.07"/>
      <point x="97.19452854840634" y="20.07" type="curve"/>
      <point x="59.56452854840633" y="20.07"/>
      <point x="40.14435921779868" y="59.0"/>
      <point x="42.19020913722084" y="128.93" type="curve" smooth="yes"/>
      <point x="42.891643395308435" y="152.93"/>
      <point x="45.66307765339603" y="176.93"/>
      <point x="50.40528548406331" y="199.93" type="curve" smooth="yes"/>
      <point x="63.456550411543255" y="262.93"/>
      <point x="90.64168320192161" y="320.93"/>
      <point x="136.48168320192164" y="320.93" type="curve"/>
      <point x="174.11168320192164" y="320.93"/>
      <point x="193.53185253252929" y="282.0"/>
      <point x="191.4860026131071" y="212.07" type="curve" smooth="yes"/>
      <point x="190.78456835501953" y="188.07"/>
      <point x="188.0131340969319" y="164.07"/>
    </contour>
    <contour>
      <point x="228.47373833890393" y="202.0" type="curve" smooth="yes"/>
      <point x="230.98721109705116" y="287.93"/>
      <point x="199.08157031484984" y="347.0"/>
      <point x="137.24157031484987" y="347.0" type="curve"/>
      <point x="50.91157031484985" y="347.0"/>
      <point x="7.803625451832176" y="228.0"/>
      <point x="5.202473411424002" y="139.0" type="curve" smooth="yes"/>
      <point x="2.6890006532767776" y="53.07"/>
      <point x="34.5946414354781" y="-6.0"/>
      <point x="96.4346414354781" y="-6.0" type="curve" smooth="yes"/>
      <point x="182.7646414354781" y="-6.0"/>
      <point x="225.87258629849578" y="113.0"/>
    </contour>
  </outline>
</glyph>
<glyph name="one.den" format="2">
  <advance width="266"/>
  <unicode hex="E403"/>
  <outline>
    <contour>
      <point x="112.19977422585646" y="52.0" type="curve" smooth="yes"/>
      <point x="162.34621175032794" y="341.0" type="line"/>
      <point x="140.27621175032795" y="341.0" type="line"/>
      <point x="119.04941892771845" y="311.0"/>
      <point x="87.13870179867466" y="299.0"/>
      <point x="35.26947537125434" y="298.0" type="curve"/>
      <point x="29.205776838963573" y="263.93" type="line"/>
      <point x="74.94655041154326" y="262.93"/>
      <point x="113.95649396800738" y="276.0"/>
      <point x="129.31787178255908" y="312.93" type="curve"/>
      <point x="130.43477749224036" y="317.0"/>
      <point x="129.2770982099794" y="314.0"/>
      <point x="120.00251321803718" y="306.93" type="curve"/>
      <point x="75.91977422585646" y="52.0" type="line" smooth="yes"/>
      <point x="73.32369853229076" y="34.0"/>
      <point x="52.8567928226095" y="30.0"/>
      <point x="23.436792822609497" y="30.0" type="curve" smooth="yes"/>
      <point x="-3.123207177390503" y="30.0" type="line"/>
      <point x="-8.07" y="0.0" type="line"/>
      <point x="175.8" y="0.0" type="line"/>
      <point x="180.7467928226095" y="30.0" type="line"/>
      <point x="159.3967928226095" y="30.0" type="line" smooth="yes"/>
      <point x="128.8367928226095" y="30.0"/>
      <point x="109.60369853229076" y="34.0"/>
    </contour>
  </outline>
</glyph>
<glyph name="four.den" format="2">
  <advance width="266"/>
  <unicode hex="E406"/>
  <outline>
    <contour>
      <point x="-15.538847959591825" y="89.0" type="line"/>
      <point x="216.24115204040817" y="89.0" type="line"/>
      <point x="222.1763977178583" y="121.07" type="line"/>
      <point x="10.816397717858303" y="121.07" type="line"/>
      <point x="2.904963459770707" y="97.0" type="line"/>
      <point x="175.14632463739972" y="315.0" type="line"/>
      <point x="192.25621175032794" y="341.0" type="line"/>
      <point x="161.76621175032793" y="341.0" type="line"/>
      <point x="-9.445922999880747" y="124.07" type="line"/>
    </contour>
    <contour>
      <point x="149.45" y="0.0" type="line"/>
      <point x="208.25621175032794" y="341.0" type="line"/>
      <point x="178.04621175032793" y="341.0" type="line"/>
      <point x="170.67240033096542" y="332.93" type="line"/>
      <point x="113.17" y="0.0" type="line"/>
    </contour>
  </outline>
</glyph>
<glyph name="five.den" format="2">
  <advance width="265"/>
  <unicode hex="E407"/>
  <outline>
    <contour>
      <point x="97.34083001611558" y="-14.0" type="curve" smooth="yes"/>
      <point x="39.50083001611557" y="-14.0"/>
      <point x="3.893754975826648" y="21.0"/>
      <point x="-7.738017943476257" y="75.0" type="curve"/>
      <point x="20.079604895248806" y="91.0" type="line"/>
      <point x="27.962868516175195" y="48.07"/>
      <point x="54.58762283872507" y="16.0"/>
      <point x="98.21762283872508" y="16.0" type="curve" smooth="yes"/>
      <point x="145.12762283872505" y="16.0"/>
      <point x="173.973585645219" y="60.0"/>
      <point x="175.69794486301765" y="119.0" type="curve" smooth="yes"/>
      <point x="177.21771908887413" y="170.93"/>
      <point x="155.52837977438205" y="195.93"/>
      <point x="120.89837977438205" y="195.93" type="curve" smooth="yes"/>
      <point x="92.40837977438204" y="195.93"/>
      <point x="68.39230408081634" y="178.0"/>
      <point x="53.17705840336622" y="146.0" type="curve"/>
      <point x="28.89705840336622" y="146.0" type="line"/>
      <point x="64.01621175032795" y="341.0" type="line"/>
      <point x="226.60621175032793" y="341.0" type="line"/>
      <point x="214.2971546535153" y="300.93" type="line"/>
      <point x="73.98715465351529" y="300.93" type="line"/>
      <point x="89.11472104870447" y="330.0" type="line"/>
      <point x="62.25230408081635" y="178.0" type="line"/>
      <point x="57.9892662340335" y="169.0"/>
      <point x="49.87849266145381" y="170.0"/>
      <point x="50.80849266145381" y="170.0" type="curve"/>
      <point x="69.1814176211649" y="205.0"/>
      <point x="96.25594616957123" y="225.0"/>
      <point x="129.81594616957122" y="225.0" type="curve" smooth="yes"/>
      <point x="183.58594616957123" y="225.0"/>
      <point x="217.8599833630773" y="181.0"/>
      <point x="216.04794486301768" y="119.0" type="curve" smooth="yes"/>
      <point x="213.9728685161752" y="48.0"/>
      <point x="166.46083001611558" y="-14.0"/>
    </contour>
  </outline>
</glyph>
<glyph name="seven.den" format="2">
  <advance width="265"/>
  <unicode hex="E409"/>
  <outline>
    <contour>
      <point x="124.1370982099794" y="313.93" type="line" smooth="yes"/>
      <point x="88.5070982099794" y="313.93"/>
      <point x="73.11019250029814" y="309.93"/>
      <point x="67.5256639518918" y="289.93" type="curve" smooth="yes"/>
      <point x="56.94202186313693" y="242.93" type="line"/>
      <point x="34.66202186313693" y="242.93" type="line"/>
      <point x="51.736211750327946" y="341.0" type="line"/>
      <point x="254.95621175032792" y="341.0" type="line"/>
      <point x="249.10864535513878" y="311.93" type="line"/>
      <point x="171.13671974215092" y="223.93"/>
      <point x="127.34396411304749" y="149.93"/>
      <point x="104.54" y="0.0" type="curve"/>
      <point x="63.19" y="0.0" type="line"/>
      <point x="91.15164339530843" y="152.93"/>
      <point x="175.76726754058703" y="274.93"/>
      <point x="235.4070417664435" y="326.93" type="curve"/>
      <point x="236.02709820997939" y="313.93" type="line"/>
    </contour>
  </outline>
</glyph>
<glyph name="nine.den" format="2">
  <advance width="265"/>
  <unicode hex="E40B"/>
  <outline>
    <contour>
      <point x="132.07234388742953" y="346.0" type="curve" smooth="yes"/>
      <point x="190.84234388742954" y="346.0"/>
      <point x="233.35560750835594" y="302.93"/>
      <point x="230.72522904052744" y="213.0" type="curve" smooth="yes"/>
      <point x="227.13037846782848" y="90.0"/>
      <point x="157.56077357257968" y="-1.07"/>
      <point x="22.9639243064343" y="-18.0" type="curve"/>
      <point x="21.8407171290438" y="12.0" type="line"/>
      <point x="134.19833996776887" y="28.0"/>
      <point x="187.13109559687229" y="102.0"/>
      <point x="190.34600261310712" y="212.07" type="curve" smooth="yes"/>
      <point x="192.47953181479022" y="285.0"/>
      <point x="166.82555106482002" y="316.0"/>
      <point x="131.19555106482002" y="316.0" type="curve" smooth="yes"/>
      <point x="86.42555106482003" y="316.0"/>
      <point x="63.807267540587056" y="275.0"/>
      <point x="62.37517259699154" y="226.0" type="curve" smooth="yes"/>
      <point x="61.17688907275856" y="185.0"/>
      <point x="80.69086982272876" y="154.0"/>
      <point x="116.25086982272875" y="154.0" type="curve" smooth="yes"/>
      <point x="151.88086982272876" y="154.0"/>
      <point x="181.2592097904976" y="182.0"/>
      <point x="204.53202186313692" y="242.93" type="curve"/>
      <point x="205.75445546794774" y="213.93" type="line"/>
      <point x="188.8146812420913" y="162.0"/>
      <point x="152.04485057269895" y="123.0"/>
      <point x="108.34485057269895" y="123.0" type="curve" smooth="yes"/>
      <point x="54.504850572698935" y="123.0"/>
      <point x="21.260039806613182" y="168.0"/>
      <point x="22.95517259699154" y="226.0" type="curve" smooth="yes"/>
      <point x="24.825663951891805" y="290.0"/>
      <point x="64.02234388742953" y="346.0"/>
    </contour>
  </outline>
</glyph>
<glyph name="E.alt" format="2">
  <advance width="487"/>
  <outline>
    <contour>
      <point x="471.29" y="187.07" type="line"/>
      <point x="446.15" y="187.07" type="line"/>
      <point x="418.94" y="78.58" type="line" smooth="yes"/>
      <point x="409.01" y="39.79"/>
      <point x="385.03" y="29.07"/>
      <point x="308.33" y="29.07" type="curve" smooth="yes"/>
      <point x="148.39" y="29.07" type="line"/>
      <point x="263.32" y="680.93" type="line"/>
      <point x="392.12" y="680.93" type="line" smooth="yes"/>
      <point x="472.54" y="680.93"/>
      <point x="490.8" y="671.14"/>
      <point x="486.87" y="628.63" type="curve" smooth="yes"/>
      <point x="479.87" y="547.93" type="line"/>
      <point x="504.01" y="547.93" type="line"/>
      <point x="533.01" y="710.0" type="line"/>
      <point x="150.99" y="710.0" type="line"/>
      <point x="145.92" y="683.72" type="line"/>
      <point x="155.06" y="683.72" type="line" smooth="yes"/>
      <point x="205.92" y="683.72"/>
      <point x="224.18" y="675.79"/>
      <point x="219.18" y="646.79" type="curve" smooth="yes"/>
      <point x="116.25" y="63.21" type="line" smooth="yes"/>
      <point x="111.25" y="34.21"/>
      <point x="80.76" y="26.28"/>
      <point x="40.13" y="26.28" type="curve" smooth="yes"/>
      <point x="30.06" y="26.28" type="line"/>
      <point x="25.92" y="0.0" type="line"/>
      <point x="438.22" y="0.0" type="line"/>
    </contour>
    <contour>
      <point x="191.25" y="378.07" type="line"/>
      <point x="185.32" y="349.93" type="line"/>
      <point x="363.68" y="349.93" type="line" smooth="yes"/>
      <point x="389.1" y="349.93"/>
      <point x="389.17" y="320.93"/>
      <point x="385.17" y="286.93" type="curve" smooth="yes"/>
      <point x="384.17" y="278.93" type="line"/>
      <point x="407.38" y="278.93" type="line"/>
      <point x="437.38" y="450.07" type="line"/>
      <point x="415.1" y="450.07" type="line"/>
      <point x="414.1" y="443.07" type="line" smooth="yes"/>
      <point x="409.1" y="408.07"/>
      <point x="393.96" y="378.07"/>
      <point x="367.61" y="378.07" type="curve" smooth="yes"/>
    </contour>
  </outline>
</glyph>
<glyph name="Euro.proportional" format="2">
  <advance width="500"/>
  <outline>
    <contour>
      <point x="382.61380131520764" y="719.0" type="curve" smooth="yes"/>
      <point x="201.4638013152076" y="719.0"/>
      <point x="98.33559087143321" y="484.21"/>
      <point x="91.70119184702136" y="257.21" type="curve" smooth="yes"/>
      <point x="86.87883132266911" y="92.14"/>
      <point x="152.87773572579684" y="-10.0"/>
      <point x="275.76773572579685" y="-10.0" type="curve" smooth="yes"/>
      <point x="364.88773572579686" y="-10.0"/>
      <point x="425.4344156613346" y="46.07"/>
      <point x="463.30330342753956" y="125.28" type="curve"/>
      <point x="440.7886055485256" y="144.35" type="line"/>
      <point x="410.468887766205" y="79.14"/>
      <point x="358.7760756935657" y="18.14"/>
      <point x="277.5160756935657" y="18.14" type="curve" smooth="yes"/>
      <point x="176.6960756935657" y="18.14"/>
      <point x="128.4864541613942" y="108.14"/>
      <point x="132.87041827444168" y="258.14" type="curve" smooth="yes"/>
      <point x="134.44864535513878" y="312.14"/>
      <point x="141.31300457293744" y="371.07"/>
      <point x="154.13045808105485" y="426.0" type="curve" smooth="yes"/>
      <point x="188.8113843473195" y="567.0"/>
      <point x="263.6254613474388" y="690.86"/>
      <point x="380.8654613474387" y="690.86" type="curve" smooth="yes"/>
      <point x="441.70546134743876" y="690.86"/>
      <point x="474.4240270893511" y="666.79"/>
      <point x="496.78574356511814" y="625.79" type="curve"/>
      <point x="506.85574356511813" y="625.86"/>
      <point x="495.9548006619308" y="665.86"/>
      <point x="477.77402708935114" y="666.86" type="curve"/>
      <point x="461.962875048943" y="577.79" type="line"/>
      <point x="506.24287504894295" y="577.79" type="line"/>
      <point x="520.8494420974089" y="659.93" type="line"/>
      <point x="507.15397064581526" y="679.93"/>
      <point x="462.73380131520764" y="719.0"/>
    </contour>
    <contour>
      <point x="55.37272235525802" y="436.07" type="line"/>
      <point x="49.554382387489156" y="407.93" type="line"/>
      <point x="363.45438238748915" y="407.93" type="line"/>
      <point x="369.27272235525805" y="436.07" type="line"/>
    </contour>
    <contour>
      <point x="29.63875824221054" y="286.0" type="line"/>
      <point x="23.79119184702136" y="256.93" type="line"/>
      <point x="304.2711918470213" y="256.93" type="line"/>
      <point x="310.11875824221056" y="286.0" type="line"/>
    </contour>
  </outline>
</glyph>
<glyph name="acute.uc" format="2">
  <advance width="410"/>
  <anchor x="179.81761273457013" y="727.0" name="_top"/>
  <outline>
    <contour>
      <point x="245.26544471051602" y="872.0" type="curve" smooth="yes"/>
      <point x="172.1766133878469" y="780.0" type="line"/>
      <point x="169.7674434039625" y="766.0" type="line"/>
      <point x="182.83744340396248" y="766.0" type="line"/>
      <point x="271.6801990330659" y="839.86" type="line" smooth="yes"/>
      <point x="298.4747275814722" y="859.86"/>
      <point x="309.7493125734145" y="866.93"/>
      <point x="310.21693541213955" y="883.0" type="curve" smooth="yes"/>
      <point x="310.538426113763" y="894.0"/>
      <point x="303.88914324280677" y="906.0"/>
      <point x="289.6791432428068" y="906.0" type="curve" smooth="yes"/>
      <point x="274.5391432428068" y="906.0"/>
      <point x="263.0191996863427" y="893.0"/>
    </contour>
  </outline>
</glyph>
<glyph name="acute.ucpl" format="2">
  <advance width="410"/>
  <anchor x="169.2931406296997" y="694.0" name="_top"/>
  <outline>
    <contour>
      <point x="190.6662747266316" y="857.93" type="curve" smooth="yes"/>
      <point x="167.5166698313828" y="767.0" type="line"/>
      <point x="165.08982056523743" y="750.0" type="line"/>
      <point x="180.22982056523745" y="750.0" type="line"/>
      <point x="226.384840468544" y="833.86" type="line" smooth="yes"/>
      <point x="238.8652191464541" y="850.905294117647"/>
      <point x="247.48931257341445" y="866.93"/>
      <point x="247.8984825572989" y="881.0" type="curve" smooth="yes"/>
      <point x="248.30765254118333" y="895.0"/>
      <point x="240.43069038796617" y="904.0"/>
      <point x="226.36069038796617" y="904.0" type="curve" smooth="yes"/>
      <point x="208.15069038796616" y="904.0"/>
      <point x="199.5838411218208" y="887.0"/>
    </contour>
  </outline>
</glyph>
<glyph name="backslash.uc" format="2">
  <advance width="345"/>
  <outline>
    <contour>
      <point x="166.52" y="745.0" type="line"/>
      <point x="334.84" y="-35.0" type="line"/>
      <point x="302.56" y="-35.0" type="line"/>
      <point x="134.24" y="745.0" type="line"/>
    </contour>
  </outline>
</glyph>
<glyph name="bar.uc" format="2">
  <advance width="230"/>
  <outline>
    <contour>
      <point x="155.04" y="750.0" type="line"/>
      <point x="155.04" y="-30.0" type="line"/>
      <point x="186.11" y="-30.0" type="line"/>
      <point x="186.11" y="750.0" type="line"/>
    </contour>
  </outline>
</glyph>
<glyph name="blackcircle" format="2">
  <advance width="485"/>
  <outline>
    <contour>
      <point x="245.3281141936253" y="80.0" type="curve" smooth="yes"/>
      <point x="348.07811419362537" y="80.0"/>
      <point x="433.2430776533961" y="177.0"/>
      <point x="436.95483393577626" y="304.0" type="curve" smooth="yes"/>
      <point x="440.66659021815644" y="431.0"/>
      <point x="361.17155367792714" y="528.0"/>
      <point x="258.42155367792714" y="528.0" type="curve" smooth="yes"/>
      <point x="154.74155367792713" y="528.0"/>
      <point x="69.57659021815644" y="431.0"/>
      <point x="65.86483393577623" y="304.0" type="curve" smooth="yes"/>
      <point x="62.15307765339603" y="177.0"/>
      <point x="141.6481141936253" y="80.0"/>
    </contour>
  </outline>
</glyph>
<glyph name="blackdiamond" format="2">
  <advance width="510"/>
  <outline>
    <contour>
      <point x="477.9178717825591" y="313.0" type="line"/>
      <point x="271.97596933926167" y="574.0" type="line"/>
      <point x="49.84787178255909" y="313.0" type="line"/>
      <point x="256.71977422585644" y="52.0" type="line"/>
    </contour>
  </outline>
</glyph>
<glyph name="blackuppointingtriangle" format="2">
  <advance width="529"/>
  <outline>
    <contour>
      <point x="48.35960489524881" y="91.0" type="line"/>
      <point x="486.6396048952488" y="91.0" type="line"/>
      <point x="276.9710623230269" y="464.0" type="line"/>
    </contour>
  </outline>
</glyph>
<glyph name="breve_acute.uc" format="2">
  <advance width="418"/>
  <anchor x="224.3144620007155" y="744.0" name="_top"/>
  <outline>
    <contour>
      <point x="307.3494088235635" y="1022.0" type="curve" smooth="yes"/>
      <point x="234.26057750089439" y="930.0" type="line"/>
      <point x="231.85140751701" y="916.0" type="line"/>
      <point x="244.92140751700998" y="916.0" type="line"/>
      <point x="333.7641631461134" y="989.86" type="line" smooth="yes"/>
      <point x="360.5586916945197" y="1009.86"/>
      <point x="371.833276686462" y="1016.93"/>
      <point x="372.30089952518705" y="1033.0" type="curve" smooth="yes"/>
      <point x="372.62239022681047" y="1044.0"/>
      <point x="365.97310735585427" y="1056.0"/>
      <point x="351.7631073558543" y="1056.0" type="curve" smooth="yes"/>
      <point x="336.62310735585424" y="1056.0"/>
      <point x="325.1031637993902" y="1043.0"/>
    </contour>
    <component base="breve.uc" yxScale="0.029226427420316562" xOffset="4.07"/>
  </outline>
</glyph>
<glyph name="breve_grave.uc" format="2">
  <advance width="418"/>
  <anchor x="233.61446200071552" y="744.0" name="_top"/>
  <outline>
    <contour>
      <point x="237.72172954130258" y="1019.0" type="curve" smooth="yes"/>
      <point x="288.1705775008944" y="930.0" type="line"/>
      <point x="287.76140751700996" y="916.0" type="line"/>
      <point x="272.69140751700996" y="916.0" type="line"/>
      <point x="204.68184242837435" y="992.86" type="line" smooth="yes"/>
      <point x="186.02714454936037" y="1011.86"/>
      <point x="176.24940882356353" y="1021.86"/>
      <point x="176.60012595260733" y="1033.93" type="curve" smooth="yes"/>
      <point x="176.9216166542308" y="1045.0"/>
      <point x="185.3131073558543" y="1056.0"/>
      <point x="199.45310735585429" y="1056.0" type="curve" smooth="yes"/>
      <point x="214.5231073558543" y="1056.0"/>
      <point x="221.2716166542308" y="1045.0"/>
    </contour>
    <component base="breve.uc" yxScale="0.029226427420316562" xOffset="4.07"/>
  </outline>
</glyph>
<glyph name="breve_hook" format="2">
  <advance width="418"/>
  <anchor x="216.0538743956662" y="525.0" name="_top"/>
  <outline>
    <contour>
      <point x="175.61484046854403" y="834.0" type="line"/>
      <point x="186.0815768476176" y="877.0"/>
      <point x="217.58836967022714" y="907.0"/>
      <point x="267.2883696702271" y="907.0" type="curve" smooth="yes"/>
      <point x="313.9183696702271" y="907.0"/>
      <point x="341.76538826698015" y="884.93"/>
      <point x="340.47942546048625" y="841.0" type="curve" smooth="yes"/>
      <point x="339.13500979915165" y="794.93"/>
      <point x="299.88512268622344" y="768.93"/>
      <point x="242.87589625880312" y="767.93" type="curve"/>
      <point x="263.88655694431105" y="792.93" type="line"/>
      <point x="254.02219772651236" y="734.0" type="line"/>
      <point x="222.67219772651234" y="734.0" type="line"/>
      <point x="232.53655694431103" y="793.0" type="line"/>
      <point x="284.50500979915165" y="795.0"/>
      <point x="304.22340621045646" y="810.0"/>
      <point x="305.15865188790656" y="841.93" type="curve" smooth="yes"/>
      <point x="305.83085971857383" y="864.93"/>
      <point x="293.9892561298786" y="879.93"/>
      <point x="266.4992561298786" y="879.93" type="curve" smooth="yes"/>
      <point x="234.86925612987858" y="879.93"/>
      <point x="217.0516332911535" y="863.93"/>
      <point x="210.03484046854402" y="834.0" type="curve"/>
    </contour>
    <contour>
      <point x="145.470650581353" y="736.0" type="curve"/>
      <point x="171.61065058135299" y="736.0" type="line"/>
      <point x="167.56480066193083" y="666.07"/>
      <point x="185.13723426674167" y="637.0"/>
      <point x="237.97723426674165" y="637.0" type="curve" smooth="yes"/>
      <point x="277.67723426674166" y="637.0"/>
      <point x="306.93866852482927" y="661.07"/>
      <point x="322.34065058135303" y="736.0" type="curve"/>
      <point x="347.480650581353" y="736.0" type="line"/>
      <point x="331.336460694162" y="637.93"/>
      <point x="285.51972431508835" y="594.93"/>
      <point x="232.74972431508834" y="594.93" type="curve" smooth="yes"/>
      <point x="173.90972431508834" y="594.93"/>
      <point x="141.4895549844807" y="634.0"/>
      <point x="143.73998989584507" y="711.0" type="curve" smooth="yes"/>
      <point x="143.88612203294664" y="716.0"/>
      <point x="144.17838630714982" y="726.0"/>
    </contour>
  </outline>
</glyph>
<glyph name="breve_hook.uc" format="2">
  <advance width="410"/>
  <anchor x="217.8067961974072" y="724.0" name="_top"/>
  <outline>
    <contour>
      <point x="176.34880458159148" y="984.0" type="line"/>
      <point x="186.74554096066512" y="1027.0"/>
      <point x="218.1415602106949" y="1058.0"/>
      <point x="266.9115602106949" y="1058.0" type="curve" smooth="yes"/>
      <point x="315.6815602106949" y="1058.0"/>
      <point x="340.40012595260737" y="1034.0"/>
      <point x="339.17261600095406" y="992.0" type="curve" smooth="yes"/>
      <point x="337.8574267670398" y="946.93"/>
      <point x="298.50831322669126" y="919.93"/>
      <point x="240.56908679927093" y="918.93" type="curve"/>
      <point x="265.60897391219913" y="944.93" type="line"/>
      <point x="255.8730675492411" y="888.0" type="line"/>
      <point x="225.45306754924113" y="888.0" type="line"/>
      <point x="235.25897391219917" y="945.0" type="line"/>
      <point x="283.12820033961947" y="946.0"/>
      <point x="302.9458231783445" y="962.0"/>
      <point x="303.82261600095404" y="992.0" type="curve" smooth="yes"/>
      <point x="304.55327668646197" y="1016.93"/>
      <point x="291.6124466703464" y="1030.93"/>
      <point x="265.1924466703464" y="1030.93" type="curve" smooth="yes"/>
      <point x="233.4924466703464" y="1030.93"/>
      <point x="218.62791812194004" y="1011.0"/>
      <point x="211.69880458159147" y="984.0" type="curve"/>
    </contour>
    <contour>
      <point x="235.89285841202027" y="759.0" type="curve"/>
      <point x="166.8428584120203" y="759.0"/>
      <point x="132.48114193625324" y="800.0"/>
      <point x="134.64389756535667" y="874.0" type="curve" smooth="yes"/>
      <point x="134.76080327503794" y="878.0"/>
      <point x="134.87770898471922" y="882.0"/>
      <point x="134.99461469440047" y="886.0" type="curve"/>
      <point x="163.13461469440048" y="886.0" type="line"/>
      <point x="161.1941233395002" y="822.07"/>
      <point x="187.0526890814126" y="798.07"/>
      <point x="239.9626890814126" y="798.07" type="curve"/>
      <point x="284.8026890814126" y="798.07"/>
      <point x="314.00567048465956" y="820.07"/>
      <point x="327.21461469440044" y="886.0" type="curve"/>
      <point x="353.3546146944004" y="886.0" type="line"/>
      <point x="338.7188212185142" y="803.0"/>
      <point x="298.94285841202026" y="759.0"/>
    </contour>
  </outline>
</glyph>
<glyph name="breve_tilde.uc" format="2">
  <advance width="411"/>
  <anchor x="256.7131406296997" y="694.0" name="_top"/>
  <outline>
    <contour>
      <point x="186.81642742031656" y="999.93" type="curve" smooth="yes"/>
      <point x="223.58642742031657" y="999.93"/>
      <point x="224.20212464605376" y="928.0"/>
      <point x="281.25212464605374" y="928.0" type="curve" smooth="yes"/>
      <point x="314.74212464605375" y="928.0"/>
      <point x="338.9865967509242" y="961.0"/>
      <point x="358.07863525098384" y="1023.0" type="curve"/>
      <point x="335.19012595260733" y="1034.0" type="line"/>
      <point x="320.57725743643215" y="986.07"/>
      <point x="306.6073703235039" y="960.07"/>
      <point x="287.1873703235039" y="960.07" type="curve" smooth="yes"/>
      <point x="249.5573703235039" y="960.07"/>
      <point x="247.80167309776672" y="1032.0"/>
      <point x="193.8216730977667" y="1032.0" type="curve" smooth="yes"/>
      <point x="158.3316730977667" y="1032.0"/>
      <point x="135.1341067025775" y="1003.0"/>
      <point x="119.02438892025694" y="938.0" type="curve"/>
      <point x="142.87212464605375" y="928.0" type="line"/>
      <point x="154.48499316222896" y="975.93"/>
      <point x="166.39642742031657" y="999.93"/>
    </contour>
    <contour>
      <point x="218.33285841202027" y="759.0" type="curve" smooth="yes"/>
      <point x="150.35285841202028" y="759.0"/>
      <point x="119.1488212185142" y="803.0"/>
      <point x="121.01931257341445" y="867.0" type="curve" smooth="yes"/>
      <point x="121.19467113793637" y="873.0"/>
      <point x="121.34080327503794" y="878.0"/>
      <point x="121.58616183955984" y="884.0" type="curve"/>
      <point x="149.72616183955984" y="884.0" type="line"/>
      <point x="145.9610290491815" y="826.07"/>
      <point x="168.4926890814126" y="798.07"/>
      <point x="219.4726890814126" y="798.07" type="curve" smooth="yes"/>
      <point x="275.59268908141263" y="798.07"/>
      <point x="297.7318026217612" y="825.07"/>
      <point x="312.8061618395599" y="884.0" type="curve"/>
      <point x="339.87616183955987" y="884.0" type="line"/>
      <point x="324.3395947910939" y="802.0"/>
      <point x="280.38285841202025" y="759.0"/>
    </contour>
  </outline>
</glyph>
<glyph name="circumflex.uc" format="2">
  <advance width="410"/>
  <anchor x="220.6431406296997" y="694.0" name="_top"/>
  <outline>
    <contour>
      <point x="278.41770898471924" y="882.07" type="line"/>
      <point x="346.9836319845999" y="758.07" type="line"/>
      <point x="344.7205941378171" y="749.0" type="line"/>
      <point x="325.5805941378171" y="749.0" type="line"/>
      <point x="229.23853900083478" y="867.93" type="line"/>
      <point x="262.0085390008348" y="867.93" type="line"/>
      <point x="126.01059413781711" y="749.0" type="line"/>
      <point x="106.94059413781711" y="749.0" type="line"/>
      <point x="109.20363198459997" y="758.07" type="line"/>
      <point x="219.64770898471923" y="882.07" type="line"/>
    </contour>
  </outline>
</glyph>
<glyph name="circumflex_acute.uc" format="2">
  <advance width="418"/>
  <anchor x="213.88059413781713" y="749.0" name="_top"/>
  <outline>
    <contour>
      <point x="385.3544453637928" y="925.14" type="curve" smooth="yes"/>
      <point x="339.3747840250081" y="847.07" type="line"/>
      <point x="338.8956140411237" y="833.07" type="line"/>
      <point x="350.9656140411237" y="833.07" type="line"/>
      <point x="416.1199168153865" y="904.93" type="line" smooth="yes"/>
      <point x="435.9436717912131" y="925.93"/>
      <point x="448.4751624928366" y="937.0"/>
      <point x="448.9427853315617" y="953.0" type="curve" smooth="yes"/>
      <point x="449.2642760331851" y="964.07"/>
      <point x="441.457313879968" y="973.07"/>
      <point x="429.317313879968" y="973.07" type="curve" smooth="yes"/>
      <point x="414.17731387996804" y="973.07"/>
      <point x="404.6981438960836" y="959.07"/>
    </contour>
    <component base="circumflex.uc" yxScale="0.029226427420316562" xOffset="4.07"/>
  </outline>
</glyph>
<glyph name="circumflex_grave.uc" format="2">
  <advance width="418"/>
  <anchor x="217.9115934845403" y="696.0" name="_top"/>
  <outline>
    <contour>
      <point x="365.67753965411157" y="921.14" type="line" smooth="yes"/>
      <point x="353.5665967509242" y="961.07"/>
      <point x="347.91731387996805" y="973.07"/>
      <point x="332.707313879968" y="973.07" type="curve" smooth="yes"/>
      <point x="317.567313879968" y="973.07"/>
      <point x="309.1465967509242" y="961.07"/>
      <point x="308.82510604930076" y="950.0" type="curve" smooth="yes"/>
      <point x="308.44516249283663" y="937.0"/>
      <point x="317.1644453637928" y="924.93"/>
      <point x="331.6499168153865" y="904.93" type="curve" smooth="yes"/>
      <point x="377.2456140411237" y="833.07" type="line"/>
      <point x="391.3856140411237" y="833.07" type="line"/>
      <point x="391.79478402500814" y="847.07" type="line"/>
    </contour>
    <component base="circumflex.uc" yxScale="0.029226427420316562" xOffset="4.07"/>
  </outline>
</glyph>
<glyph name="circumflex_hook.uc" format="2">
  <advance width="418"/>
  <anchor x="209.4831406296997" y="694.0" name="_top"/>
  <outline>
    <contour>
      <point x="308.6205210573585" y="943.0" type="line"/>
      <point x="318.08725743643214" y="986.0"/>
      <point x="350.483276686462" y="1017.0"/>
      <point x="398.113276686462" y="1017.0" type="curve" smooth="yes"/>
      <point x="445.74327668646197" y="1017.0"/>
      <point x="471.520295283215" y="995.0"/>
      <point x="470.20510604930075" y="950.0" type="curve" smooth="yes"/>
      <point x="468.9191432428068" y="905.93"/>
      <point x="429.61080327503794" y="877.93"/>
      <point x="370.5608032750379" y="877.93" type="curve"/>
      <point x="393.7406903879662" y="903.93" type="line"/>
      <point x="382.6309726056456" y="839.0" type="line"/>
      <point x="350.3509726056456" y="839.0" type="line"/>
      <point x="361.3322375331256" y="901.93" type="line"/>
      <point x="411.10223753312556" y="902.0"/>
      <point x="430.9898603718506" y="918.0"/>
      <point x="431.95433247672105" y="950.93" type="curve" smooth="yes"/>
      <point x="432.7142195896493" y="976.93"/>
      <point x="421.8841631461134" y="989.93"/>
      <point x="396.3941631461134" y="989.93" type="curve" smooth="yes"/>
      <point x="368.7641631461134" y="989.93"/>
      <point x="351.89963459770706" y="970.0"/>
      <point x="343.9705210573585" y="943.0" type="curve"/>
    </contour>
    <component base="circumflex.uc" yxScale="0.029226427420316562" xOffset="4.07"/>
  </outline>
</glyph>
